<?xml version="1.0" encoding="UTF-8"?>
<!DOCTYPE svg PUBLIC "-//W3C//DTD SVG 1.1//EN" "http://www.w3.org/Graphics/SVG/1.1/DTD/svg11.dtd">
<svg xmlns="http://www.w3.org/2000/svg" version="1.1" width="240px" height="240px" style="shape-rendering:geometricPrecision; text-rendering:geometricPrecision; image-rendering:optimizeQuality; fill-rule:evenodd; clip-rule:evenodd" xmlns:xlink="http://www.w3.org/1999/xlink">
<g><path style="opacity:1" fill="#fefefe" d="M -0.5,-0.5 C 79.5,-0.5 159.5,-0.5 239.5,-0.5C 239.5,79.5 239.5,159.5 239.5,239.5C 159.5,239.5 79.5,239.5 -0.5,239.5C -0.5,159.5 -0.5,79.5 -0.5,-0.5 Z"/></g>
<g><path style="opacity:1" fill="#2b3434" d="M 144.5,48.5 C 147.012,49.2162 147.012,50.2162 144.5,51.5C 143.438,50.5754 143.438,49.5754 144.5,48.5 Z"/></g>
<g><path style="opacity:1" fill="#1b2525" d="M 149.5,48.5 C 150.675,48.281 151.675,48.6143 152.5,49.5C 150.948,50.7979 149.948,50.4646 149.5,48.5 Z"/></g>
<g><path style="opacity:1" fill="#1d2424" d="M 155.5,49.5 C 158.199,52.2721 157.866,52.7721 154.5,51C 155.056,50.6174 155.389,50.1174 155.5,49.5 Z"/></g>
<g><path style="opacity:1" fill="#3c4a4a" d="M 139.5,51.5 C 142.012,52.2162 142.012,53.2162 139.5,54.5C 138.438,53.5754 138.438,52.5754 139.5,51.5 Z"/></g>
<g><path style="opacity:1" fill="#3e4a4a" d="M 159.5,53.5 C 160.995,53.4148 161.995,54.0815 162.5,55.5C 160.604,56.6394 159.604,55.9728 159.5,53.5 Z"/></g>
<g><path style="opacity:1" fill="#1f2626" d="M 137.5,57.5 C 136.604,58.5063 135.938,58.5063 135.5,57.5C 136.167,54.8333 136.833,54.8333 137.5,57.5 Z"/></g>
<g><path style="opacity:1" fill="#c7eef3" d="M 135.5,57.5 C 135.938,58.5063 136.604,58.5063 137.5,57.5C 140.287,58.4767 143.287,58.81 146.5,58.5C 146.5,59.1667 146.167,59.5 145.5,59.5C 116.833,59.5 88.1667,59.5 59.5,59.5C 84.7355,58.8245 110.069,58.1578 135.5,57.5 Z"/></g>
<g><path style="opacity:1" fill="#09171c" d="M 164.5,59.5 C 164.214,61.9327 163.548,61.9327 162.5,59.5C 163.167,58.1667 163.833,58.1667 164.5,59.5 Z"/></g>
<g><path style="opacity:1" fill="#21c0db" d="M 59.5,59.5 C 88.1667,59.5 116.833,59.5 145.5,59.5C 142.108,64.8636 143.441,68.5302 149.5,70.5C 155.559,68.5302 156.892,64.8636 153.5,59.5C 156.5,59.5 159.5,59.5 162.5,59.5C 163.548,61.9327 164.214,61.9327 164.5,59.5C 165.833,59.5 167.167,59.5 168.5,59.5C 169.167,151.5 169.833,151.5 170.5,59.5C 173.5,59.5 176.5,59.5 179.5,59.5C 179.5,86.1667 179.5,112.833 179.5,139.5C 168.167,139.5 156.833,139.5 145.5,139.5C 145.167,139.5 144.833,139.5 144.5,139.5C 144.666,132.825 144.5,126.158 144,119.5C 142.89,117.963 141.39,117.297 139.5,117.5C 148.493,101.31 144.826,88.8103 128.5,80C 115.057,76.3079 104.891,80.4746 98,92.5C 95.5439,100.785 96.2105,108.785 100,116.5C 101,117.5 102,118.5 103,119.5C 102.358,117.193 101.358,114.859 100,112.5C 94.7278,97.8726 99.2278,87.3726 113.5,81C 133.37,78.8737 142.87,87.707 142,107.5C 141.213,111.741 139.379,115.408 136.5,118.5C 134.532,117.181 132.532,117.181 130.5,118.5C 127.953,118.229 125.953,117.229 124.5,115.5C 132.292,112.596 135.458,106.929 134,98.5C 128.927,88.809 121.427,86.309 111.5,91C 102.71,101.093 104.043,109.593 115.5,116.5C 115.819,121.363 115.486,126.03 114.5,130.5C 111.614,127.087 108.447,126.753 105,129.5C 104.48,131.289 104.813,132.956 106,134.5C 107.707,136.037 109.207,137.704 110.5,139.5C 97.1667,139.5 83.8333,139.5 70.5,139.5C 69.8333,47.5 69.1667,47.5 68.5,139.5C 65.5,139.5 62.5,139.5 59.5,139.5C 59.5,112.833 59.5,86.1667 59.5,59.5 Z"/></g>
<g><path style="opacity:1" fill="#09171b" d="M 133.5,61.5 C 135.465,61.9483 135.798,62.9483 134.5,64.5C 133.614,63.675 133.281,62.675 133.5,61.5 Z"/></g>
<g><path style="opacity:1" fill="#0c1a1e" d="M 146.5,58.5 C 148.95,58.298 151.283,58.6314 153.5,59.5C 156.892,64.8636 155.559,68.5302 149.5,70.5C 143.441,68.5302 142.108,64.8636 145.5,59.5C 146.167,59.5 146.5,59.1667 146.5,58.5 Z"/></g>
<g><path style="opacity:1" fill="#1dbad1" d="M 147.5,60.5 C 153.488,60.664 154.821,63.164 151.5,68C 145.403,68.1475 144.07,65.6475 147.5,60.5 Z"/></g>
<g><path style="opacity:1" fill="#07202b" d="M 163.5,64.5 C 165.465,64.9483 165.798,65.9483 164.5,67.5C 163.614,66.675 163.281,65.675 163.5,64.5 Z"/></g>
<g><path style="opacity:1" fill="#081519" d="M 86.5,64.5 C 92.8302,63.6662 95.6635,66.3329 95,72.5C 91.3333,76.5 87.6667,76.5 84,72.5C 83.0182,69.2253 83.8515,66.5586 86.5,64.5 Z"/></g>
<g><path style="opacity:1" fill="#103f4d" d="M 134.5,67.5 C 136.332,68.1405 136.665,69.1405 135.5,70.5C 134.614,69.675 134.281,68.675 134.5,67.5 Z"/></g>
<g><path style="opacity:1" fill="#1db6ce" d="M 86.5,66.5 C 91.6723,65.5648 93.839,67.5648 93,72.5C 86.6842,75.3564 84.5176,73.3564 86.5,66.5 Z"/></g>
<g><path style="opacity:1" fill="#07131b" d="M 161.5,70.5 C 163.337,70.6395 163.67,71.3061 162.5,72.5C 161.702,72.0431 161.369,71.3764 161.5,70.5 Z"/></g>
<g><path style="opacity:1" fill="#071d25" d="M 136.5,72.5 C 139.293,72.74 139.793,73.74 138,75.5C 136.961,74.7562 136.461,73.7562 136.5,72.5 Z"/></g>
<g><path style="opacity:1" fill="#082b37" d="M 158.5,74.5 C 161.012,75.2162 161.012,76.2162 158.5,77.5C 157.438,76.5754 157.438,75.5754 158.5,74.5 Z"/></g>
<g><path style="opacity:1" fill="#061217" d="M 141.5,76.5 C 143.337,76.6395 143.67,77.3061 142.5,78.5C 141.702,78.0431 141.369,77.3764 141.5,76.5 Z"/></g>
<g><path style="opacity:1" fill="#0e1b1f" d="M 152.5,77.5 C 153.675,77.281 154.675,77.6143 155.5,78.5C 153.948,79.7979 152.948,79.4646 152.5,77.5 Z"/></g>
<g><path style="opacity:1" fill="#092d3a" d="M 146.5,78.5 C 147.675,78.281 148.675,78.6143 149.5,79.5C 147.948,80.7979 146.948,80.4646 146.5,78.5 Z"/></g>
<g><path style="opacity:1" fill="#e9f7fb" d="M 139.5,117.5 C 138.609,118.11 137.609,118.443 136.5,118.5C 139.379,115.408 141.213,111.741 142,107.5C 142.87,87.707 133.37,78.8737 113.5,81C 99.2278,87.3726 94.7278,97.8726 100,112.5C 101.358,114.859 102.358,117.193 103,119.5C 102,118.5 101,117.5 100,116.5C 96.2105,108.785 95.5439,100.785 98,92.5C 104.891,80.4746 115.057,76.3079 128.5,80C 144.826,88.8103 148.493,101.31 139.5,117.5 Z"/></g>
<g><path style="opacity:1" fill="#eaf8fc" d="M 124.5,115.5 C 124.5,115.167 124.5,114.833 124.5,114.5C 131.015,111.133 133.515,105.8 132,98.5C 127.949,90.6259 121.782,88.4592 113.5,92C 107.725,96.3271 106.225,101.827 109,108.5C 110.385,111.386 112.551,113.386 115.5,114.5C 115.5,115.167 115.5,115.833 115.5,116.5C 104.043,109.593 102.71,101.093 111.5,91C 121.427,86.309 128.927,88.809 134,98.5C 135.458,106.929 132.292,112.596 124.5,115.5 Z"/></g>
<g><path style="opacity:1" fill="#184f58" d="M 116.5,100.5 C 116.832,110.855 116.499,121.188 115.5,131.5C 114.893,131.376 114.56,131.043 114.5,130.5C 115.486,126.03 115.819,121.363 115.5,116.5C 115.5,115.833 115.5,115.167 115.5,114.5C 115.5,113.167 115.5,111.833 115.5,110.5C 115.5,109.833 115.5,109.167 115.5,108.5C 115.194,105.615 115.527,102.948 116.5,100.5 Z"/></g>
<g><path style="opacity:1" fill="#e7f8fb" d="M 115.5,83.5 C 135.191,84.0119 142.357,93.6786 137,112.5C 136,113.833 135,115.167 134,116.5C 133.5,116 133,115.5 132.5,115C 138.87,106.987 139.037,98.8201 133,90.5C 122.742,83.0384 113.408,84.0384 105,93.5C 101.193,101.212 102.026,108.378 107.5,115C 106.004,115.507 104.837,115.007 104,113.5C 97.5238,99.4634 101.357,89.4634 115.5,83.5 Z"/></g>
<g><path style="opacity:1" fill="#33c4db" d="M 124.5,114.5 C 124.5,113.167 124.5,111.833 124.5,110.5C 130.703,105.763 131.036,100.596 125.5,95C 118.684,91.7747 113.851,93.608 111,100.5C 110.286,104.867 111.786,108.2 115.5,110.5C 115.5,111.833 115.5,113.167 115.5,114.5C 112.551,113.386 110.385,111.386 109,108.5C 106.225,101.827 107.725,96.3271 113.5,92C 121.782,88.4592 127.949,90.6259 132,98.5C 133.515,105.8 131.015,111.133 124.5,114.5 Z"/></g>
<g><path style="opacity:1" fill="#e7f7fb" d="M 124.5,110.5 C 124.5,109.833 124.5,109.167 124.5,108.5C 128.741,104.074 128.407,99.9078 123.5,96C 115.83,94.6727 112.33,97.8393 113,105.5C 113.377,106.942 114.21,107.942 115.5,108.5C 115.5,109.167 115.5,109.833 115.5,110.5C 111.786,108.2 110.286,104.867 111,100.5C 113.851,93.608 118.684,91.7747 125.5,95C 131.036,100.596 130.703,105.763 124.5,110.5 Z"/></g>
<g><path style="opacity:1" fill="#33c3dc" d="M 124.5,108.5 C 124.664,105.813 124.497,103.146 124,100.5C 121.379,97.8598 118.879,97.8598 116.5,100.5C 115.527,102.948 115.194,105.615 115.5,108.5C 114.21,107.942 113.377,106.942 113,105.5C 112.33,97.8393 115.83,94.6727 123.5,96C 128.407,99.9078 128.741,104.074 124.5,108.5 Z"/></g>
<g><path style="opacity:1" fill="#10191b" d="M 124.5,108.5 C 124.5,109.167 124.5,109.833 124.5,110.5C 124.5,111.833 124.5,113.167 124.5,114.5C 124.5,114.833 124.5,115.167 124.5,115.5C 125.953,117.229 127.953,118.229 130.5,118.5C 132.532,117.181 134.532,117.181 136.5,118.5C 137.609,118.443 138.609,118.11 139.5,117.5C 141.39,117.297 142.89,117.963 144,119.5C 144.5,126.158 144.666,132.825 144.5,139.5C 145.113,145.271 144.446,150.604 142.5,155.5C 142.5,150.167 142.5,144.833 142.5,139.5C 142.5,132.833 142.5,126.167 142.5,119.5C 140.508,119.328 138.842,119.995 137.5,121.5C 135.167,118.833 132.833,118.833 130.5,121.5C 128.167,118.833 125.833,118.833 123.5,121.5C 122.669,114.858 122.169,108.191 122,101.5C 120.708,100.209 119.542,100.209 118.5,101.5C 117.833,112.833 117.167,124.167 116.5,135.5C 114.706,133.203 112.706,131.037 110.5,129C 107.333,128.167 106.167,129.333 107,132.5C 109.37,135.039 111.87,137.372 114.5,139.5C 115.5,140.833 116.5,142.167 117.5,143.5C 118.089,147.971 117.423,151.971 115.5,155.5C 115.666,151.486 115.499,147.486 115,143.5C 113.629,141.959 112.129,140.625 110.5,139.5C 109.207,137.704 107.707,136.037 106,134.5C 104.813,132.956 104.48,131.289 105,129.5C 108.447,126.753 111.614,127.087 114.5,130.5C 114.56,131.043 114.893,131.376 115.5,131.5C 116.499,121.188 116.832,110.855 116.5,100.5C 118.879,97.8598 121.379,97.8598 124,100.5C 124.497,103.146 124.664,105.813 124.5,108.5 Z"/></g>
<g><path style="opacity:1" fill="#27c0da" d="M 142.5,139.5 C 133.167,139.5 123.833,139.5 114.5,139.5C 111.87,137.372 109.37,135.039 107,132.5C 106.167,129.333 107.333,128.167 110.5,129C 112.706,131.037 114.706,133.203 116.5,135.5C 116.56,136.043 116.893,136.376 117.5,136.5C 118.499,124.852 118.832,113.186 118.5,101.5C 119.542,100.209 120.708,100.209 122,101.5C 122.169,108.191 122.669,114.858 123.5,121.5C 125.833,118.833 128.167,118.833 130.5,121.5C 132.833,118.833 135.167,118.833 137.5,121.5C 138.842,119.995 140.508,119.328 142.5,119.5C 142.5,126.167 142.5,132.833 142.5,139.5 Z"/></g>
<g><path style="opacity:1" fill="#208a9c" d="M 118.5,101.5 C 118.832,113.186 118.499,124.852 117.5,136.5C 116.893,136.376 116.56,136.043 116.5,135.5C 117.167,124.167 117.833,112.833 118.5,101.5 Z"/></g>
<g><path style="opacity:1" fill="#fdfdfd" d="M 114.5,139.5 C 123.833,139.5 133.167,139.5 142.5,139.5C 142.5,144.833 142.5,150.167 142.5,155.5C 134.5,155.5 126.5,155.5 118.5,155.5C 118.817,151.298 118.483,147.298 117.5,143.5C 116.5,142.167 115.5,140.833 114.5,139.5 Z"/></g>
<g><path style="opacity:1" fill="#2b3434" d="M 84.5,143.5 C 87.0118,144.216 87.0118,145.216 84.5,146.5C 83.4376,145.575 83.4376,144.575 84.5,143.5 Z"/></g>
<g><path style="opacity:1" fill="#1a2424" d="M 89.5,143.5 C 90.675,143.281 91.675,143.614 92.5,144.5C 90.9483,145.798 89.9483,145.465 89.5,143.5 Z"/></g>
<g><path style="opacity:1" fill="#101616" d="M 95.5,144.5 C 97.0847,145.002 97.5847,146.002 97,147.5C 95.9614,146.756 95.4614,145.756 95.5,144.5 Z"/></g>
<g><path style="opacity:1" fill="#3d4a4a" d="M 79.5,146.5 C 82.0118,147.216 82.0118,148.216 79.5,149.5C 78.4376,148.575 78.4376,147.575 79.5,146.5 Z"/></g>
<g><path style="opacity:1" fill="#222b2b" d="M 99.5,148.5 C 102.293,148.74 102.793,149.74 101,151.5C 99.9614,150.756 99.4614,149.756 99.5,148.5 Z"/></g>
<g><path style="opacity:1" fill="#c5cfcf" d="M 154.5,148.5 C 163.192,148.169 171.859,148.502 180.5,149.5C 176.167,149.833 171.833,150.167 167.5,150.5C 162.778,150.492 158.445,149.825 154.5,148.5 Z"/></g>
<g><path style="opacity:1" fill="#272f2f" d="M 75.5,150.5 C 78.0118,151.216 78.0118,152.216 75.5,153.5C 74.913,152.767 74.913,151.767 75.5,150.5 Z"/></g>
<g><path style="opacity:1" fill="#212929" d="M 102.5,153.5 C 104.465,153.948 104.798,154.948 103.5,156.5C 102.614,155.675 102.281,154.675 102.5,153.5 Z"/></g>
<g><path style="opacity:1" fill="#c5cfcf" d="M 154.5,154.5 C 163.192,154.169 171.859,154.502 180.5,155.5C 176.167,155.833 171.833,156.167 167.5,156.5C 162.778,156.492 158.445,155.825 154.5,154.5 Z"/></g>
<g><path style="opacity:1" fill="#161d1d" d="M 73.5,156.5 C 75.4646,156.948 75.7979,157.948 74.5,159.5C 73.6143,158.675 73.281,157.675 73.5,156.5 Z"/></g>
<g><path style="opacity:1" fill="#dce2e4" d="M 144.5,139.5 C 144.833,139.5 145.167,139.5 145.5,139.5C 145.298,148.616 145.965,157.616 147.5,166.5C 136.5,166.5 125.5,166.5 114.5,166.5C 114.185,162.629 114.518,158.962 115.5,155.5C 117.423,151.971 118.089,147.971 117.5,143.5C 118.483,147.298 118.817,151.298 118.5,155.5C 126.5,155.5 134.5,155.5 142.5,155.5C 144.446,150.604 145.113,145.271 144.5,139.5 Z"/></g>
<g><path style="opacity:1" fill="#171f1f" d="M 103.5,159.5 C 105.465,159.948 105.798,160.948 104.5,162.5C 103.614,161.675 103.281,160.675 103.5,159.5 Z"/></g>
<g><path style="opacity:1" fill="#c5cece" d="M 154.5,159.5 C 163.192,159.169 171.859,159.502 180.5,160.5C 176.167,160.833 171.833,161.167 167.5,161.5C 162.778,161.492 158.445,160.825 154.5,159.5 Z"/></g>
<g><path style="opacity:1" fill="#181f1f" d="M 74.5,162.5 C 76.7602,163.238 76.9269,164.238 75,165.5C 74.5172,164.552 74.3505,163.552 74.5,162.5 Z"/></g>
<g><path style="opacity:1" fill="#c6cfcf" d="M 154.5,164.5 C 159.544,164.173 164.544,164.506 169.5,165.5C 167,165.833 164.5,166.167 162,166.5C 159.071,166.475 156.571,165.809 154.5,164.5 Z"/></g>
<g><path style="opacity:1" fill="#151d1d" d="M 102.5,164.5 C 103.776,165.386 103.776,166.386 102.5,167.5C 101.438,166.575 101.438,165.575 102.5,164.5 Z"/></g>
<g><path style="opacity:1" fill="#1c2929" d="M 76.5,167.5 C 79.2933,167.74 79.7933,168.74 78,170.5C 76.9614,169.756 76.4614,168.756 76.5,167.5 Z"/></g>
<g><path style="opacity:1" fill="#171d1d" d="M 84.5,148.5 C 98.1235,147.935 102.623,153.935 98,166.5C 91.7078,172.048 85.7078,171.715 80,165.5C 77.0516,158.612 78.5516,152.946 84.5,148.5 Z"/></g>
<g><path style="opacity:1" fill="#eaeded" d="M 85.5,150.5 C 95.1583,148.993 99.325,152.993 98,162.5C 95.3674,167.732 91.2008,169.565 85.5,168C 78.8415,161.997 78.8415,156.164 85.5,150.5 Z"/></g>
<g><path style="opacity:1" fill="#192020" d="M 86.5,153.5 C 94.7443,153.228 97.0776,156.728 93.5,164C 88.0226,166.595 84.6892,164.928 83.5,159C 83.8627,156.808 84.8627,154.974 86.5,153.5 Z"/></g>
<g><path style="opacity:1" fill="#ebeeee" d="M 87.5,155.5 C 93.4877,155.664 94.821,158.164 91.5,163C 85.4034,163.147 84.0701,160.647 87.5,155.5 Z"/></g>
<g><path style="opacity:1" fill="#bec9c9" d="M 114.5,166.5 C 125.5,166.5 136.5,166.5 147.5,166.5C 148.492,173.982 148.825,181.648 148.5,189.5C 136.5,189.5 124.5,189.5 112.5,189.5C 111.868,181.427 112.535,173.76 114.5,166.5 Z"/></g>
<g><path style="opacity:1" fill="#2c3a3a" d="M 98.5,169.5 C 101.012,170.216 101.012,171.216 98.5,172.5C 97.4376,171.575 97.4376,170.575 98.5,169.5 Z"/></g>
<g><path style="opacity:1" fill="#131b1b" d="M 81.5,171.5 C 83.337,171.639 83.6704,172.306 82.5,173.5C 81.7025,173.043 81.3691,172.376 81.5,171.5 Z"/></g>
<g><path style="opacity:1" fill="#253030" d="M 92.5,172.5 C 93.675,172.281 94.675,172.614 95.5,173.5C 93.9483,174.798 92.9483,174.465 92.5,172.5 Z"/></g>
<g><path style="opacity:1" fill="#2e3d3d" d="M 86.5,173.5 C 87.675,173.281 88.675,173.614 89.5,174.5C 87.9483,175.798 86.9483,175.465 86.5,173.5 Z"/></g>
</svg>
