<?xml version="1.0" encoding="UTF-8"?>
<!DOCTYPE svg PUBLIC "-//W3C//DTD SVG 1.1//EN" "http://www.w3.org/Graphics/SVG/1.1/DTD/svg11.dtd">
<svg xmlns="http://www.w3.org/2000/svg" version="1.1" width="177px" height="61px" style="shape-rendering:geometricPrecision; text-rendering:geometricPrecision; image-rendering:optimizeQuality; fill-rule:evenodd; clip-rule:evenodd" xmlns:xlink="http://www.w3.org/1999/xlink">
<g><path style="opacity:0.313" fill="#fefffe" d="M 21.5,-0.5 C 27.5,-0.5 33.5,-0.5 39.5,-0.5C 61.2705,9.64223 67.1039,25.6422 57,47.5C 52.37,53.6538 46.5366,57.9872 39.5,60.5C 33.5,60.5 27.5,60.5 21.5,60.5C 16.935,58.5461 12.6017,56.0461 8.5,53C 4.58492,48.6565 1.58492,43.8232 -0.5,38.5C -0.5,32.8333 -0.5,27.1667 -0.5,21.5C 1.4539,16.935 3.9539,12.6017 7,8.5C 11.3435,4.58492 16.1768,1.58492 21.5,-0.5 Z M 39.5,10.5 C 39.7778,8.65358 39.1112,7.32025 37.5,6.5C 35.4501,7.0766 34.4501,8.40993 34.5,10.5C 33.7229,6.52335 31.8896,5.85668 29,8.5C 27.6667,7.16667 26.3333,7.16667 25,8.5C 23.185,6.8998 22.0183,4.8998 21.5,2.5C 27.961,-0.229487 34.2943,-0.0628203 40.5,3C 40.2976,5.58646 39.9643,8.08646 39.5,10.5 Z M 17.5,12.5 C 14.5,12.1667 13.1667,13.5 13.5,16.5C 11.7231,16.7863 10.0564,17.4529 8.5,18.5C 6.92714,18.2483 5.5938,17.5817 4.5,16.5C 7.09439,10.7373 11.2611,6.40399 17,3.5C 19.3201,5.49999 21.4868,7.66666 23.5,10C 23.3333,10.5 23.1667,11 23,11.5C 22.3878,8.96827 20.8878,8.13494 18.5,9C 17.6634,10.0113 17.33,11.1779 17.5,12.5 Z M 49.5,22.5 C 52.3892,22.001 53.0558,20.501 51.5,18C 50.552,17.5172 49.552,17.3505 48.5,17.5C 48.8333,14.5 47.5,13.1667 44.5,13.5C 44.2137,11.7231 43.5471,10.0564 42.5,8.5C 42.8988,6.80343 43.3988,5.13677 44,3.5C 49.8333,6.66667 54.3333,11.1667 57.5,17C 55.3137,18.5116 53.647,20.5116 52.5,23C 51.2506,23.7401 50.2506,23.5735 49.5,22.5 Z M 35.5,11.5 C 36.5,11.5 37.5,11.5 38.5,11.5C 37.5,14.1667 36.5,14.1667 35.5,11.5 Z M 33.5,12.5 C 36.3219,13.7892 36.9886,15.7892 35.5,18.5C 33.7175,16.9775 33.0508,14.9775 33.5,12.5 Z M 24.5,14.5 C 25.7082,13.218 27.0416,13.218 28.5,14.5C 31.0241,17.5123 33.5241,20.179 36,22.5C 32.3246,26.3386 30.3246,25.3386 30,19.5C 28.2962,17.6266 26.4628,15.9599 24.5,14.5 Z M 44.5,13.5 C 44.4891,16.0009 43.8224,16.1676 42.5,14C 43.0944,13.5357 43.7611,13.369 44.5,13.5 Z M 38.5,14.5 C 39.3909,15.2613 40.0576,16.2613 40.5,17.5C 40.2989,19.6478 39.9655,21.8144 39.5,24C 39.7591,25.2613 40.4258,26.2613 41.5,27C 38.8168,29.1952 36.4834,28.8618 34.5,26C 35.9308,25.5348 37.0975,24.7014 38,23.5C 38.498,20.5184 38.6646,17.5184 38.5,14.5 Z M 17.5,16.5 C 18.4486,15.8476 19.6153,15.5143 21,15.5C 22.9729,15.3094 24.4729,15.976 25.5,17.5C 24.8333,17.8333 24.1667,18.1667 23.5,18.5C 21.6663,17.2455 19.6663,16.5789 17.5,16.5 Z M 13.5,16.5 C 14.8333,16.5 16.1667,16.5 17.5,16.5C 17.631,17.2389 17.4643,17.9056 17,18.5C 15.6976,17.9152 14.531,17.2485 13.5,16.5 Z M 44.5,17.5 C 46.0635,20.4454 45.5635,23.112 43,25.5C 42.5,25 42,24.5 41.5,24C 43.4567,22.2544 44.4567,20.0878 44.5,17.5 Z M 14.5,21.5 C 17.8368,20.2609 21.1701,20.2609 24.5,21.5C 25.5,20.8333 26.5,20.1667 27.5,19.5C 28.4656,21.396 28.7989,23.396 28.5,25.5C 26.3193,25.7163 24.6526,24.883 23.5,23C 20.3054,22.8195 17.3054,22.3195 14.5,21.5 Z M 11.5,22.5 C 6.63931,21.0245 5.63931,22.3579 8.5,26.5C 5.62504,29.5396 6.29171,31.2063 10.5,31.5C 9.19174,32.2323 7.85841,33.0656 6.5,34C 7.15997,37.5005 5.49331,39.0005 1.5,38.5C 0.00490014,32.7927 0.171567,27.1261 2,21.5C 4.16917,21.7113 6.50251,21.3779 9,20.5C 10.3756,20.6842 11.2089,21.3509 11.5,22.5 Z M 49.5,22.5 C 47.9719,22.4827 47.4719,21.816 48,20.5C 48.7172,21.0442 49.2172,21.7109 49.5,22.5 Z M 49.5,38.5 C 51.7986,39.9323 53.4653,39.2656 54.5,36.5C 53.6798,34.8888 52.3464,34.2222 50.5,34.5C 55.2676,32.8536 55.6009,30.5202 51.5,27.5C 52.675,27.719 53.675,27.3857 54.5,26.5C 53.2889,25.2798 53.2889,24.1131 54.5,23C 55.8721,22.5983 57.2054,22.0983 58.5,21.5C 60.9843,27.0928 61.151,32.7595 59,38.5C 56.7354,38.4091 54.4021,39.0758 52,40.5C 50.699,40.3613 49.8656,39.6946 49.5,38.5 Z M 12.5,27.5 C 13.7892,24.6781 15.7892,24.0114 18.5,25.5C 16.9775,27.2825 14.9775,27.9492 12.5,27.5 Z M 20.5,24.5 C 24.292,25.3788 25.4587,27.3788 24,30.5C 22.9505,29.4829 21.7839,29.3162 20.5,30C 18.208,31.2899 16.208,32.9565 14.5,35C 13.5,35.6667 12.5,35.6667 11.5,35C 14.3333,32.5 17.1667,30 20,27.5C 20.4828,26.552 20.6495,25.552 20.5,24.5 Z M 46.5,24.5 C 50.8926,24.4568 51.2259,24.9568 47.5,26C 46.1667,26.6667 46.1667,27.3333 47.5,28C 45.2399,29.3352 43.0733,30.8352 41,32.5C 40.5172,33.448 40.3505,34.448 40.5,35.5C 33.6095,32.7275 33.9429,30.8941 41.5,30C 43.3734,28.2962 45.0401,26.4628 46.5,24.5 Z M 12.5,27.5 C 12.8432,29.4832 12.1765,30.8166 10.5,31.5C 10.9887,30.0048 11.6554,28.6715 12.5,27.5 Z M 29.5,28.5 C 30.9953,28.4148 31.9953,29.0815 32.5,30.5C 31.1667,31.8333 29.8333,31.8333 28.5,30.5C 28.8627,29.8165 29.1961,29.1499 29.5,28.5 Z M 21.5,46.5 C 21.6399,44.8762 20.9733,43.7096 19.5,43C 20.428,42.6121 21.0946,41.9454 21.5,41C 20.1667,39.3333 20.1667,37.6667 21.5,36C 18.7195,34.0836 18.8862,32.5836 22,31.5C 26.8628,32.4345 27.3628,34.1011 23.5,36.5C 22.8328,39.9773 22.1661,43.3107 21.5,46.5 Z M 47.5,33.5 C 46.2486,35.561 44.5819,35.8943 42.5,34.5C 43.9653,32.5764 45.632,32.2431 47.5,33.5 Z M 16.5,42.5 C 14.9365,39.5546 15.4365,36.888 18,34.5C 18.5,35 19,35.5 19.5,36C 17.7811,37.8705 16.7811,40.0372 16.5,42.5 Z M 33.5,34.5 C 35.1958,34.6854 36.5291,35.5187 37.5,37C 41.0284,37.089 44.3618,37.7556 47.5,39C 43.5,39.3333 39.5,39.6667 35.5,40C 33.5023,41.724 32.5023,41.0573 32.5,38C 32.6483,36.7441 32.9816,35.5774 33.5,34.5 Z M 27.5,35.5 C 28.4959,35.4142 29.3292,35.7476 30,36.5C 30.4604,40.9795 32.6271,44.4795 36.5,47C 35.451,47.4922 34.451,47.3256 33.5,46.5C 30.9715,43.6109 27.9715,41.6109 24.5,40.5C 24.7215,38.3364 25.7215,36.6697 27.5,35.5 Z M 49.5,35.5 C 49.5,36.5 49.5,37.5 49.5,38.5C 46.8333,37.5 46.8333,36.5 49.5,35.5 Z M 8.5,38.5 C 10.0348,37.2121 11.7015,37.2121 13.5,38.5C 12.1125,38.8072 10.4458,38.8072 8.5,38.5 Z M 8.5,38.5 C 8.5,39.8333 8.5,41.1667 8.5,42.5C 9.83333,42.5 11.1667,42.5 12.5,42.5C 12.5,43.8333 12.5,45.1667 12.5,46.5C 13.8333,46.5 15.1667,46.5 16.5,46.5C 16.7863,48.2769 17.4529,49.9436 18.5,51.5C 18.1012,53.1966 17.6012,54.8632 17,56.5C 11.1667,53.3333 6.66667,48.8333 3.5,43C 4.44802,42.5172 5.44802,42.3505 6.5,42.5C 6.22911,40.6203 6.89578,39.287 8.5,38.5 Z M 43.5,43.5 C 42.5514,44.1524 41.3847,44.4857 40,44.5C 38.0271,44.6906 36.5271,44.024 35.5,42.5C 36,42.1667 36.5,41.8333 37,41.5C 38.8792,43.0128 41.0459,43.6795 43.5,43.5 Z M 27.5,47.5 C 25.2729,46.5994 24.2729,44.9328 24.5,42.5C 25.5,42.5 26.5,42.5 27.5,42.5C 27.5,44.1667 27.5,45.8333 27.5,47.5 Z M 43.5,43.5 C 43.9169,42.8761 44.5836,42.5427 45.5,42.5C 46.7133,42.7472 47.38,43.4138 47.5,44.5C 46.2921,43.7659 44.9587,43.4326 43.5,43.5 Z M 38.5,51.5 C 42.4713,52.8444 43.8047,51.511 42.5,47.5C 45.4246,48.8659 47.0913,47.8659 47.5,44.5C 50.3521,42.2082 53.3521,42.0416 56.5,44C 53.6667,49.5 49.5,53.6667 44,56.5C 42.5088,54.4061 40.6755,52.7394 38.5,51.5 Z M 42.5,47.5 C 41.0413,47.4326 39.7079,47.7659 38.5,48.5C 38.62,47.4138 39.2867,46.7472 40.5,46.5C 41.4164,46.5427 42.0831,46.8761 42.5,47.5 Z M 24.5,48.5 C 23.609,49.1098 22.609,49.4431 21.5,49.5C 22.221,47.6182 23.221,47.2848 24.5,48.5 Z M 21.5,49.5 C 21.1762,52.6802 22.5096,53.8469 25.5,53C 26.8741,49.5899 27.5408,49.7566 27.5,53.5C 28.8333,53.5 30.1667,53.5 31.5,53.5C 31.5,52.1667 31.5,50.8333 31.5,49.5C 33.3223,50.281 33.9889,51.4477 33.5,53C 36.7893,52.585 38.7893,54.2517 39.5,58C 33.5393,59.8291 27.5393,59.9957 21.5,58.5C 20.8885,55.304 20.8885,52.304 21.5,49.5 Z"/></g>
<g><path style="opacity:0.474" fill="#fefffe" d="M 39.5,10.5 C 38.8333,10.5 38.5,10.8333 38.5,11.5C 37.5,11.5 36.5,11.5 35.5,11.5C 35.5,10.8333 35.1667,10.5 34.5,10.5C 34.4501,8.40993 35.4501,7.0766 37.5,6.5C 39.1112,7.32025 39.7778,8.65358 39.5,10.5 Z"/></g>
<g><path style="opacity:0.617" fill="#fefffe" d="M 64.5,17.5 C 65.9778,17.238 67.3112,17.5713 68.5,18.5C 70.2534,24.9539 71.5867,24.9539 72.5,18.5C 72.8333,18.1667 73.1667,17.8333 73.5,17.5C 74.1689,21.2088 73.6689,24.8754 72,28.5C 70.6883,30.6576 69.0217,30.9909 67,29.5C 65.5302,25.6224 64.6969,21.6224 64.5,17.5 Z"/></g>
<g><path style="opacity:0.607" fill="#fefffe" d="M 84.5,21.5 C 85.5862,21.62 86.2528,22.2867 86.5,23.5C 85.772,25.1547 85.6053,26.8214 86,28.5C 87.7157,25.3599 89.049,22.0266 90,18.5C 91.3561,17.6198 92.8561,17.2865 94.5,17.5C 95.3436,21.8741 96.3436,26.2075 97.5,30.5C 95.088,30.6695 92.9214,30.0028 91,28.5C 86.3571,30.4818 81.5238,30.9818 76.5,30C 73.6812,27.2805 74.0145,24.9472 77.5,23C 76.0358,19.7591 77.2025,17.9257 81,17.5C 83.0736,18.0717 84.2402,19.405 84.5,21.5 Z M 84.5,21.5 C 84.7978,24.3356 84.1311,24.8356 82.5,23C 83.0442,22.2828 83.7109,21.7828 84.5,21.5 Z"/></g>
<g><path style="opacity:0.603" fill="#fefffe" d="M 176.5,21.5 C 176.5,22.5 176.5,23.5 176.5,24.5C 175.167,24.8333 175.167,25.1667 176.5,25.5C 176.5,26.8333 176.5,28.1667 176.5,29.5C 172.108,29.9189 167.775,30.2522 163.5,30.5C 163.167,22.5 162.833,22.5 162.5,30.5C 160.549,30.7733 159.049,30.1066 158,28.5C 155,31.1667 152,31.1667 149,28.5C 148.481,29.5156 147.647,30.1822 146.5,30.5C 144.3,30.0963 141.966,29.9296 139.5,30C 138.726,27.595 138.226,25.095 138,22.5C 137.503,25.146 137.336,27.8127 137.5,30.5C 133.177,30.206 129.011,30.206 125,30.5C 123.674,30.2451 122.674,29.5784 122,28.5C 118.528,31.418 115.528,31.0846 113,27.5C 110.833,30.2868 107.999,31.1201 104.5,30C 101.997,28.2161 101.997,26.5494 104.5,25C 101.708,21.0421 102.874,18.5421 108,17.5C 112.429,18.1769 113.263,20.0102 110.5,23C 111,23.1667 111.5,23.3333 112,23.5C 115.068,20.0615 118.402,19.7281 122,22.5C 122.494,20.8659 122.66,19.1992 122.5,17.5C 124.167,17.5 125.833,17.5 127.5,17.5C 127.5,18.5 127.5,19.5 127.5,20.5C 132.257,20.9965 136.757,20.3298 141,18.5C 143.184,21.4566 144.351,21.1233 144.5,17.5C 145.822,17.33 146.989,17.6634 148,18.5C 148.333,20.1667 148.667,21.8333 149,23.5C 152,19.5 155,19.5 158,23.5C 158.483,22.552 158.649,21.552 158.5,20.5C 161.272,21.2345 163.939,21.4012 166.5,21C 167.227,22.3988 167.727,23.8988 168,25.5C 169.083,20.6763 171.917,19.343 176.5,21.5 Z M 107.5,19.5 C 110.199,22.2721 109.866,22.7721 106.5,21C 107.056,20.6174 107.389,20.1174 107.5,19.5 Z M 105.5,25.5 C 109.297,26.9114 109.297,27.9114 105.5,28.5C 105.5,27.5 105.5,26.5 105.5,25.5 Z"/></g>
<g><path style="opacity:0.404" fill="#fefffe" d="M 176.5,34.5 C 176.5,36.1667 176.5,37.8333 176.5,39.5C 166.15,39.1237 155.817,39.1237 145.5,39.5C 145.5,37.1667 145.5,34.8333 145.5,32.5C 147.766,32.1412 149.599,32.8078 151,34.5C 153.868,32.5747 156.535,32.5747 159,34.5C 162.169,33.7646 165.502,33.7646 169,34.5C 169.249,33.376 169.749,32.376 170.5,31.5C 171.298,33.0777 171.798,34.7444 172,36.5C 172.483,35.552 172.649,34.552 172.5,33.5C 173.959,33.4326 175.292,33.7659 176.5,34.5 Z"/></g>
<g><path style="opacity:0.527" fill="#fefffe" d="M 50.5,34.5 C 52.3464,34.2222 53.6798,34.8888 54.5,36.5C 53.4653,39.2656 51.7986,39.9323 49.5,38.5C 49.5,37.5 49.5,36.5 49.5,35.5C 50.1667,35.5 50.5,35.1667 50.5,34.5 Z"/></g>
<g><path style="opacity:0.501" fill="#fefffe" d="M 42.5,47.5 C 43.8047,51.511 42.4713,52.8444 38.5,51.5C 38.5,50.5 38.5,49.5 38.5,48.5C 39.7079,47.7659 41.0413,47.4326 42.5,47.5 Z"/></g>
</svg>
