<?xml version="1.0" encoding="UTF-8"?>
<!DOCTYPE svg PUBLIC "-//W3C//DTD SVG 1.1//EN" "http://www.w3.org/Graphics/SVG/1.1/DTD/svg11.dtd">
<svg xmlns="http://www.w3.org/2000/svg" version="1.1" width="140px" height="65px" style="shape-rendering:geometricPrecision; text-rendering:geometricPrecision; image-rendering:optimizeQuality; fill-rule:evenodd; clip-rule:evenodd" xmlns:xlink="http://www.w3.org/1999/xlink">
<g><path style="opacity:0.865" fill="#ff7081" d="M 22.5,-0.5 C 27.1667,-0.5 31.8333,-0.5 36.5,-0.5C 38.7131,1.54165 39.3798,3.87498 38.5,6.5C 28.2933,4.96975 19.2933,7.63642 11.5,14.5C 10.6143,13.675 10.281,12.675 10.5,11.5C 8.71199,11.7852 7.04533,11.4519 5.5,10.5C 10.4417,5.52939 16.1083,1.86272 22.5,-0.5 Z"/></g>
<g><path style="opacity:0.852" fill="#9366ae" d="M 38.5,6.5 C 39.5,6.5 40.5,6.5 41.5,6.5C 40.9478,4.66927 40.9478,3.0026 41.5,1.5C 52.4418,6.77832 58.7752,15.445 60.5,27.5C 59.5161,29.4799 58.1827,31.1466 56.5,32.5C 55.5224,32.0233 54.6891,31.3567 54,30.5C 52.9864,22.6381 49.4864,16.1381 43.5,11C 41.9751,9.99136 40.3084,9.49136 38.5,9.5C 38.5,8.5 38.5,7.5 38.5,6.5 Z"/></g>
<g><path style="opacity:0.771" fill="#9467ad" d="M 31.5,12.5 C 32.4959,12.4142 33.3292,12.7476 34,13.5C 34.4544,20.216 34.7877,26.8827 35,33.5C 28.2476,34.6445 21.4143,34.8112 14.5,34C 13.273,32.4126 13.6063,31.0793 15.5,30C 20.4889,29.5007 25.4889,29.3341 30.5,29.5C 30.2143,23.7414 30.5476,18.0748 31.5,12.5 Z"/></g>
<g><path style="opacity:0.859" fill="#00c2f0" d="M 5.5,13.5 C 6.95875,13.4326 8.29208,13.7659 9.5,14.5C 9.80393,15.1499 10.1373,15.8165 10.5,16.5C 5.98748,24.4761 5.32081,32.8094 8.5,41.5C 7.50838,41.3284 6.84171,41.6618 6.5,42.5C 5.71003,43.6085 5.21003,44.9419 5,46.5C 2.52638,44.1809 0.693047,41.5142 -0.5,38.5C -0.5,33.1667 -0.5,27.8333 -0.5,22.5C 0.739932,19.976 1.9066,17.3093 3,14.5C 3.67076,13.7476 4.5041,13.4142 5.5,13.5 Z"/></g>
<g><path style="opacity:0.498" fill="#00d4ff" d="M 5.5,13.5 C 5.91695,12.8761 6.58362,12.5427 7.5,12.5C 8.71335,12.7472 9.38002,13.4138 9.5,14.5C 8.29208,13.7659 6.95875,13.4326 5.5,13.5 Z"/></g>
<g><path style="opacity:0.628" fill="#fefffe" d="M 139.5,29.5 C 139.5,30.8333 139.5,32.1667 139.5,33.5C 136.557,35.2704 134.557,34.6038 133.5,31.5C 134.793,28.6246 136.793,27.958 139.5,29.5 Z"/></g>
<g><path style="opacity:0.762" fill="#fefffe" d="M 38.5,31.5 C 42.8461,31.3343 47.1794,31.501 51.5,32C 56.7375,35.2738 57.9042,39.7738 55,45.5C 51.7084,48.3197 47.8751,49.6531 43.5,49.5C 43.5,52.1667 43.5,54.8333 43.5,57.5C 41.8333,57.5 40.1667,57.5 38.5,57.5C 38.5,48.8333 38.5,40.1667 38.5,31.5 Z M 43.5,35.5 C 51.0376,34.6772 53.0376,37.5105 49.5,44C 47.5273,44.4955 45.5273,44.6621 43.5,44.5C 43.5,41.5 43.5,38.5 43.5,35.5 Z"/></g>
<g><path style="opacity:0.75" fill="#fefffe" d="M 127.5,64.5 C 123.833,64.5 120.167,64.5 116.5,64.5C 111.894,61.7865 111.561,58.6198 115.5,55C 114.228,52.9555 114.561,51.1222 116.5,49.5C 112.243,41.072 114.91,37.072 124.5,37.5C 125.323,33.1703 127.823,31.837 132,33.5C 132.49,34.7932 132.657,36.1266 132.5,37.5C 130.712,37.2148 129.045,37.5481 127.5,38.5C 130.585,41.4931 131.085,44.8264 129,48.5C 125.889,50.7715 122.389,51.9381 118.5,52C 122.774,52.8843 126.941,54.051 131,55.5C 131.667,57.1667 131.667,58.8333 131,60.5C 129.624,61.7051 128.458,63.0384 127.5,64.5 Z M 119.5,41.5 C 124.123,40.4082 125.956,42.0748 125,46.5C 119.42,48.7516 117.587,47.0849 119.5,41.5 Z M 117.5,57.5 C 120.5,57.5 123.5,57.5 126.5,57.5C 125.193,61.4536 122.526,62.4536 118.5,60.5C 117.614,59.675 117.281,58.675 117.5,57.5 Z"/></g>
<g><path style="opacity:0.792" fill="#fefffe" d="M 59.5,37.5 C 61.451,37.2267 62.951,37.8934 64,39.5C 65.7889,37.771 67.9556,37.1043 70.5,37.5C 70.7847,41.0379 69.118,42.8712 65.5,43C 64.8742,43.7504 64.3742,44.5838 64,45.5C 63.5012,49.4862 63.3345,53.4862 63.5,57.5C 62.1667,57.5 60.8333,57.5 59.5,57.5C 59.5,50.8333 59.5,44.1667 59.5,37.5 Z"/></g>
<g><path style="opacity:0.744" fill="#fefffe" d="M 77.5,37.5 C 86.5739,36.4037 90.2406,40.237 88.5,49C 84.4592,49.1735 80.4592,49.6735 76.5,50.5C 78.0528,52.772 80.2195,54.1053 83,54.5C 84.6995,53.5939 86.5328,53.2606 88.5,53.5C 88.67,54.8221 88.3366,55.9887 87.5,57C 76.7049,59.8747 71.5383,55.708 72,44.5C 72.9383,41.4025 74.7716,39.0691 77.5,37.5 Z M 78.5,41.5 C 81.8638,40.7893 84.1971,41.956 85.5,45C 82.4459,45.8214 79.4459,45.6548 76.5,44.5C 77.1925,43.4822 77.8592,42.4822 78.5,41.5 Z"/></g>
<g><path style="opacity:0.74" fill="#fefffe" d="M 93.5,37.5 C 95.451,37.2267 96.951,37.8934 98,39.5C 102.341,36.5515 106.341,36.8849 110,40.5C 110.83,46.1959 110.663,51.8625 109.5,57.5C 108.833,57.8333 108.167,58.1667 107.5,58.5C 106.671,53.5329 106.171,48.5329 106,43.5C 103.413,40.9659 100.747,40.9659 98,43.5C 97.5008,48.1548 97.3342,52.8215 97.5,57.5C 95.8333,57.5 94.1667,57.5 92.5,57.5C 92.2066,50.7446 92.5399,44.0779 93.5,37.5 Z"/></g>
<g><path style="opacity:0.811" fill="#fefffe" d="M 134.5,37.5 C 135.833,37.5 137.167,37.5 138.5,37.5C 138.5,44.1667 138.5,50.8333 138.5,57.5C 137.167,57.5 135.833,57.5 134.5,57.5C 134.5,50.8333 134.5,44.1667 134.5,37.5 Z"/></g>
<g><path style="opacity:0.547" fill="#00c1f7" d="M 6.5,42.5 C 6.84171,41.6618 7.50838,41.3284 8.5,41.5C 10.7049,41.8459 10.8716,42.5126 9,43.5C 8.09789,43.2568 7.26456,42.9234 6.5,42.5 Z"/></g>
<g><path style="opacity:0.663" fill="#ffd336" d="M 10.5,44.5 C 9.32855,45.3446 7.99522,46.0113 6.5,46.5C 7.18342,44.8235 8.51676,44.1568 10.5,44.5 Z"/></g>
<g><path style="opacity:0.844" fill="#ffd14d" d="M 10.5,44.5 C 17.7902,51.8137 26.4568,54.8137 36.5,53.5C 33.7156,55.9516 34.049,57.9516 37.5,59.5C 25.2913,62.7619 14.958,59.7619 6.5,50.5C 5.37437,49.1916 5.37437,47.8583 6.5,46.5C 7.99522,46.0113 9.32855,45.3446 10.5,44.5 Z"/></g>
</svg>
