<svg width="360" height="255" version="1.1" xmlns="http://www.w3.org/2000/svg"><path fill="rgb(251,252,253)" stroke="rgb(251,252,253)" stroke-width="1" opacity="1" d="M 2.5 1 L 1.5 3 L 2.5 1 Z "></path><path fill="rgb(251,252,253)" stroke="rgb(251,252,253)" stroke-width="1" opacity="1" d="M 357.5 1 L 358.5 3 L 357.5 1 Z "></path><path fill="rgb(251,252,253)" stroke="rgb(251,252,253)" stroke-width="1" opacity="1" d="M 144.5 32 L 155.5 32 L 156 34.5 L 158 35.5 L 157 33.5 L 160 35.5 Q 161.9 40.9 158.5 40 L 156 36 L 149.5 33 L 144.5 33 L 144.5 32 Z "></path><path fill="rgb(251,252,253)" stroke="rgb(251,252,253)" stroke-width="1" opacity="1" d="M 167.5 32 Q 169.5 36 171.5 32 L 184 32.5 L 178.5 33 L 172 36 L 168.5 44 L 167 40.5 L 168 36.5 L 168 34.5 L 167.5 32 Z M 170 34 L 170 36 L 172 35 L 170 34 Z "></path><path fill="rgb(251,252,253)" stroke="rgb(251,252,253)" stroke-width="1" opacity="1" d="M 188 32 Q 191.8 31 193 33.5 L 192.5 36 L 188 35 L 188 32 Z "></path><path fill="rgb(251,252,253)" stroke="rgb(251,252,253)" stroke-width="1" opacity="1" d="M 206.5 32 L 207.5 34 L 208 32 Q 213.6 30.1 212 35 L 208.5 36 L 206 35 L 206.5 32 Z "></path><path fill="rgb(251,252,253)" stroke="rgb(251,252,253)" stroke-width="1" opacity="1" d="M 216.5 32 L 227.5 32 L 228 33.5 L 229.5 33 L 231 33.5 L 230.5 36 L 228.5 35 L 226.5 36 Q 223.9 32.1 216.5 33 L 216.5 32 Z "></path><path fill="rgb(251,252,253)" stroke="rgb(251,252,253)" stroke-width="1" opacity="1" d="M 144.5 35 L 148 35.5 L 144.5 36 L 144.5 35 Z "></path><path fill="rgb(251,252,253)" stroke="rgb(251,252,253)" stroke-width="1" opacity="1" d="M 180.5 35 L 184 35.5 L 180.5 36 L 180.5 35 Z "></path><path fill="rgb(251,252,253)" stroke="rgb(251,252,253)" stroke-width="1" opacity="1" d="M 216.5 35 L 221 35.5 Q 219.8 38.3 218.5 36 Q 215.5 36.5 216.5 35 Z "></path><path fill="rgb(251,252,253)" stroke="rgb(251,252,253)" stroke-width="1" opacity="1" d="M 216.5 37 L 220 38.5 L 216 40 L 215.5 42 Q 214.3 39.8 213 42.5 L 213.5 44 L 212 44 L 212 40 Q 215.8 41 217 38.5 L 216.5 37 Z "></path><path fill="rgb(251,252,253)" stroke="rgb(251,252,253)" stroke-width="1" opacity="1" d="M 183.5 38 L 184 40 Q 189.6 37.8 188 43.5 L 188.5 45 L 186 43.5 Q 188.3 42.3 185.5 41 L 184 41.5 L 183.5 38 Z "></path><path fill="rgb(251,252,253)" stroke="rgb(251,252,253)" stroke-width="1" opacity="1" d="M 196 39 L 199 39.5 L 197 40 L 196.5 42 L 196 39 Z "></path><path fill="rgb(251,252,253)" stroke="rgb(251,252,253)" stroke-width="1" opacity="1" d="M 132 40 Q 134.7 38.9 134 41.5 L 130.5 46 L 131 44.5 L 132 40 Z "></path><path fill="rgb(251,252,253)" stroke="rgb(251,252,253)" stroke-width="1" opacity="1" d="M 148 40 L 152 40 L 152 44 L 153.5 44 L 154.5 46 L 150 43.5 Q 152.3 42.3 149.5 41 L 148 41.5 L 148 40 Z "></path><path fill="rgb(251,252,253)" stroke="rgb(251,252,253)" stroke-width="1" opacity="1" d="M 220 40 Q 226 38 224 44 L 222 43.5 Q 224.2 42.3 221.5 41 L 220 41.5 L 220 40 Z "></path><path fill="rgb(251,252,253)" stroke="rgb(251,252,253)" stroke-width="1" opacity="1" d="M 174.5 44 L 176 48 L 178 48.5 Q 175.8 49.7 178.5 51 L 180 50.5 L 180 52 L 176 52 Q 177.7 46.8 174 48 L 174.5 44 Z "></path><path fill="rgb(251,252,253)" stroke="rgb(251,252,253)" stroke-width="1" opacity="1" d="M 190.5 44 L 191.5 46 Q 188.7 46.7 190.5 44 Z "></path><path fill="rgb(251,252,253)" stroke="rgb(251,252,253)" stroke-width="1" opacity="1" d="M 200.5 45 L 199.5 47 L 200.5 45 Z "></path><path fill="rgb(251,252,253)" stroke="rgb(251,252,253)" stroke-width="1" opacity="1" d="M 152.5 46 L 153.5 48 L 152.5 46 Z "></path><path fill="rgb(251,252,253)" stroke="rgb(251,252,253)" stroke-width="1" opacity="1" d="M 188.5 47 L 188 48.5 Q 186.3 53.3 190.5 52 L 188.5 55 L 188 52 L 184 52 L 184 50.5 L 187 49.5 L 186.5 48 L 188.5 47 Z "></path><path fill="rgb(251,252,253)" stroke="rgb(251,252,253)" stroke-width="1" opacity="1" d="M 197.5 47 L 199 52.5 L 196 54.5 L 197 52 Q 193.2 53.5 194 50.5 L 195.5 48 L 196.5 51 L 197.5 47 Z "></path><path fill="rgb(251,252,253)" stroke="rgb(251,252,253)" stroke-width="1" opacity="1" d="M 140 48 L 142 48.5 Q 139.8 49.7 142.5 51 L 144 50.5 Q 143.2 53.1 146.5 52 L 149 56.5 L 146.5 55 L 145.5 56 L 144 56 L 144 52 L 140 52 L 140 48 Z "></path><path fill="rgb(251,252,253)" stroke="rgb(251,252,253)" stroke-width="1" opacity="1" d="M 150.5 48 L 152 48 L 152 52 L 154.5 52 L 152.5 55 L 152 52 L 148 52 L 148 50.5 L 151 49.5 L 150.5 48 Z "></path><path fill="rgb(251,252,253)" stroke="rgb(251,252,253)" stroke-width="1" opacity="1" d="M 159.5 48 L 160 52 Q 157.3 53.1 158 50.5 L 159.5 48 Z "></path><path fill="rgb(251,252,253)" stroke="rgb(251,252,253)" stroke-width="1" opacity="1" d="M 168.5 48 L 172 56 L 180 59 Q 181.3 62 177.5 61 L 176 61.5 L 176.5 60 L 172 60 Q 173.1 57.3 170.5 58 L 170.5 56 L 168 55.5 L 168.5 48 Z "></path><path fill="rgb(251,252,253)" stroke="rgb(251,252,253)" stroke-width="1" opacity="1" d="M 212 48 L 214 48.5 Q 211.8 49.7 214.5 51 L 216 50.5 L 216 52 L 212 52 L 212 48 Z "></path><path fill="rgb(251,252,253)" stroke="rgb(251,252,253)" stroke-width="1" opacity="1" d="M 222.5 48 L 224 48 L 224 52 L 226.5 52 L 224.5 55 L 224 52 L 220 52 L 220 50.5 L 223 49.5 L 222.5 48 Z "></path><path fill="rgb(251,252,253)" stroke="rgb(251,252,253)" stroke-width="1" opacity="1" d="M 130.5 50 L 132 55.5 L 131 55.5 L 130.5 50 Z "></path><path fill="rgb(251,252,253)" stroke="rgb(251,252,253)" stroke-width="1" opacity="1" d="M 217.5 52 L 220 53.5 L 218.5 54 L 217.5 52 Z "></path><path fill="rgb(251,252,253)" stroke="rgb(251,252,253)" stroke-width="1" opacity="1" d="M 182.5 53 Q 185.5 52.2 184 56 L 180 54.5 L 182.5 53 Z "></path><path fill="rgb(251,252,253)" stroke="rgb(251,252,253)" stroke-width="1" opacity="1" d="M 155.5 55 L 156 60 L 152.5 60 Q 153.3 63.3 148 62 Q 146.5 58.2 149.5 59 L 155.5 55 Z "></path><path fill="rgb(251,252,253)" stroke="rgb(251,252,253)" stroke-width="1" opacity="1" d="M 191.5 55 L 192 60 Q 186.4 61.9 188 57 L 191.5 55 Z "></path><path fill="rgb(251,252,253)" stroke="rgb(251,252,253)" stroke-width="1" opacity="1" d="M 206 56 Q 209 55 208 58 Q 205 59 206 56 Z "></path><path fill="rgb(251,252,253)" stroke="rgb(251,252,253)" stroke-width="1" opacity="1" d="M 222.5 58 Q 225.1 57.3 224 60 L 220 59.5 L 222.5 58 Z "></path><path fill="rgb(251,252,253)" stroke="rgb(251,252,253)" stroke-width="1" opacity="1" d="M 149.5 63 L 152 63.5 L 149.5 64 L 149.5 63 Z "></path><path fill="rgb(251,252,253)" stroke="rgb(251,252,253)" stroke-width="1" opacity="1" d="M 193.5 64 L 194 66 L 196 65.5 L 195.5 64 Q 200.8 62.3 199 67.5 L 196 68.5 L 195.5 71 L 192 65.5 L 193.5 64 Z "></path><path fill="rgb(251,252,253)" stroke="rgb(251,252,253)" stroke-width="1" opacity="1" d="M 168 68 L 172 68.5 L 168.5 71 L 168 68 Z "></path><path fill="rgb(251,252,253)" stroke="rgb(251,252,253)" stroke-width="1" opacity="1" d="M 202.5 71 L 210.5 73 L 212 72.5 L 210.5 76 L 210.5 74 L 208.5 73 L 207.5 76 L 207 73 Q 201.8 73.3 202.5 71 Z "></path><path fill="rgb(251,252,253)" stroke="rgb(251,252,253)" stroke-width="1" opacity="1" d="M 156 72 L 160 72.5 L 157 73 Q 158.3 77.1 155 76 L 156 72 Z "></path><path fill="rgb(251,252,253)" stroke="rgb(251,252,253)" stroke-width="1" opacity="1" d="M 141.5 77 Q 143.8 76.3 143 78.5 Q 145.8 79.6 145 83 L 148 83.5 L 146 84.5 L 147.5 87 L 143.5 85 L 143.5 86 L 145 86.5 L 144.5 88 L 148 88.5 L 145 89 L 143.5 93 L 142.5 91 L 144 91.5 L 143.5 88 L 142 88.5 L 143 86.5 L 141 86.5 L 142.5 84 Q 145.5 84.9 144 80.5 L 141.5 77 Z "></path><path fill="rgb(251,252,253)" stroke="rgb(251,252,253)" stroke-width="1" opacity="1" d="M 222.5 77 L 223.5 79 L 222 78.5 L 221.5 80 L 221 78.5 L 222.5 77 Z "></path><path fill="rgb(251,252,253)" stroke="rgb(251,252,253)" stroke-width="1" opacity="1" d="M 219.5 80 L 220 84 L 216 83.5 L 219 83 L 219.5 80 Z "></path><path fill="rgb(251,252,253)" stroke="rgb(251,252,253)" stroke-width="1" opacity="1" d="M 224.5 80 L 225 84.5 L 224.5 86 L 224 84 L 222 83.5 L 224 82.5 Q 221.8 81.3 224.5 80 Z "></path><path fill="rgb(251,252,253)" stroke="rgb(251,252,253)" stroke-width="1" opacity="1" d="M 160 84 Q 163.7 82.8 162 88 Q 158.3 89.2 160 84 Z "></path><path fill="rgb(251,252,253)" stroke="rgb(251,252,253)" stroke-width="1" opacity="1" d="M 154.5 86 L 155.5 88 L 154.5 86 Z "></path><path fill="rgb(251,252,253)" stroke="rgb(251,252,253)" stroke-width="1" opacity="1" d="M 202 88 Q 205.7 86.8 204 92 Q 200.3 93.2 202 88 Z "></path><path fill="rgb(251,252,253)" stroke="rgb(251,252,253)" stroke-width="1" opacity="1" d="M 155.5 92 L 154.5 94 L 155.5 92 Z "></path><path fill="rgb(251,252,253)" stroke="rgb(251,252,253)" stroke-width="1" opacity="1" d="M 213.5 92 L 216 93.5 L 214.5 94 L 213.5 92 Z "></path><path fill="rgb(251,252,253)" stroke="rgb(251,252,253)" stroke-width="1" opacity="1" d="M 211.5 94 L 210.5 96 L 209 95.5 L 211.5 94 Z "></path><path fill="rgb(251,252,253)" stroke="rgb(251,252,253)" stroke-width="1" opacity="1" d="M 155.5 96 Q 158.5 95.2 157 99 L 159.5 99 L 159.5 101 Q 164.9 99.1 164 102.5 L 162.5 102 Q 157.4 102.6 156 99.5 L 155.5 96 Z "></path><path fill="rgb(251,252,253)" stroke="rgb(251,252,253)" stroke-width="1" opacity="1" d="M 207.5 96 L 208.5 99 L 211.5 97 L 212 99.5 L 210.5 101 L 204.5 100 L 203 100.5 L 207 99 L 207.5 96 Z "></path><path fill="rgb(251,252,253)" stroke="rgb(251,252,253)" stroke-width="1" opacity="1" d="M 168.5 101 L 172 103.5 L 168 104 L 168.5 101 Z "></path><path fill="rgb(251,252,253)" stroke="rgb(251,252,253)" stroke-width="1" opacity="1" d="M 195.5 101 L 196 104 L 193 103.5 L 195.5 101 Z "></path><path fill="rgb(251,252,253)" stroke="rgb(251,252,253)" stroke-width="1" opacity="1" d="M 201.5 101 L 202.5 103 L 200 102.5 L 201.5 101 Z "></path><path fill="rgb(251,252,253)" stroke="rgb(251,252,253)" stroke-width="1" opacity="1" d="M 144.5 108 L 145 110 Q 147.7 111.1 147 108.5 L 148 108.5 Q 149.8 114.2 143.5 112 L 141 110.5 L 142.5 110 L 144 110.5 L 144.5 108 Z "></path><path fill="rgb(251,252,253)" stroke="rgb(251,252,253)" stroke-width="1" opacity="1" d="M 171.5 108 L 173 110.5 L 172 110.5 L 171.5 108 Z "></path><path fill="rgb(251,252,253)" stroke="rgb(251,252,253)" stroke-width="1" opacity="1" d="M 180.5 108 L 181 110 Q 183.7 111.1 183 108.5 L 184 108.5 L 184.5 110 L 185 108 Q 187.7 106.9 187 109.5 L 188 112 L 185.5 111 L 180 112 L 180.5 108 Z "></path><path fill="rgb(251,252,253)" stroke="rgb(251,252,253)" stroke-width="1" opacity="1" d="M 216.5 108 L 217 110 Q 219.7 111.1 219 108.5 L 221 109.5 L 220.5 112 L 215.5 111 L 214 111.5 L 214.5 109 L 216 109.5 L 216.5 108 Z "></path><path fill="rgb(251,252,253)" stroke="rgb(251,252,253)" stroke-width="1" opacity="1" d="M 222.5 110 L 225 110.5 Q 225.8 112.8 223.5 112 L 222.5 110 Z "></path><path fill="rgb(251,252,253)" stroke="rgb(251,252,253)" stroke-width="1" opacity="1" d="M 202.5 112 L 203.5 114 L 202.5 112 Z "></path><path fill="rgb(251,252,253)" stroke="rgb(251,252,253)" stroke-width="1" opacity="1" d="M 184.5 116 L 185 119.5 L 184 119.5 L 184.5 116 Z "></path><path fill="rgb(251,252,253)" stroke="rgb(251,252,253)" stroke-width="1" opacity="1" d="M 197.5 116 L 199 116.5 L 197 117.5 L 197.5 119 Q 194.5 117.5 197.5 116 Z "></path><path fill="rgb(251,252,253)" stroke="rgb(251,252,253)" stroke-width="1" opacity="1" d="M 187.5 117 L 188 119.5 L 187 119.5 L 187.5 117 Z "></path><path fill="rgb(251,252,253)" stroke="rgb(251,252,253)" stroke-width="1" opacity="1" d="M 137.5 122 L 136.5 124 L 137.5 122 Z "></path><path fill="rgb(251,252,253)" stroke="rgb(251,252,253)" stroke-width="1" opacity="1" d="M 204.5 124 L 205 135.5 L 204 138 Q 200.3 136.8 202 142 Q 205.3 140.7 204 145.5 L 200 147 L 201 144.5 L 199 144 L 198 141.5 L 200 141.5 Q 199.1 136.1 201.5 134 L 204 135 L 204.5 124 Z M 203 144 L 201 146 L 203 146 L 203 144 Z "></path><path fill="rgb(251,252,253)" stroke="rgb(251,252,253)" stroke-width="1" opacity="1" d="M 207.5 124 L 208 136 Q 213.2 134.3 212 138 L 208 138 L 208 136.5 L 207 135.5 L 207.5 124 Z "></path><path fill="rgb(251,252,253)" stroke="rgb(251,252,253)" stroke-width="1" opacity="1" d="M 228.5 124 L 229 139.5 L 228 139.5 L 228.5 124 Z "></path><path fill="rgb(251,252,253)" stroke="rgb(251,252,253)" stroke-width="1" opacity="1" d="M 231.5 124 L 232 139.5 L 231 139.5 L 231.5 124 Z "></path><path fill="rgb(251,252,253)" stroke="rgb(251,252,253)" stroke-width="1" opacity="1" d="M 168.5 132 L 169 135.5 L 168 138 L 164 140 L 164 136 Q 169.8 138 168.5 132 Z "></path><path fill="rgb(251,252,253)" stroke="rgb(251,252,253)" stroke-width="1" opacity="1" d="M 171.5 132 L 172 136 Q 177.2 134.3 176 138 L 172 138 L 172 136.5 L 171.5 132 Z "></path><path fill="rgb(251,252,253)" stroke="rgb(251,252,253)" stroke-width="1" opacity="1" d="M 130.5 135 L 132 138 Q 128.3 136.8 130 142 Q 132.7 140.9 132 143.5 L 133 147 L 136 147.5 L 131 148 L 131 146 Q 128.3 147.1 129 144.5 L 128 143.5 L 128 136 L 130.5 135 Z "></path><path fill="rgb(251,252,253)" stroke="rgb(251,252,253)" stroke-width="1" opacity="1" d="M 136 136 L 144 136 L 144 138.5 L 145.5 141 Q 143 136.7 136 138 L 136 136 Z "></path><path fill="rgb(251,252,253)" stroke="rgb(251,252,253)" stroke-width="1" opacity="1" d="M 156.5 140 L 157 143.5 L 156 143.5 L 156.5 140 Z "></path><path fill="rgb(251,252,253)" stroke="rgb(251,252,253)" stroke-width="1" opacity="1" d="M 159.5 140 L 160 143.5 L 159 143.5 L 159.5 140 Z "></path><path fill="rgb(251,252,253)" stroke="rgb(251,252,253)" stroke-width="1" opacity="1" d="M 162.5 141 L 163.5 143 Q 160.7 143.7 162.5 141 Z "></path><path fill="rgb(251,252,253)" stroke="rgb(251,252,253)" stroke-width="1" opacity="1" d="M 136 142 Q 141.2 140.3 140 144 L 135.5 145 L 136 143.5 L 136 142 Z "></path><path fill="rgb(251,252,253)" stroke="rgb(251,252,253)" stroke-width="1" opacity="1" d="M 208 142 Q 213.2 140.3 212 144 Q 206.8 145.7 208 142 Z "></path><path fill="rgb(251,252,253)" stroke="rgb(251,252,253)" stroke-width="1" opacity="1" d="M 161.5 144 L 162.5 146 Q 159.7 146.7 161.5 144 Z "></path><path fill="rgb(251,252,253)" stroke="rgb(251,252,253)" stroke-width="1" opacity="1" d="M 164.5 144 L 167 144.5 L 164.5 145 L 164.5 144 Z "></path><path fill="rgb(251,252,253)" stroke="rgb(251,252,253)" stroke-width="1" opacity="1" d="M 1.5 252 L 2.5 254 L 1.5 252 Z "></path><path fill="rgb(205,249,253)" stroke="rgb(205,249,253)" stroke-width="1" opacity="1" d="M 172.5 37 L 171.5 39 L 172.5 37 Z "></path><path fill="rgb(205,249,253)" stroke="rgb(205,249,253)" stroke-width="1" opacity="1" d="M 156.5 38 L 157.5 40 L 156.5 38 Z "></path><path fill="rgb(205,249,253)" stroke="rgb(205,249,253)" stroke-width="1" opacity="1" d="M 192.5 38 L 193.5 40 L 192.5 38 Z "></path><path fill="rgb(205,249,253)" stroke="rgb(205,249,253)" stroke-width="1" opacity="1" d="M 157.5 52 L 156.5 54 L 157.5 52 Z "></path><path fill="rgb(205,249,253)" stroke="rgb(205,249,253)" stroke-width="1" opacity="1" d="M 229.5 52 L 228.5 54 L 229.5 52 Z "></path><path fill="rgb(205,249,253)" stroke="rgb(205,249,253)" stroke-width="1" opacity="1" d="M 142.5 56 L 148 56.5 L 142.5 57 L 142.5 56 Z "></path><path fill="rgb(205,249,253)" stroke="rgb(205,249,253)" stroke-width="1" opacity="1" d="M 180.5 56 L 186 56.5 L 180.5 57 L 180.5 56 Z "></path><path fill="rgb(205,249,253)" stroke="rgb(205,249,253)" stroke-width="1" opacity="1" d="M 216.5 56 L 220 56.5 L 216.5 57 L 216.5 56 Z "></path><path fill="rgb(205,249,253)" stroke="rgb(205,249,253)" stroke-width="1" opacity="1" d="M 225.5 56 L 224.5 58 L 225.5 56 Z "></path><path fill="rgb(205,249,253)" stroke="rgb(205,249,253)" stroke-width="1" opacity="1" d="M 192.5 68 L 193.5 70 L 192.5 68 Z "></path><path fill="rgb(205,249,253)" stroke="rgb(205,249,253)" stroke-width="1" opacity="1" d="M 164.5 72 L 167 72.5 L 164.5 73 L 164.5 72 Z "></path><path fill="rgb(205,249,253)" stroke="rgb(205,249,253)" stroke-width="1" opacity="1" d="M 197.5 72 L 200 72.5 L 197.5 73 L 197.5 72 Z "></path><path fill="rgb(205,249,253)" stroke="rgb(205,249,253)" stroke-width="1" opacity="1" d="M 164.5 75 L 165 76.5 L 163.5 79 L 163 77.5 L 164.5 75 Z "></path><path fill="rgb(205,249,253)" stroke="rgb(205,249,253)" stroke-width="1" opacity="1" d="M 202.5 84 L 203 87.5 L 202 87.5 L 202.5 84 Z "></path><path fill="rgb(205,249,253)" stroke="rgb(205,249,253)" stroke-width="1" opacity="1" d="M 163.5 93 L 165 96.5 L 164 96.5 L 163.5 93 Z "></path><path fill="rgb(205,249,253)" stroke="rgb(205,249,253)" stroke-width="1" opacity="1" d="M 164.5 99 L 167 99.5 L 164.5 100 L 164.5 99 Z "></path><path fill="rgb(205,249,253)" stroke="rgb(205,249,253)" stroke-width="1" opacity="1" d="M 197.5 99 L 200 99.5 L 196.5 101 L 197.5 99 Z "></path><path fill="rgb(205,249,253)" stroke="rgb(205,249,253)" stroke-width="1" opacity="1" d="M 193.5 102 L 192.5 104 L 193.5 102 Z "></path><path fill="rgb(205,249,253)" stroke="rgb(205,249,253)" stroke-width="1" opacity="1" d="M 178.5 138 L 179 141.5 L 178 141.5 L 178.5 138 Z "></path><path fill="rgb(205,249,253)" stroke="rgb(205,249,253)" stroke-width="1" opacity="1" d="M 214.5 138 L 215 141.5 L 214 141.5 L 214.5 138 Z "></path><path fill="rgb(205,249,253)" stroke="rgb(205,249,253)" stroke-width="1" opacity="1" d="M 142.5 139 L 143 141.5 L 142 141.5 L 142.5 139 Z "></path><path fill="rgb(239,251,255)" stroke="rgb(239,251,255)" stroke-width="1" opacity="1" d="M 139.5 37 L 140 40 L 137 39.5 L 139.5 37 Z "></path><path fill="rgb(239,251,255)" stroke="rgb(239,251,255)" stroke-width="1" opacity="1" d="M 175.5 37 L 176 40 L 173 39.5 L 175.5 37 Z "></path><path fill="rgb(239,251,255)" stroke="rgb(239,251,255)" stroke-width="1" opacity="1" d="M 211.5 37 L 212 40 L 209 39.5 L 211.5 37 Z "></path><path fill="rgb(239,251,255)" stroke="rgb(239,251,255)" stroke-width="1" opacity="1" d="M 144 40 Q 149.2 38.3 148 42 Q 142.8 43.7 144 40 Z "></path><path fill="rgb(239,251,255)" stroke="rgb(239,251,255)" stroke-width="1" opacity="1" d="M 180 40 Q 185.2 38.3 184 42 Q 178.8 43.7 180 40 Z "></path><path fill="rgb(239,251,255)" stroke="rgb(239,251,255)" stroke-width="1" opacity="1" d="M 216 40 Q 221.2 38.3 220 42 Q 214.8 43.7 216 40 Z "></path><path fill="rgb(239,251,255)" stroke="rgb(239,251,255)" stroke-width="1" opacity="1" d="M 132.5 44 L 133 47.5 L 132 47.5 L 132.5 44 Z "></path><path fill="rgb(239,251,255)" stroke="rgb(239,251,255)" stroke-width="1" opacity="1" d="M 135.5 44 L 136 47.5 L 135 47.5 L 135.5 44 Z "></path><path fill="rgb(239,251,255)" stroke="rgb(239,251,255)" stroke-width="1" opacity="1" d="M 140 44 Q 143.7 42.8 142 48 Q 138.3 49.2 140 44 Z "></path><path fill="rgb(239,251,255)" stroke="rgb(239,251,255)" stroke-width="1" opacity="1" d="M 150 44 Q 153.7 42.8 152 48 Q 148.3 49.2 150 44 Z "></path><path fill="rgb(239,251,255)" stroke="rgb(239,251,255)" stroke-width="1" opacity="1" d="M 156.5 44 L 157 47.5 L 156 47.5 L 156.5 44 Z "></path><path fill="rgb(239,251,255)" stroke="rgb(239,251,255)" stroke-width="1" opacity="1" d="M 159.5 44 L 160 47.5 L 159 47.5 L 159.5 44 Z "></path><path fill="rgb(239,251,255)" stroke="rgb(239,251,255)" stroke-width="1" opacity="1" d="M 168.5 44 L 169 47.5 L 168 47.5 L 168.5 44 Z "></path><path fill="rgb(239,251,255)" stroke="rgb(239,251,255)" stroke-width="1" opacity="1" d="M 171.5 44 L 172 47.5 L 171 47.5 L 171.5 44 Z "></path><path fill="rgb(239,251,255)" stroke="rgb(239,251,255)" stroke-width="1" opacity="1" d="M 176 44 Q 179.7 42.8 178 48 Q 174.3 49.2 176 44 Z "></path><path fill="rgb(239,251,255)" stroke="rgb(239,251,255)" stroke-width="1" opacity="1" d="M 186 44 Q 189.7 42.8 188 48 Q 184.3 49.2 186 44 Z "></path><path fill="rgb(239,251,255)" stroke="rgb(239,251,255)" stroke-width="1" opacity="1" d="M 192.5 44 L 193 47.5 L 192 47.5 L 192.5 44 Z "></path><path fill="rgb(239,251,255)" stroke="rgb(239,251,255)" stroke-width="1" opacity="1" d="M 195.5 44 L 196 47.5 L 195 47.5 L 195.5 44 Z "></path><path fill="rgb(239,251,255)" stroke="rgb(239,251,255)" stroke-width="1" opacity="1" d="M 204.5 44 L 205 47.5 L 204 47.5 L 204.5 44 Z "></path><path fill="rgb(239,251,255)" stroke="rgb(239,251,255)" stroke-width="1" opacity="1" d="M 207.5 44 L 208 47.5 L 207 47.5 L 207.5 44 Z "></path><path fill="rgb(239,251,255)" stroke="rgb(239,251,255)" stroke-width="1" opacity="1" d="M 212 44 Q 215.7 42.8 214 48 Q 210.3 49.2 212 44 Z "></path><path fill="rgb(239,251,255)" stroke="rgb(239,251,255)" stroke-width="1" opacity="1" d="M 222 44 Q 225.7 42.8 224 48 Q 220.3 49.2 222 44 Z "></path><path fill="rgb(239,251,255)" stroke="rgb(239,251,255)" stroke-width="1" opacity="1" d="M 228.5 44 L 229 48.5 L 228 48.5 L 228.5 44 Z "></path><path fill="rgb(239,251,255)" stroke="rgb(239,251,255)" stroke-width="1" opacity="1" d="M 231.5 44 L 232 52 Q 229.3 53.1 230 50.5 L 231.5 44 Z "></path><path fill="rgb(239,251,255)" stroke="rgb(239,251,255)" stroke-width="1" opacity="1" d="M 144 50 Q 149.2 48.3 148 52 Q 142.8 53.7 144 50 Z "></path><path fill="rgb(239,251,255)" stroke="rgb(239,251,255)" stroke-width="1" opacity="1" d="M 180 50 Q 185.2 48.3 184 52 Q 178.8 53.7 180 50 Z "></path><path fill="rgb(239,251,255)" stroke="rgb(239,251,255)" stroke-width="1" opacity="1" d="M 216 50 Q 221.2 48.3 220 52 Q 214.8 53.7 216 50 Z "></path><path fill="rgb(239,251,255)" stroke="rgb(239,251,255)" stroke-width="1" opacity="1" d="M 137.5 52 Q 141.3 50.8 140 54.5 L 137.5 52 Z "></path><path fill="rgb(239,251,255)" stroke="rgb(239,251,255)" stroke-width="1" opacity="1" d="M 173.5 52 Q 177.3 50.8 176 54.5 L 173.5 52 Z "></path><path fill="rgb(239,251,255)" stroke="rgb(239,251,255)" stroke-width="1" opacity="1" d="M 209.5 52 Q 213.3 50.8 212 54.5 L 209.5 52 Z "></path><path fill="rgb(239,251,255)" stroke="rgb(239,251,255)" stroke-width="1" opacity="1" d="M 204.5 80 L 205 83.5 L 204 83.5 L 204.5 80 Z "></path><path fill="rgb(239,251,255)" stroke="rgb(239,251,255)" stroke-width="1" opacity="1" d="M 216.5 88 Q 221.8 86.3 220 91.5 L 219 91.5 Q 220.3 87.8 216.5 89 L 216.5 88 Z "></path><path fill="rgb(239,251,255)" stroke="rgb(239,251,255)" stroke-width="1" opacity="1" d="M 164 140 L 166 140 L 168 144 Q 162 146 164 140 Z "></path><path fill="rgb(239,251,255)" stroke="rgb(239,251,255)" stroke-width="1" opacity="1" d="M 321.5 165 L 328 165 L 328 168 L 314 167.5 Q 319.3 167.8 321.5 165 Z "></path><path fill="rgb(239,251,255)" stroke="rgb(239,251,255)" stroke-width="1" opacity="1" d="M 340 165 Q 346.6 164.1 350.5 167 Q 351.8 164.8 353 167.5 L 340 168 L 340 165 Z "></path><path fill="rgb(239,251,255)" stroke="rgb(239,251,255)" stroke-width="1" opacity="1" d="M 310.5 169 Q 313.5 168.2 312 172 L 305 171.5 L 310.5 169 Z "></path><path fill="rgb(239,251,255)" stroke="rgb(239,251,255)" stroke-width="1" opacity="1" d="M 303.5 172 L 304 176 L 298 175.5 L 303.5 172 Z "></path><path fill="rgb(239,251,255)" stroke="rgb(239,251,255)" stroke-width="1" opacity="1" d="M 356 172 L 359 172.5 L 359 196 L 356 196 Q 357.1 193.3 354.5 194 L 344 188.5 L 352 188 Q 350 194 356 192 L 356 172 Z "></path><path fill="rgb(239,251,255)" stroke="rgb(239,251,255)" stroke-width="1" opacity="1" d="M 294.5 178 Q 297.1 177.3 296 180 L 293 179.5 L 294.5 178 Z "></path><path fill="rgb(239,251,255)" stroke="rgb(239,251,255)" stroke-width="1" opacity="1" d="M 291.5 181 L 292 184 L 289 183.5 L 291.5 181 Z "></path><path fill="rgb(239,251,255)" stroke="rgb(239,251,255)" stroke-width="1" opacity="1" d="M 332 184 L 340 184 L 340 187.5 L 338.5 187 L 334.5 186 L 332.5 189 L 332 184 Z "></path><path fill="rgb(239,251,255)" stroke="rgb(239,251,255)" stroke-width="1" opacity="1" d="M 287.5 185 L 288 188 L 285 187.5 L 287.5 185 Z "></path><path fill="rgb(239,251,255)" stroke="rgb(239,251,255)" stroke-width="1" opacity="1" d="M 283.5 190 L 284 196 L 280 196 L 280 204 L 276 204.5 L 276 216 L 272 216 L 275 204.5 L 283.5 190 Z "></path><path fill="rgb(239,251,255)" stroke="rgb(239,251,255)" stroke-width="1" opacity="1" d="M 328 196 Q 331.7 194.5 331 197.5 L 330 200.5 L 332 203.5 L 328 204 L 328 196 Z "></path><path fill="rgb(239,251,255)" stroke="rgb(239,251,255)" stroke-width="1" opacity="1" d="M 336.5 204 L 349 210.5 L 351 214.5 Q 348.8 219.3 341.5 219 L 338.5 218 L 330.5 219 L 328 218.5 L 328.5 216 L 347.5 216 L 348 212 Q 342 214 344 208 L 336 208 L 336.5 204 Z "></path><path fill="rgb(239,251,255)" stroke="rgb(239,251,255)" stroke-width="1" opacity="1" d="M 320 220 L 325 220.5 L 319 226.5 L 319 230 L 322 231.5 L 316 232 L 316 224 Q 322 226 320 220 Z "></path><path fill="rgb(239,251,255)" stroke="rgb(239,251,255)" stroke-width="1" opacity="1" d="M 271.5 223 L 272 233.5 L 271 233.5 L 271.5 223 Z "></path><path fill="rgb(239,251,255)" stroke="rgb(239,251,255)" stroke-width="1" opacity="1" d="M 324.5 233 L 326.5 236 Q 322.1 237.1 324.5 233 Z "></path><path fill="rgb(239,251,255)" stroke="rgb(239,251,255)" stroke-width="1" opacity="1" d="M 335.5 235 L 346 235.5 L 336 236 L 336 240 L 328 240 Q 326.5 236.2 329.5 237 L 331.5 239 L 335.5 235 Z "></path><path fill="rgb(239,251,255)" stroke="rgb(239,251,255)" stroke-width="1" opacity="1" d="M 352.5 235 L 359 236 L 359 252.5 L 357.5 254 L 324.5 254 L 324 252.5 Q 326.6 251.1 326 246.5 L 325 244 L 328 244 L 328 251.5 L 328.5 252 L 356 252 L 356 236.5 L 352.5 236 L 352.5 235 Z "></path><path fill="rgb(239,251,255)" stroke="rgb(239,251,255)" stroke-width="1" opacity="1" d="M 304 236 L 310 236.5 L 305 240.5 L 304.5 243 L 304 236 Z "></path><path fill="rgb(239,251,255)" stroke="rgb(239,251,255)" stroke-width="1" opacity="1" d="M 317.5 236 Q 321.3 235 320 238 L 317.5 236 Z "></path><path fill="rgb(239,251,255)" stroke="rgb(239,251,255)" stroke-width="1" opacity="1" d="M 273 240 L 276 240.5 L 276 249.5 L 275 249.5 L 273 240 Z "></path><path fill="rgb(239,251,255)" stroke="rgb(239,251,255)" stroke-width="1" opacity="1" d="M 322.5 240 Q 324.8 239.3 324 241.5 L 322.5 240 Z "></path><path fill="rgb(239,251,255)" stroke="rgb(239,251,255)" stroke-width="1" opacity="1" d="M 304.5 251 L 304 252.5 L 303.5 254 L 280 254 L 280.5 252 L 303.5 252 L 304.5 251 Z "></path><path fill="rgb(254,254,255)" stroke="rgb(254,254,255)" stroke-width="1" opacity="1" d="M 136 32 Q 141.6 30.1 140 35 L 136 36 L 136 32 Z "></path><path fill="rgb(254,254,255)" stroke="rgb(254,254,255)" stroke-width="1" opacity="1" d="M 158.5 32 L 159 34 Q 161.7 32.9 161 35.5 L 158.5 34 L 157.5 35 Q 155.3 35.8 156 33.5 L 158 33.5 L 158.5 32 Z "></path><path fill="rgb(254,254,255)" stroke="rgb(254,254,255)" stroke-width="1" opacity="1" d="M 169.5 32 L 171 35.5 L 170 35.5 L 169.5 32 Z "></path><path fill="rgb(254,254,255)" stroke="rgb(254,254,255)" stroke-width="1" opacity="1" d="M 184.5 32 Q 189.3 30.7 188 34 Q 183.8 34 184.5 32 Z "></path><path fill="rgb(254,254,255)" stroke="rgb(254,254,255)" stroke-width="1" opacity="1" d="M 147.5 36 Q 153.7 35.3 155 39.5 L 156 44 L 152 44 L 152 42.5 Q 154.3 41.3 151.5 40 L 147.5 39 L 144 40 L 143.5 42 Q 142.3 39.8 141 42.5 L 141.5 44 L 138.5 46 L 140 48.5 Q 138.4 54.2 144 52 L 144 56 L 140 54.5 L 140 52 Q 136.3 53.5 137 50.5 L 136 48 L 138 47.5 L 136 43.5 L 137.5 40 Q 143.9 40.9 147 38.5 Q 144.8 37.3 147.5 36 Z "></path><path fill="rgb(254,254,255)" stroke="rgb(254,254,255)" stroke-width="1" opacity="1" d="M 177.5 36 L 180 36 L 180 41.5 L 177 42.5 L 177.5 44 L 175.5 45 L 174 44.5 L 173.5 46 L 172 41.5 L 176 40 L 177.5 36 Z "></path><path fill="rgb(254,254,255)" stroke="rgb(254,254,255)" stroke-width="1" opacity="1" d="M 184 36 Q 188.9 35.9 191 39.5 L 192 44 L 188 44 L 188 40 Q 182 42 184 36 Z "></path><path fill="rgb(254,254,255)" stroke="rgb(254,254,255)" stroke-width="1" opacity="1" d="M 214.5 36 L 219.5 37 L 222.5 36 L 227 39.5 L 219.5 40 L 219.5 38 L 216.5 37 L 215.5 40 L 212 40 Q 214.1 45.2 209.5 44 L 208 44.5 Q 207.3 40.8 209.5 40 L 212 40 Q 210.5 36.3 213.5 37 L 214.5 36 Z "></path><path fill="rgb(254,254,255)" stroke="rgb(254,254,255)" stroke-width="1" opacity="1" d="M 181.5 37 Q 184.1 36.2 183 39.5 L 182 39.5 L 181.5 37 Z "></path><path fill="rgb(254,254,255)" stroke="rgb(254,254,255)" stroke-width="1" opacity="1" d="M 129 39 L 132 39.5 L 130 40.5 L 131 43 Q 127.3 44.2 129 39 Z "></path><path fill="rgb(254,254,255)" stroke="rgb(254,254,255)" stroke-width="1" opacity="1" d="M 198.5 40 L 199 41.5 L 196 43.5 L 198.5 40 Z "></path><path fill="rgb(254,254,255)" stroke="rgb(254,254,255)" stroke-width="1" opacity="1" d="M 202.5 40 L 203 41.5 L 202 44 L 204 44 Q 202.3 38.8 206 40 L 204 47.5 L 206 52 Q 203 53.3 204 49.5 Q 203.3 47.3 199.5 48 L 198 48.5 L 200 44.5 L 202.5 40 Z "></path><path fill="rgb(254,254,255)" stroke="rgb(254,254,255)" stroke-width="1" opacity="1" d="M 230.5 40 Q 233.5 39.1 232 43.5 L 231 43.5 L 230.5 40 Z "></path><path fill="rgb(254,254,255)" stroke="rgb(254,254,255)" stroke-width="1" opacity="1" d="M 228.5 43 L 228 44.5 L 227.5 46 L 225 44.5 L 228.5 43 Z "></path><path fill="rgb(254,254,255)" stroke="rgb(254,254,255)" stroke-width="1" opacity="1" d="M 131.5 45 Q 129.9 46.8 133 48.5 L 136 55.5 L 135.5 58 L 133 56.5 Q 133.8 58.8 131.5 58 L 129 57.5 Q 128.3 55.3 130.5 56 L 132 56.5 Q 132.9 49.1 128 47.5 L 131.5 45 Z M 130 47 L 132 50 L 132 49 L 130 47 Z "></path><path fill="rgb(254,254,255)" stroke="rgb(254,254,255)" stroke-width="1" opacity="1" d="M 167.5 45 L 168 50.5 L 167 50.5 L 167.5 45 Z "></path><path fill="rgb(254,254,255)" stroke="rgb(254,254,255)" stroke-width="1" opacity="1" d="M 209.5 47 L 212 48 Q 213.9 53.6 209 52 L 208 48.5 L 209.5 47 Z "></path><path fill="rgb(254,254,255)" stroke="rgb(254,254,255)" stroke-width="1" opacity="1" d="M 198.5 50 L 199.5 52 L 198.5 50 Z "></path><path fill="rgb(254,254,255)" stroke="rgb(254,254,255)" stroke-width="1" opacity="1" d="M 148 52 Q 153.2 49.9 152 54.5 L 148 56 L 148 52 Z "></path><path fill="rgb(254,254,255)" stroke="rgb(254,254,255)" stroke-width="1" opacity="1" d="M 158.5 52 Q 161.5 51.1 160 55.5 L 161 58 L 156 57.5 L 156 55.5 L 158.5 52 Z "></path><path fill="rgb(254,254,255)" stroke="rgb(254,254,255)" stroke-width="1" opacity="1" d="M 176 52 L 184 52.5 L 182 53.5 Q 184.3 54.8 181.5 56 Q 177 57 176 54.5 L 176 52 Z "></path><path fill="rgb(254,254,255)" stroke="rgb(254,254,255)" stroke-width="1" opacity="1" d="M 194.5 52 Q 197.9 51.1 196 56.5 L 196.5 58 L 194.5 56 L 192 57.5 L 192 55.5 L 194.5 52 Z "></path><path fill="rgb(254,254,255)" stroke="rgb(254,254,255)" stroke-width="1" opacity="1" d="M 220 52 Q 225.2 49.9 224 54.5 Q 223.3 56.8 219.5 56 L 220 54.5 L 220 52 Z "></path><path fill="rgb(254,254,255)" stroke="rgb(254,254,255)" stroke-width="1" opacity="1" d="M 230.5 52 Q 233.9 51.1 232 56.5 Q 230 60 228 55.5 L 230.5 52 Z "></path><path fill="rgb(254,254,255)" stroke="rgb(254,254,255)" stroke-width="1" opacity="1" d="M 216.5 53 Q 219.5 54.5 216.5 56 L 216.5 53 Z "></path><path fill="rgb(254,254,255)" stroke="rgb(254,254,255)" stroke-width="1" opacity="1" d="M 169 56 L 171 56.5 L 169 57.5 L 169 56 Z "></path><path fill="rgb(254,254,255)" stroke="rgb(254,254,255)" stroke-width="1" opacity="1" d="M 208 56 L 212 57 Q 213.6 61.9 208 60 L 208 56 Z "></path><path fill="rgb(254,254,255)" stroke="rgb(254,254,255)" stroke-width="1" opacity="1" d="M 174.5 60 L 177.5 61 L 180 62.5 L 178.5 62 L 176.5 61 L 174 61.5 L 173.5 63 L 173 61.5 L 174.5 60 Z "></path><path fill="rgb(254,254,255)" stroke="rgb(254,254,255)" stroke-width="1" opacity="1" d="M 213 60 Q 216 58.8 215 62.5 L 212 62.5 L 213 60 Z "></path><path fill="rgb(254,254,255)" stroke="rgb(254,254,255)" stroke-width="1" opacity="1" d="M 221 60 L 224 60.5 L 224 62.5 Q 224.8 64.8 222.5 64 L 220 62.5 L 221 60 Z "></path><path fill="rgb(254,254,255)" stroke="rgb(254,254,255)" stroke-width="1" opacity="1" d="M 153.5 61 L 154.5 63 L 153.5 61 Z "></path><path fill="rgb(254,254,255)" stroke="rgb(254,254,255)" stroke-width="1" opacity="1" d="M 148 62 L 152 62.5 L 148.5 64 L 148 62 Z "></path><path fill="rgb(254,254,255)" stroke="rgb(254,254,255)" stroke-width="1" opacity="1" d="M 185.5 62 Q 188.1 61.3 187 64 L 192 64 L 192 67.5 L 190.5 67 L 184 66 L 185.5 62 Z "></path><path fill="rgb(254,254,255)" stroke="rgb(254,254,255)" stroke-width="1" opacity="1" d="M 175.5 63 L 178 63.5 L 175.5 64 L 175.5 63 Z "></path><path fill="rgb(254,254,255)" stroke="rgb(254,254,255)" stroke-width="1" opacity="1" d="M 167 65 L 169 65.5 L 168.5 67 L 171.5 66 L 170.5 68 Q 165.3 69.5 167 65 Z "></path><path fill="rgb(254,254,255)" stroke="rgb(254,254,255)" stroke-width="1" opacity="1" d="M 198.5 68 L 198 69.5 L 197.5 71 L 197 69.5 L 198.5 68 Z "></path><path fill="rgb(254,254,255)" stroke="rgb(254,254,255)" stroke-width="1" opacity="1" d="M 160 71 L 164 72.5 L 160 73 L 160 71 Z "></path><path fill="rgb(254,254,255)" stroke="rgb(254,254,255)" stroke-width="1" opacity="1" d="M 160.5 75 L 164 75.5 L 160.5 76 L 160.5 75 Z "></path><path fill="rgb(254,254,255)" stroke="rgb(254,254,255)" stroke-width="1" opacity="1" d="M 200.5 76 L 204 76 L 204 84 Q 200.7 85.3 202 80.5 L 200.5 76 Z "></path><path fill="rgb(254,254,255)" stroke="rgb(254,254,255)" stroke-width="1" opacity="1" d="M 142.5 80 L 144 82.5 L 142 83.5 L 142 81.5 L 142.5 80 Z "></path><path fill="rgb(254,254,255)" stroke="rgb(254,254,255)" stroke-width="1" opacity="1" d="M 221.5 84 Q 224.2 85.2 222 86.5 L 221.5 88 L 219 87.5 L 219.5 86 L 218 85.5 L 219.5 85 L 221.5 86 L 221.5 84 Z "></path><path fill="rgb(254,254,255)" stroke="rgb(254,254,255)" stroke-width="1" opacity="1" d="M 201 92 Q 205.9 90.4 204 96 L 200 95.5 L 201 92 Z "></path><path fill="rgb(254,254,255)" stroke="rgb(254,254,255)" stroke-width="1" opacity="1" d="M 169 104 L 172 105.5 L 170.5 109 L 169.5 107 L 167.5 110 L 167 108.5 Q 169.8 107.4 169 104 Z "></path><path fill="rgb(254,254,255)" stroke="rgb(254,254,255)" stroke-width="1" opacity="1" d="M 191.5 104 L 193 106.5 L 192 109 L 184 108 Q 182.7 104.7 187.5 106 L 191.5 104 Z "></path><path fill="rgb(254,254,255)" stroke="rgb(254,254,255)" stroke-width="1" opacity="1" d="M 169.5 110 L 169.5 112 L 172 112.5 L 169 113 L 168.5 132 L 168 111.5 L 169.5 110 Z "></path><path fill="rgb(254,254,255)" stroke="rgb(254,254,255)" stroke-width="1" opacity="1" d="M 132 112 L 136 112.5 L 133 113 L 132.5 136 L 132 112 Z "></path><path fill="rgb(254,254,255)" stroke="rgb(254,254,255)" stroke-width="1" opacity="1" d="M 148.5 112 Q 152.9 110.5 152 113.5 L 150.5 113 Q 147.5 113.5 148.5 112 Z "></path><path fill="rgb(254,254,255)" stroke="rgb(254,254,255)" stroke-width="1" opacity="1" d="M 184.5 112 Q 188.9 110.5 188 113.5 L 186.5 113 Q 183.5 113.5 184.5 112 Z "></path><path fill="rgb(254,254,255)" stroke="rgb(254,254,255)" stroke-width="1" opacity="1" d="M 204 112 L 208 112.5 L 205 113 L 204.5 124 L 204 112 Z "></path><path fill="rgb(254,254,255)" stroke="rgb(254,254,255)" stroke-width="1" opacity="1" d="M 135.5 115 L 136 124 L 140 124.5 L 138 125 L 140 129 Q 137 128 138 131 L 140 131.5 L 136 132 L 135.5 136 L 135.5 115 Z "></path><path fill="rgb(254,254,255)" stroke="rgb(254,254,255)" stroke-width="1" opacity="1" d="M 148.5 115 L 149 123 L 152 123.5 L 148 124 L 148.5 115 Z "></path><path fill="rgb(254,254,255)" stroke="rgb(254,254,255)" stroke-width="1" opacity="1" d="M 171.5 115 L 172 132 L 176 132.5 L 174 133 Q 172.9 135.7 175.5 135 L 180 136 L 179.5 140 L 179 138 Q 174.9 139.3 176 136 L 172 136 L 172 132.5 L 171 131.5 L 171.5 115 Z "></path><path fill="rgb(254,254,255)" stroke="rgb(254,254,255)" stroke-width="1" opacity="1" d="M 207.5 115 L 208 123.5 L 207 123.5 L 207.5 115 Z "></path><path fill="rgb(254,254,255)" stroke="rgb(254,254,255)" stroke-width="1" opacity="1" d="M 190.5 116 Q 192.8 115.3 192 117.5 L 190.5 116 Z "></path><path fill="rgb(254,254,255)" stroke="rgb(254,254,255)" stroke-width="1" opacity="1" d="M 220.5 116 L 221 123 L 224 123.5 L 220 124 L 220.5 116 Z "></path><path fill="rgb(254,254,255)" stroke="rgb(254,254,255)" stroke-width="1" opacity="1" d="M 226.5 116 Q 228.8 115.3 228 117.5 L 226.5 116 Z "></path><path fill="rgb(254,254,255)" stroke="rgb(254,254,255)" stroke-width="1" opacity="1" d="M 151.5 117 L 152 120.5 L 151 120.5 L 151.5 117 Z "></path><path fill="rgb(254,254,255)" stroke="rgb(254,254,255)" stroke-width="1" opacity="1" d="M 223.5 117 L 225.5 120 L 223.5 121 L 223.5 117 Z "></path><path fill="rgb(254,254,255)" stroke="rgb(254,254,255)" stroke-width="1" opacity="1" d="M 188.5 118 L 189.5 120 L 187.5 121 L 188 119.5 L 188.5 118 Z "></path><path fill="rgb(254,254,255)" stroke="rgb(254,254,255)" stroke-width="1" opacity="1" d="M 158.5 120 L 160 120.5 L 160 139.5 L 159 139.5 L 159 121.5 L 158.5 120 Z "></path><path fill="rgb(254,254,255)" stroke="rgb(254,254,255)" stroke-width="1" opacity="1" d="M 184.5 120 L 185 123 L 188 123.5 L 184 124 L 184.5 120 Z "></path><path fill="rgb(254,254,255)" stroke="rgb(254,254,255)" stroke-width="1" opacity="1" d="M 194.5 120 L 196 120.5 L 196 148 L 192 147.5 L 195 147 L 195 121.5 L 194.5 120 Z "></path><path fill="rgb(254,254,255)" stroke="rgb(254,254,255)" stroke-width="1" opacity="1" d="M 230.5 120 Q 233.5 119.1 232 123.5 L 231 123.5 L 230.5 120 Z "></path><path fill="rgb(254,254,255)" stroke="rgb(254,254,255)" stroke-width="1" opacity="1" d="M 156.5 123 L 157 139.5 L 156 139.5 L 156.5 123 Z "></path><path fill="rgb(254,254,255)" stroke="rgb(254,254,255)" stroke-width="1" opacity="1" d="M 192.5 123 L 193 144.5 L 192 144.5 L 192.5 123 Z "></path><path fill="rgb(254,254,255)" stroke="rgb(254,254,255)" stroke-width="1" opacity="1" d="M 161 135 L 164 135.5 L 162 136.5 L 164 137.5 L 161 138 L 161 135 Z "></path><path fill="rgb(254,254,255)" stroke="rgb(254,254,255)" stroke-width="1" opacity="1" d="M 212 136 L 216 136 L 216 140 L 217.5 140 L 219 139.5 L 219 141.5 Q 220.1 144.8 217.5 144 L 215.5 144 Q 210.7 145.3 212 142 Q 216.9 143.6 215 138 Q 210.9 139.3 212 136 Z "></path><path fill="rgb(254,254,255)" stroke="rgb(254,254,255)" stroke-width="1" opacity="1" d="M 145.5 137 Q 148.5 138.6 147 144 L 144.5 143 L 140 144 L 140 142 Q 143.7 143.5 143 140.5 L 144 140.5 L 144.5 142 L 146 140.5 Q 142.2 138.8 145.5 137 Z "></path><path fill="rgb(254,254,255)" stroke="rgb(254,254,255)" stroke-width="1" opacity="1" d="M 162 139 Q 165 137.8 164 141.5 L 162 141.5 L 164 147 Q 161.9 148.6 156.5 148 L 156.5 147 Q 160.3 148.3 159 144.5 L 160 144.5 Q 158.9 147.8 161.5 147 L 163 144.5 L 161 141.5 L 162 139 Z "></path><path fill="rgb(254,254,255)" stroke="rgb(254,254,255)" stroke-width="1" opacity="1" d="M 228.5 140 L 229 144.5 L 228 144.5 L 228.5 140 Z "></path><path fill="rgb(254,254,255)" stroke="rgb(254,254,255)" stroke-width="1" opacity="1" d="M 231.5 140 L 232 148 L 228 147.5 L 231 147 L 231.5 140 Z "></path><path fill="rgb(254,254,255)" stroke="rgb(254,254,255)" stroke-width="1" opacity="1" d="M 167.5 144 Q 170.5 143.2 169 147 L 171.5 147 L 171.5 148 Q 166.7 149.7 168 145.5 L 167 145.5 L 166.5 148 L 165 145.5 L 167.5 144 Z "></path><path fill="rgb(254,254,255)" stroke="rgb(254,254,255)" stroke-width="1" opacity="1" d="M 197.5 144 L 200 144.5 L 199.5 148 L 197.5 144 Z "></path><path fill="rgb(254,254,255)" stroke="rgb(254,254,255)" stroke-width="1" opacity="1" d="M 204.5 144 L 205 147 L 208 147.5 L 204 148 L 204.5 144 Z "></path><path fill="rgb(254,254,255)" stroke="rgb(254,254,255)" stroke-width="1" opacity="1" d="M 330.5 163 L 337 163.5 L 330.5 164 L 330.5 163 Z "></path><path fill="rgb(254,254,255)" stroke="rgb(254,254,255)" stroke-width="1" opacity="1" d="M 321.5 164 L 325 164.5 L 321.5 165 L 321.5 164 Z "></path><path fill="rgb(254,254,255)" stroke="rgb(254,254,255)" stroke-width="1" opacity="1" d="M 317.5 165 L 320 165.5 L 317.5 166 L 317.5 165 Z "></path><path fill="rgb(254,254,255)" stroke="rgb(254,254,255)" stroke-width="1" opacity="1" d="M 308.5 168 L 310 168.5 L 298.5 175 L 299.5 173 L 308.5 168 Z "></path><path fill="rgb(254,254,255)" stroke="rgb(254,254,255)" stroke-width="1" opacity="1" d="M 296.5 175 L 294.5 178 L 296.5 175 Z "></path><path fill="rgb(254,254,255)" stroke="rgb(254,254,255)" stroke-width="1" opacity="1" d="M 348.5 191 L 351 192.5 L 349.5 192 L 348.5 191 Z "></path><path fill="rgb(254,254,255)" stroke="rgb(254,254,255)" stroke-width="1" opacity="1" d="M 280.5 193 L 279 195.5 L 278.5 197 L 278 195.5 L 280.5 193 Z "></path><path fill="rgb(254,254,255)" stroke="rgb(254,254,255)" stroke-width="1" opacity="1" d="M 353.5 194 L 356 195.5 L 354.5 195 L 353.5 194 Z "></path><path fill="rgb(254,254,255)" stroke="rgb(254,254,255)" stroke-width="1" opacity="1" d="M 276.5 200 L 276 201.5 L 275.5 203 L 275 201.5 L 276.5 200 Z "></path><path fill="rgb(254,254,255)" stroke="rgb(254,254,255)" stroke-width="1" opacity="1" d="M 348.5 209 L 349.5 211 L 348.5 209 Z "></path><path fill="rgb(254,254,255)" stroke="rgb(254,254,255)" stroke-width="1" opacity="1" d="M 349.5 217 L 348.5 219 L 349.5 217 Z "></path><path fill="rgb(254,254,255)" stroke="rgb(254,254,255)" stroke-width="1" opacity="1" d="M 325.5 221 L 320 227.5 L 321 229.5 L 319 228.5 L 325.5 221 Z "></path><path fill="rgb(254,254,255)" stroke="rgb(254,254,255)" stroke-width="1" opacity="1" d="M 270.5 226 L 271 228.5 L 270 228.5 L 270.5 226 Z "></path><path fill="rgb(254,254,255)" stroke="rgb(254,254,255)" stroke-width="1" opacity="1" d="M 324.5 232 L 326.5 235 L 324.5 232 Z "></path><path fill="rgb(254,254,255)" stroke="rgb(254,254,255)" stroke-width="1" opacity="1" d="M 356 232 Q 360.1 230.7 359 234 L 356.5 235 L 356 232 Z "></path><path fill="rgb(254,254,255)" stroke="rgb(254,254,255)" stroke-width="1" opacity="1" d="M 343.5 234 L 346 234.5 L 343.5 235 L 343.5 234 Z "></path><path fill="rgb(254,254,255)" stroke="rgb(254,254,255)" stroke-width="1" opacity="1" d="M 350.5 234 L 353 234.5 L 350.5 235 L 350.5 234 Z "></path><path fill="rgb(254,254,255)" stroke="rgb(254,254,255)" stroke-width="1" opacity="1" d="M 333.5 235 L 332.5 237 L 333.5 235 Z "></path><path fill="rgb(254,254,255)" stroke="rgb(254,254,255)" stroke-width="1" opacity="1" d="M 271.5 236 L 272 238.5 L 271 238.5 L 271.5 236 Z "></path><path fill="rgb(254,254,255)" stroke="rgb(254,254,255)" stroke-width="1" opacity="1" d="M 329.5 236 L 330.5 238 L 329.5 236 Z "></path><path fill="rgb(254,254,255)" stroke="rgb(254,254,255)" stroke-width="1" opacity="1" d="M 307.5 239 L 305.5 242 L 307.5 239 Z "></path><path fill="rgb(254,254,255)" stroke="rgb(254,254,255)" stroke-width="1" opacity="1" d="M 322.5 241 L 323.5 243 L 322.5 241 Z "></path><path fill="rgb(254,254,255)" stroke="rgb(254,254,255)" stroke-width="1" opacity="1" d="M 275.5 251 L 277 253.5 L 276 253.5 L 275.5 251 Z "></path><path fill="rgb(254,254,255)" stroke="rgb(254,254,255)" stroke-width="1" opacity="1" d="M 305.5 252 Q 309.3 251 308 254 L 305.5 252 Z "></path><path fill="rgb(255,255,255)" stroke="rgb(255,255,255)" stroke-width="1" opacity="1" d="M 3.5 1 L 356.5 1 L 359 3.5 L 359 167.5 L 356.5 168 L 346.5 164 L 328.5 163 L 308.5 168 L 292 178 L 289.5 182 L 288 182 L 288 184 Q 285.3 182.9 286 185.5 L 275 201.5 L 271 216.5 L 270 228.5 L 271 229.5 L 271 238.5 L 276 254 L 3.5 254 L 1 251.5 L 1 3.5 L 3.5 1 Z M 137 32 L 135 34 L 136 36 L 135 39 Q 136 41 132 40 L 131 45 Q 126 47 130 49 L 132 46 L 131 48 L 132 50 L 131 49 L 130 55 Q 133 56 132 58 L 134 57 L 136 58 L 136 56 L 144 60 L 141 61 Q 140 63 144 62 L 144 79 L 143 80 L 144 82 L 144 84 L 143 83 L 141 86 L 142 87 L 149 83 L 156 83 L 156 87 L 156 89 L 144 88 L 143 93 L 144 94 L 144 111 L 144 112 Q 148 112 148 112 L 148 91 L 156 91 L 156 94 L 155 97 L 158 101 L 161 99 L 167 100 L 166 102 L 168 102 L 167 104 L 169 104 L 170 109 Q 173 110 172 106 L 171 106 L 172 104 L 177 106 L 180 106 L 180 112 L 184 112 L 184 113 Q 173 115 169 111 L 167 116 L 168 117 L 168 136 L 164 137 L 162 137 L 164 136 L 164 135 Q 159 134 161 138 L 164 139 L 162 139 L 161 143 L 164 144 Q 163 146 162 144 L 161 146 L 164 147 L 165 145 L 166 148 L 169 148 L 173 147 L 192 147 L 196 148 L 196 121 L 194 120 L 192 116 L 188 115 L 189 111 L 188 110 L 185 112 L 187 108 L 193 109 L 192 108 L 193 106 L 193 104 Q 198 106 196 101 L 201 99 L 205 100 L 209 100 L 208 99 L 208 91 L 216 91 L 216 93 L 214 94 L 216 95 L 214 96 L 216 96 L 216 110 L 215 111 Q 216 113 221 112 L 221 110 L 220 109 L 220 90 Q 222 88 220 87 L 216 89 L 208 89 L 208 83 L 216 83 L 217 84 L 220 84 L 220 64 L 222 63 L 227 56 L 231 58 L 232 57 L 232 40 L 228 38 Q 227 34 230 35 L 231 33 L 229 34 L 228 32 L 217 32 L 214 34 Q 211 35 212 32 L 208 32 L 208 34 L 207 33 L 206 33 Q 205 36 208 35 L 207 39 Q 208 41 204 40 L 204 44 L 202 44 L 203 42 L 203 40 Q 198 43 199 48 Q 203 47 204 50 Q 203 54 207 52 L 208 55 Q 209 57 206 56 L 208 60 Q 213 62 212 58 L 216 60 L 214 60 L 212 63 L 215 63 L 215 62 L 216 62 L 216 78 L 215 79 L 216 81 L 208 81 L 208 74 L 209 72 L 204 73 Q 198 74 196 71 L 198 67 L 198 69 L 199 69 Q 201 62 196 64 L 196 66 Q 193 67 194 65 L 192 64 Q 186 66 187 62 L 185 63 L 184 59 L 187 58 Q 189 57 188 60 L 192 60 L 192 59 L 192 57 L 194 57 Q 197 58 196 56 L 196 54 L 197 52 L 198 54 L 200 52 Q 196 50 199 49 L 198 45 L 197 50 Q 196 41 192 37 L 193 34 L 192 32 L 172 32 L 167 33 L 169 36 L 167 41 L 168 43 L 167 46 L 168 56 L 169 58 Q 173 57 172 60 L 174 61 L 173 63 L 180 61 L 179 63 L 180 66 L 172 68 L 172 66 L 169 67 L 169 66 L 167 65 L 168 69 L 167 72 L 164 71 L 156 72 L 155 75 L 156 78 L 156 80 L 156 81 L 148 81 L 148 64 L 152 64 L 152 60 Q 157 62 156 58 L 161 58 Q 159 54 160 45 L 158 41 L 160 40 L 161 38 L 161 36 L 159 33 L 158 33 L 156 32 L 145 32 L 142 34 Q 139 35 140 32 L 137 32 Z M 129 39 Q 127 44 131 43 L 132 40 L 129 39 Z M 196 39 L 197 44 Q 199 43 197 42 L 198 40 L 198 42 L 199 42 Q 200 37 196 39 Z M 129 56 L 129 58 L 131 57 L 129 56 Z M 198 56 L 196 58 L 199 58 Q 200 55 198 56 Z M 154 61 Q 152 64 155 63 L 154 61 Z M 224 62 L 222 64 L 224 64 L 224 62 Z M 176 63 L 176 64 L 178 64 L 176 63 Z M 204 70 L 202 72 L 204 72 L 204 70 Z M 212 72 L 209 74 L 211 74 L 212 75 L 212 72 Z M 142 77 L 143 79 Q 144 76 142 77 Z M 143 86 L 143 88 L 145 87 L 143 86 Z M 221 86 L 222 88 Q 223 85 221 86 Z M 161 100 L 159 102 L 162 103 L 164 103 Q 165 99 163 100 L 161 100 Z M 169 107 L 167 110 L 169 109 L 169 107 Z M 225 110 L 223 112 L 225 112 L 225 110 Z M 150 111 L 148 113 L 137 113 L 136 112 Q 131 110 132 115 L 132 117 L 132 136 L 131 135 L 130 135 Q 131 137 128 136 L 128 144 L 129 145 Q 128 147 131 146 L 131 148 L 137 147 L 156 147 Q 157 149 162 148 L 162 147 L 160 147 L 160 121 L 158 120 L 152 115 L 152 112 L 150 111 Z M 205 112 L 203 114 L 204 115 L 204 135 L 202 134 L 198 146 L 200 148 L 203 147 L 200 145 L 203 144 L 204 148 L 209 147 L 228 147 L 232 148 L 232 121 L 230 120 L 228 116 Q 224 117 223 113 Q 212 114 205 112 Z "></path><path fill="rgb(255,255,255)" stroke="rgb(255,255,255)" stroke-width="1" opacity="1" d="M 141.5 36 Q 146.8 34.8 148 37.5 L 147.5 40 L 144.5 39 L 140 40 L 141.5 36 Z "></path><path fill="rgb(255,255,255)" stroke="rgb(255,255,255)" stroke-width="1" opacity="1" d="M 180 36 L 184 36 L 184 37.5 L 182.5 37 L 181 37.5 Q 183.3 38.8 180.5 40 L 180 36 Z "></path><path fill="rgb(255,255,255)" stroke="rgb(255,255,255)" stroke-width="1" opacity="1" d="M 224 40 L 228 41.5 Q 229.3 45.3 225.5 44 L 225.5 45 L 228 46.5 Q 229 51 226.5 52 L 224 51.5 L 224 40 Z "></path><path fill="rgb(255,255,255)" stroke="rgb(255,255,255)" stroke-width="1" opacity="1" d="M 156.5 43 L 156 44.5 Q 157.5 50.5 154.5 52 Q 149.9 53.2 152 48 L 154 47.5 L 153.5 46 L 155 45.5 L 154.5 44 L 156.5 43 Z "></path><path fill="rgb(255,255,255)" stroke="rgb(255,255,255)" stroke-width="1" opacity="1" d="M 192.5 43 L 191.5 45 L 192.5 43 Z "></path><path fill="rgb(255,255,255)" stroke="rgb(255,255,255)" stroke-width="1" opacity="1" d="M 136.5 44 L 140 46 L 139.5 48 L 137 46.5 L 136.5 48 L 136.5 44 Z "></path><path fill="rgb(255,255,255)" stroke="rgb(255,255,255)" stroke-width="1" opacity="1" d="M 172.5 44 L 174 48 Q 177.7 46.8 176 52 Q 172.3 53.5 173 50.5 Q 170.4 48.9 172.5 44 Z "></path><path fill="rgb(255,255,255)" stroke="rgb(255,255,255)" stroke-width="1" opacity="1" d="M 189.5 44 L 190 46 Q 193.7 44.6 192 50.5 L 188 52.5 L 186.5 56 Q 181.9 57.2 184 52 Q 189.6 54.2 188 48.5 L 188 46.5 L 189.5 44 Z "></path><path fill="rgb(255,255,255)" stroke="rgb(255,255,255)" stroke-width="1" opacity="1" d="M 209.5 44 L 210 46 Q 213 45 212 48 L 208 45.5 L 209.5 44 Z "></path><path fill="rgb(255,255,255)" stroke="rgb(255,255,255)" stroke-width="1" opacity="1" d="M 147.5 52 L 146.5 54 L 145 53.5 L 147.5 52 Z "></path><path fill="rgb(255,255,255)" stroke="rgb(255,255,255)" stroke-width="1" opacity="1" d="M 212 52 Q 217.7 51 220 54.5 L 217.5 56 L 215.5 56 L 212 55 L 212 52 Z "></path><path fill="rgb(255,255,255)" stroke="rgb(255,255,255)" stroke-width="1" opacity="1" d="M 200.5 75 L 204 75.5 L 200.5 76 L 200.5 75 Z "></path><path fill="rgb(255,255,255)" stroke="rgb(255,255,255)" stroke-width="1" opacity="1" d="M 160 76 L 164 76.5 L 162 84 L 160 83.5 L 160 76 Z "></path><path fill="rgb(255,255,255)" stroke="rgb(255,255,255)" stroke-width="1" opacity="1" d="M 203.5 84 L 204 87.5 L 203 87.5 L 203.5 84 Z "></path><path fill="rgb(255,255,255)" stroke="rgb(255,255,255)" stroke-width="1" opacity="1" d="M 160 88 Q 163.3 86.7 162 91.5 L 164 97 L 160 97 L 160 88 Z "></path><path fill="rgb(255,255,255)" stroke="rgb(255,255,255)" stroke-width="1" opacity="1" d="M 200.5 96 L 204 96.5 L 200.5 97 L 200.5 96 Z "></path><path fill="rgb(255,255,255)" stroke="rgb(255,255,255)" stroke-width="1" opacity="1" d="M 136 115 L 148 115 L 148 124 L 151.5 124 L 156 123 L 156 145 L 136.5 145 L 136.5 144 Q 143.2 145.8 145 142.5 L 144 140.5 L 145 140.5 L 146 142.5 L 145.5 144 Q 148.3 144.6 147 138.5 L 144 137.5 L 143.5 136 L 136 136 L 136 132 Q 143.2 129.7 155 131 L 154.5 129 L 140.5 129 L 140 127 L 154.5 127 L 155 125 L 140.5 125 L 136 122.5 L 136 115 Z M 138 133 L 139 135 L 155 135 L 155 133 L 138 133 Z "></path><path fill="rgb(255,255,255)" stroke="rgb(255,255,255)" stroke-width="1" opacity="1" d="M 172 115 L 184 115 L 184 124 L 187.5 124 L 192 123 L 192 145 L 172.5 145 L 172.5 144 L 176 144 L 176 142 Q 179.7 143.5 179 140.5 L 180 136 L 176 135.5 L 191 135 L 190.5 133 L 176.5 133 L 172 132 L 172 115 Z M 174 125 L 175 127 L 191 127 L 191 125 L 174 125 Z M 174 129 L 175 131 L 191 131 L 191 129 L 174 129 Z "></path><path fill="rgb(255,255,255)" stroke="rgb(255,255,255)" stroke-width="1" opacity="1" d="M 208 115 L 221 115.5 L 219 120.5 L 220 124 L 228 123 L 228 140.5 L 227 141.5 L 227.5 145 L 208 144.5 L 216.5 143 L 219 144 L 218 140.5 L 218.5 139 L 216.5 140 L 216 136 L 208 136 L 208 115 Z M 210 125 L 211 127 L 227 127 L 227 125 L 210 125 Z M 210 129 L 211 131 L 227 131 L 227 129 L 210 129 Z M 210 133 L 211 135 L 226 135 L 227 134 L 210 133 Z "></path><path fill="rgb(255,255,255)" stroke="rgb(255,255,255)" stroke-width="1" opacity="1" d="M 152.5 118 L 154.5 121 Q 150.1 122.1 152.5 118 Z "></path><path fill="rgb(255,255,255)" stroke="rgb(255,255,255)" stroke-width="1" opacity="1" d="M 188.5 120 L 191 120.5 L 188.5 121 L 188.5 120 Z "></path><path fill="rgb(255,255,255)" stroke="rgb(255,255,255)" stroke-width="1" opacity="1" d="M 224.5 120 L 227 120.5 L 224.5 121 L 224.5 120 Z "></path><path fill="rgb(255,255,255)" stroke="rgb(255,255,255)" stroke-width="1" opacity="1" d="M 334.5 187 L 337.5 188 L 346.5 190 L 359 197 L 359 231.5 L 356 232 L 355.5 234 L 350.5 234 L 348.5 234 L 346.5 235 L 345.5 234 L 335.5 234 L 332 236.5 L 331.5 238 L 320 228.5 L 327.5 220 L 337.5 219 L 340.5 220 L 342.5 219 L 344.5 220 L 350 217.5 L 351 212.5 L 348.5 209 L 340.5 204 L 331 202 L 332 192.5 L 334.5 187 Z "></path><path fill="rgb(255,255,255)" stroke="rgb(255,255,255)" stroke-width="1" opacity="1" d="M 311.5 237 Q 321.3 236.7 324 243.5 L 325 250.5 L 322.5 254 L 308.5 254 L 308 252 Q 304.3 253.5 305 250.5 Q 302.7 249.3 304 244.5 L 309.5 238 L 311.5 237 Z "></path><path fill="rgb(74,161,180)" stroke="rgb(74,161,180)" stroke-width="1" opacity="0.996078431372549" d="M 143.5 33 Q 152.5 32.5 156 37.5 Q 159.8 40.7 159 48.5 L 154.5 56 L 147 59 L 147 81 L 157 81 L 157 73 L 166.5 73 Q 171.7 66.7 181 66 L 181 59.5 L 179.5 59 Q 173.4 57.6 171 52.5 L 169 44.5 L 173 36 L 179.5 33 L 184.5 33 L 192 37.5 Q 195.8 40.7 195 48.5 L 190.5 56 L 183 59 L 183 66 L 185.5 66 Q 193.3 67.7 197.5 73 L 207 73 L 207 81 L 217 81 L 217 59.5 L 215.5 59 Q 208.6 57.4 206 51.5 L 205 44.5 Q 206 36.6 212.5 34 L 220.5 33 L 229 38.5 Q 231.7 41.8 231 48.5 L 226.5 56 L 219 59 L 219 83 L 207 83 L 207 89 L 219 89 L 219 110 L 217 109.5 L 217 91 L 207 91 L 207 99 L 197.5 99 Q 192.8 105.5 183 106 Q 184.7 111.2 181 110 Q 183.1 104.8 178.5 106 Q 170.6 104.4 166.5 99 L 157 99 L 157 91 L 147 91 L 147 109.5 L 145 110 L 145 89 L 157 89 L 157 83 L 145 83 L 145 59.5 L 143.5 59 Q 137.4 57.6 135 52.5 L 133 44.5 Q 134.8 37.3 140.5 34 L 143.5 33 Z M 143 35 L 141 36 L 135 43 L 136 52 L 143 57 L 152 56 L 157 50 L 156 41 Q 154 33 143 35 Z M 179 35 L 177 36 L 171 43 L 172 52 L 179 57 L 188 56 L 193 50 L 192 41 Q 190 33 179 35 Z M 215 35 L 213 36 L 207 43 L 208 52 L 215 57 L 224 56 L 229 50 L 228 41 Q 226 33 215 35 Z M 159 75 L 159 97 L 160 97 L 165 97 L 162 90 Q 161 80 165 77 L 165 75 L 159 75 Z M 200 75 L 202 82 Q 204 92 199 97 L 205 97 L 205 76 Q 205 74 200 75 Z "></path><path fill="rgb(74,161,180)" stroke="rgb(74,161,180)" stroke-width="1" opacity="0.996078431372549" d="M 142.5 41 Q 144 44.5 145.5 42 L 147.5 43 Q 149.3 39.3 151 42.5 Q 147.5 44 150 45.5 L 149 47.5 Q 152.8 49.3 149.5 51 Q 148 47.5 146.5 50 L 144.5 49 Q 142.7 52.8 141 49.5 Q 144.5 48 142 46.5 L 143 44.5 Q 139.3 42.8 142.5 41 Z "></path><path fill="rgb(74,161,180)" stroke="rgb(74,161,180)" stroke-width="1" opacity="0.996078431372549" d="M 178.5 41 Q 180 44.5 181.5 42 L 183.5 43 Q 185.3 39.3 187 42.5 Q 183.5 44 186 45.5 L 185 47.5 Q 188.8 49.3 185.5 51 Q 184 47.5 182.5 50 L 180.5 49 Q 178.7 52.8 177 49.5 Q 180.5 48 178 46.5 L 179 44.5 Q 175.3 42.8 178.5 41 Z "></path><path fill="rgb(74,161,180)" stroke="rgb(74,161,180)" stroke-width="1" opacity="0.996078431372549" d="M 214.5 41 Q 216 44.5 217.5 42 L 219.5 43 Q 221.3 39.3 223 42.5 Q 219.5 44 222 45.5 L 221 47.5 Q 224.8 49.3 221.5 51 Q 220 47.5 218.5 50 L 216.5 49 Q 214.8 52.8 213 49.5 Q 216.5 48 214 46.5 L 215 44.5 Q 211.3 42.8 214.5 41 Z "></path><path fill="rgb(74,161,180)" stroke="rgb(74,161,180)" stroke-width="1" opacity="0.996078431372549" d="M 130 138 Q 134.1 136.3 133 140.5 L 133.5 142 Q 127.8 143.6 130 138 Z "></path><path fill="rgb(74,161,180)" stroke="rgb(74,161,180)" stroke-width="1" opacity="0.996078431372549" d="M 135 138 L 142 138 L 142 142 L 135 142 L 135 138 Z "></path><path fill="rgb(74,161,180)" stroke="rgb(74,161,180)" stroke-width="1" opacity="0.996078431372549" d="M 166 138 Q 170.9 136.4 169 142 Q 164.1 143.6 166 138 Z "></path><path fill="rgb(74,161,180)" stroke="rgb(74,161,180)" stroke-width="1" opacity="0.996078431372549" d="M 171 138 L 178 138 L 178 142 L 171 142 L 171 138 Z "></path><path fill="rgb(74,161,180)" stroke="rgb(74,161,180)" stroke-width="1" opacity="0.996078431372549" d="M 202 138 Q 206.9 136.4 205 142 Q 200.1 143.6 202 138 Z "></path><path fill="rgb(74,161,180)" stroke="rgb(74,161,180)" stroke-width="1" opacity="0.996078431372549" d="M 207 138 L 214 138 L 214 142 L 207 142 L 207 138 Z "></path><path fill="rgb(230,232,236)" stroke="rgb(230,232,236)" stroke-width="1" opacity="0.9921568627450981" d="M 1.5 0 L 358.5 0 L 360 1.5 L 360 253.5 L 358.5 255 L 1.5 255 L 0 253.5 L 0 1.5 L 1.5 0 Z M 3 1 L 1 3 L 1 253 L 3 254 L 358 254 L 359 253 L 359 3 L 358 1 L 3 1 Z "></path><path fill="rgb(230,232,236)" stroke="rgb(230,232,236)" stroke-width="1" opacity="0.9921568627450981" d="M 137.5 36 L 136.5 38 L 137.5 36 Z "></path><path fill="rgb(230,232,236)" stroke="rgb(230,232,236)" stroke-width="1" opacity="0.9921568627450981" d="M 209.5 36 L 208.5 38 L 209.5 36 Z "></path><path fill="rgb(230,232,236)" stroke="rgb(230,232,236)" stroke-width="1" opacity="0.9921568627450981" d="M 136.5 54 L 137.5 56 L 136.5 54 Z "></path><path fill="rgb(230,232,236)" stroke="rgb(230,232,236)" stroke-width="1" opacity="0.9921568627450981" d="M 172.5 54 L 173.5 56 L 172.5 54 Z "></path><path fill="rgb(230,232,236)" stroke="rgb(230,232,236)" stroke-width="1" opacity="0.9921568627450981" d="M 208.5 54 L 209.5 56 L 208.5 54 Z "></path><path fill="rgb(230,232,236)" stroke="rgb(230,232,236)" stroke-width="1" opacity="0.9921568627450981" d="M 144.5 60 L 145 79.5 L 144 79.5 L 144.5 60 Z "></path><path fill="rgb(230,232,236)" stroke="rgb(230,232,236)" stroke-width="1" opacity="0.9921568627450981" d="M 147.5 60 L 148 79.5 L 147 79.5 L 147.5 60 Z "></path><path fill="rgb(230,232,236)" stroke="rgb(230,232,236)" stroke-width="1" opacity="0.9921568627450981" d="M 180.5 60 L 181 63.5 L 180 63.5 L 180.5 60 Z "></path><path fill="rgb(230,232,236)" stroke="rgb(230,232,236)" stroke-width="1" opacity="0.9921568627450981" d="M 183.5 60 L 184 63.5 L 183 63.5 L 183.5 60 Z "></path><path fill="rgb(230,232,236)" stroke="rgb(230,232,236)" stroke-width="1" opacity="0.9921568627450981" d="M 216.5 60 L 217 79.5 L 216 79.5 L 216.5 60 Z "></path><path fill="rgb(230,232,236)" stroke="rgb(230,232,236)" stroke-width="1" opacity="0.9921568627450981" d="M 219.5 60 L 220 79.5 L 219 79.5 L 219.5 60 Z "></path><path fill="rgb(230,232,236)" stroke="rgb(230,232,236)" stroke-width="1" opacity="0.9921568627450981" d="M 156.5 76 L 157 80.5 L 156 80.5 L 156.5 76 Z "></path><path fill="rgb(230,232,236)" stroke="rgb(230,232,236)" stroke-width="1" opacity="0.9921568627450981" d="M 159.5 76 L 160 95.5 L 159 95.5 L 159.5 76 Z "></path><path fill="rgb(230,232,236)" stroke="rgb(230,232,236)" stroke-width="1" opacity="0.9921568627450981" d="M 204.5 76 L 205 79.5 L 204 79.5 L 204.5 76 Z "></path><path fill="rgb(230,232,236)" stroke="rgb(230,232,236)" stroke-width="1" opacity="0.9921568627450981" d="M 207.5 76 L 208 79.5 L 207 79.5 L 207.5 76 Z "></path><path fill="rgb(230,232,236)" stroke="rgb(230,232,236)" stroke-width="1" opacity="0.9921568627450981" d="M 156.5 83 L 157 88.5 L 156 88.5 L 156.5 83 Z "></path><path fill="rgb(230,232,236)" stroke="rgb(230,232,236)" stroke-width="1" opacity="0.9921568627450981" d="M 204.5 84 L 205 95.5 L 204 95.5 L 204.5 84 Z "></path><path fill="rgb(230,232,236)" stroke="rgb(230,232,236)" stroke-width="1" opacity="0.9921568627450981" d="M 207.5 84 L 208 88.5 L 207 88.5 L 207.5 84 Z "></path><path fill="rgb(230,232,236)" stroke="rgb(230,232,236)" stroke-width="1" opacity="0.9921568627450981" d="M 156.5 91 L 157 95.5 L 156 95.5 L 156.5 91 Z "></path><path fill="rgb(230,232,236)" stroke="rgb(230,232,236)" stroke-width="1" opacity="0.9921568627450981" d="M 207.5 91 L 208 95.5 L 207 95.5 L 207.5 91 Z "></path><path fill="rgb(230,232,236)" stroke="rgb(230,232,236)" stroke-width="1" opacity="0.9921568627450981" d="M 144.5 92 L 145 107.5 L 144 107.5 L 144.5 92 Z "></path><path fill="rgb(230,232,236)" stroke="rgb(230,232,236)" stroke-width="1" opacity="0.9921568627450981" d="M 147.5 92 L 148 107.5 L 147 107.5 L 147.5 92 Z "></path><path fill="rgb(230,232,236)" stroke="rgb(230,232,236)" stroke-width="1" opacity="0.9921568627450981" d="M 216.5 92 L 217 107.5 L 216 107.5 L 216.5 92 Z "></path><path fill="rgb(230,232,236)" stroke="rgb(230,232,236)" stroke-width="1" opacity="0.9921568627450981" d="M 219.5 92 L 220 107.5 L 219 107.5 L 219.5 92 Z "></path><path fill="rgb(230,232,236)" stroke="rgb(230,232,236)" stroke-width="1" opacity="0.9921568627450981" d="M 133 113 L 150.5 113 L 159 121.5 L 159 147 L 133 147 L 132 142 L 134 141.5 L 132 136.5 L 133 135.5 L 133 113 Z M 135 115 L 135 136 L 136 137 L 135 139 L 136 143 L 135 145 L 157 145 L 157 123 L 149 123 L 149 115 L 135 115 Z M 152 117 Q 149 123 155 121 L 152 117 Z "></path><path fill="rgb(230,232,236)" stroke="rgb(230,232,236)" stroke-width="1" opacity="0.9921568627450981" d="M 169 113 L 186.5 113 L 195 121.5 L 195 147 L 169 147 L 168 142.5 L 169 138.5 L 168 136.5 L 169 135.5 L 169 113 Z M 171 115 L 171 136 L 172 137 L 171 139 L 172 143 L 171 145 L 193 145 L 193 123 L 185 123 L 185 115 L 171 115 Z M 188 117 Q 185 123 191 121 L 188 117 Z "></path><path fill="rgb(230,232,236)" stroke="rgb(230,232,236)" stroke-width="1" opacity="0.9921568627450981" d="M 205 113 L 222.5 113 L 231 121.5 L 231 147 L 205 147 L 204 142.5 L 205 138.5 L 204 136.5 L 205 135.5 L 205 113 Z M 207 115 L 207 136 L 208 137 L 207 139 L 208 143 L 207 145 L 229 145 L 229 123 L 221 123 L 221 115 L 207 115 Z M 224 117 Q 221 123 227 121 L 224 117 Z "></path><path fill="rgb(230,232,236)" stroke="rgb(230,232,236)" stroke-width="1" opacity="0.9921568627450981" d="M 138 125 L 154.5 125 L 155 127 L 138.5 127 L 138 125 Z "></path><path fill="rgb(230,232,236)" stroke="rgb(230,232,236)" stroke-width="1" opacity="0.9921568627450981" d="M 174 125 L 190.5 125 L 191 127 L 174.5 127 L 174 125 Z "></path><path fill="rgb(230,232,236)" stroke="rgb(230,232,236)" stroke-width="1" opacity="0.9921568627450981" d="M 210 125 L 226.5 125 L 227 127 L 210.5 127 L 210 125 Z "></path><path fill="rgb(230,232,236)" stroke="rgb(230,232,236)" stroke-width="1" opacity="0.9921568627450981" d="M 138 129 L 154.5 129 L 155 131 L 138.5 131 L 138 129 Z "></path><path fill="rgb(230,232,236)" stroke="rgb(230,232,236)" stroke-width="1" opacity="0.9921568627450981" d="M 174 129 L 190.5 129 L 191 131 L 174.5 131 L 174 129 Z "></path><path fill="rgb(230,232,236)" stroke="rgb(230,232,236)" stroke-width="1" opacity="0.9921568627450981" d="M 210 129 L 226.5 129 L 227 131 L 210.5 131 L 210 129 Z "></path><path fill="rgb(230,232,236)" stroke="rgb(230,232,236)" stroke-width="1" opacity="0.9921568627450981" d="M 138 133 L 154.5 133 L 155 135 L 138.5 135 L 138 133 Z "></path><path fill="rgb(230,232,236)" stroke="rgb(230,232,236)" stroke-width="1" opacity="0.9921568627450981" d="M 174 133 L 190.5 133 L 191 135 L 174.5 135 L 174 133 Z "></path><path fill="rgb(230,232,236)" stroke="rgb(230,232,236)" stroke-width="1" opacity="0.9921568627450981" d="M 209.5 133 L 227 133.5 L 225.5 135 L 210.5 135 L 209.5 133 Z "></path><path fill="rgb(242,250,254)" stroke="rgb(242,250,254)" stroke-width="1" opacity="1" d="M 172 142 Q 177.2 140.3 176 144 Q 170.8 145.7 172 142 Z "></path><path fill="rgb(242,250,254)" stroke="rgb(242,250,254)" stroke-width="1" opacity="1" d="M 325.5 164 L 343 164.5 L 340 165 L 340.5 168 L 352.5 168 L 354.5 168 L 359 169 L 359 172 L 356 172.5 L 356 191.5 L 352 192 L 352 188 L 344.5 188 L 344.5 189 L 346 189.5 L 344.5 190 L 340 188 L 340 184 L 332 184 L 333 191.5 L 332 196 L 328 196 L 328 204 L 332 203.5 L 330.5 201 L 333.5 204 L 334.5 203 L 336 203 L 336 208 L 344 208 L 344 212 Q 350 210 348 216 L 328.5 216 L 328 218.5 L 330 218.5 L 319.5 227 L 324.5 220 L 320 220 Q 322 226 316 224 L 316 232 L 322 231.5 L 321.5 230 Q 325 231.3 324 236 L 327.5 235 Q 330.3 236.3 328 237.5 L 328 240 L 336 240 L 336 236 L 345.5 236 L 349.5 236 L 351.5 235 L 355.5 236 L 355.5 235 L 353 234.5 L 355.5 234 L 357.5 234 Q 360.1 233.3 359 236 L 356 236.5 L 356 252 L 328 252 L 328 244 L 324 244 L 324 240 L 322.5 240 Q 320.8 242.8 319 238.5 L 320 236 L 316.5 237 L 314.5 236 L 310.5 237 L 304 236 L 304 249.5 L 305 250.5 L 304 251.5 L 305.5 254 L 304 254 L 303.5 252 L 280 252 Q 281.1 255.3 277 254 L 275 250.5 L 276 249.5 L 276 240 L 272.5 241 L 271 234.5 L 272 233.5 L 272 223.5 L 271 221.5 L 271 219.5 L 272 216 L 276 216 L 276 204.5 L 280 204 L 280 196.5 L 284 196 L 284 190.5 L 283 190.5 L 281.5 193 L 282 191.5 Q 285.7 182.7 293.5 178 L 293.5 180 Q 296.8 181.1 296 178.5 Q 293.3 176.8 297.5 175 L 304 176 L 304.5 171 L 305.5 172 L 312 172 Q 313.5 168.3 310.5 169 L 308.5 170 L 308.5 169 L 313.5 167 L 314.5 168 L 328 168 Q 329.7 163.9 325.5 165 L 325.5 164 Z M 292 181 L 289 184 L 292 184 L 292 181 Z M 288 185 L 285 188 L 288 188 L 288 185 Z "></path><path fill="rgb(242,250,254)" stroke="rgb(242,250,254)" stroke-width="1" opacity="1" d="M 346.5 165 L 349 165.5 L 346.5 166 L 346.5 165 Z "></path><path fill="rgb(242,250,254)" stroke="rgb(242,250,254)" stroke-width="1" opacity="1" d="M 315.5 166 L 319 166.5 L 315.5 167 L 315.5 166 Z "></path><path fill="rgb(242,250,254)" stroke="rgb(242,250,254)" stroke-width="1" opacity="1" d="M 340.5 205 L 343 206.5 L 341.5 206 L 340.5 205 Z "></path><path fill="rgb(242,250,254)" stroke="rgb(242,250,254)" stroke-width="1" opacity="1" d="M 350.5 215 L 347.5 219 L 345 218.5 L 350.5 215 Z "></path><path fill="rgb(242,250,254)" stroke="rgb(242,250,254)" stroke-width="1" opacity="1" d="M 332.5 218 L 335 218.5 L 332.5 219 L 332.5 218 Z "></path><path fill="rgb(242,250,254)" stroke="rgb(242,250,254)" stroke-width="1" opacity="1" d="M 336.5 218 L 339 218.5 L 336.5 219 L 336.5 218 Z "></path><path fill="rgb(242,250,254)" stroke="rgb(242,250,254)" stroke-width="1" opacity="1" d="M 335.5 234 L 331.5 239 L 335.5 234 Z "></path><path fill="rgb(242,250,254)" stroke="rgb(242,250,254)" stroke-width="1" opacity="1" d="M 337.5 234 L 341 234.5 L 337.5 235 L 337.5 234 Z "></path><path fill="rgb(242,250,254)" stroke="rgb(242,250,254)" stroke-width="1" opacity="1" d="M 307.5 238 L 309 238.5 L 305.5 241 L 307.5 238 Z "></path><path fill="rgb(242,250,254)" stroke="rgb(242,250,254)" stroke-width="1" opacity="1" d="M 325.5 246 L 326 249.5 L 325 249.5 L 325.5 246 Z "></path></svg>