<svg width="360" height="255" version="1.1" xmlns="http://www.w3.org/2000/svg"><path fill="rgb(249,250,249)" stroke="rgb(249,250,249)" stroke-width="1" opacity="1" d="M 1.5 0 L 358.5 0 L 360 1.5 L 360 253.5 L 358.5 255 L 1.5 255 L 0 253.5 L 0 1.5 L 1.5 0 Z M 4 1 L 1 4 L 1 252 L 4 254 L 357 254 L 359 252 L 359 4 L 357 1 L 4 1 Z "></path><path fill="rgb(249,250,249)" stroke="rgb(249,250,249)" stroke-width="1" opacity="1" d="M 142.5 39 L 143 40.5 L 139 43.5 L 140 40 L 142.5 39 Z "></path><path fill="rgb(249,250,249)" stroke="rgb(249,250,249)" stroke-width="1" opacity="1" d="M 189 44 Q 194.3 42.2 192 49.5 L 191 49.5 L 189 44 Z "></path><path fill="rgb(249,250,249)" stroke="rgb(249,250,249)" stroke-width="1" opacity="1" d="M 194.5 56 L 196 61.5 L 195 61.5 L 194.5 56 Z "></path><path fill="rgb(249,250,249)" stroke="rgb(249,250,249)" stroke-width="1" opacity="1" d="M 131.5 68 L 132 70.5 L 131 70.5 L 131.5 68 Z "></path><path fill="rgb(249,250,249)" stroke="rgb(249,250,249)" stroke-width="1" opacity="1" d="M 195.5 69 L 196 71.5 L 195 71.5 L 195.5 69 Z "></path><path fill="rgb(249,250,249)" stroke="rgb(249,250,249)" stroke-width="1" opacity="1" d="M 213.5 71 L 216 72.5 L 212 74 L 213.5 71 Z "></path><path fill="rgb(249,250,249)" stroke="rgb(249,250,249)" stroke-width="1" opacity="1" d="M 223.5 75 L 224 80.5 L 223 80.5 L 222 76.5 L 223.5 75 Z "></path><path fill="rgb(249,250,249)" stroke="rgb(249,250,249)" stroke-width="1" opacity="1" d="M 219.5 79 Q 221.8 78.3 221 80.5 L 219.5 79 Z "></path><path fill="rgb(249,250,249)" stroke="rgb(249,250,249)" stroke-width="1" opacity="1" d="M 132 80 L 136 80 L 136 81.5 L 132 84 L 132 80 Z "></path><path fill="rgb(249,250,249)" stroke="rgb(249,250,249)" stroke-width="1" opacity="1" d="M 208 80 L 212 80 L 212 81.5 L 209 88 L 206 87.5 L 208 87 L 208 80 Z "></path><path fill="rgb(249,250,249)" stroke="rgb(249,250,249)" stroke-width="1" opacity="1" d="M 220.5 83 L 224 84.5 L 225 87.5 L 223.5 88 L 220.5 83 Z "></path><path fill="rgb(249,250,249)" stroke="rgb(249,250,249)" stroke-width="1" opacity="1" d="M 211.5 87 L 212.5 88 L 220 88 L 218.5 91 Q 212.5 92.5 211 89.5 L 211.5 87 Z "></path><path fill="rgb(249,250,249)" stroke="rgb(249,250,249)" stroke-width="1" opacity="1" d="M 227.5 87 L 228 89.5 L 226 88.5 L 227.5 87 Z "></path><path fill="rgb(249,250,249)" stroke="rgb(249,250,249)" stroke-width="1" opacity="1" d="M 188.5 88 Q 193.8 86.3 192 91.5 L 188.5 88 Z "></path><path fill="rgb(249,250,249)" stroke="rgb(249,250,249)" stroke-width="1" opacity="1" d="M 184 89 L 190 93.5 L 188.5 96 L 188 92 L 182 91.5 L 184 91 L 184 89 Z "></path><path fill="rgb(249,250,249)" stroke="rgb(249,250,249)" stroke-width="1" opacity="1" d="M 227.5 94 L 228 96 L 226 95.5 L 227.5 94 Z "></path><path fill="rgb(249,250,249)" stroke="rgb(249,250,249)" stroke-width="1" opacity="1" d="M 148 96 L 150 96 Q 148.5 99.7 151.5 99 L 151.5 100 L 148 100 Q 150.2 105.6 144.5 104 L 143.5 102 L 145.5 103 L 146.5 100 L 148 100 L 148 96 Z "></path><path fill="rgb(249,250,249)" stroke="rgb(249,250,249)" stroke-width="1" opacity="1" d="M 191.5 106 L 191.5 109 L 188.5 108 L 187 108.5 L 191.5 106 Z "></path><path fill="rgb(249,250,249)" stroke="rgb(249,250,249)" stroke-width="1" opacity="1" d="M 169.5 112 L 170 128.5 L 171.5 130 L 173 128.5 L 173.5 116 L 174 128.5 L 175.5 130 Q 178.1 128.6 177.5 124 Q 176.9 128.6 179.5 130 Q 182.1 128.6 181.5 124 Q 180.9 128.6 183.5 130 Q 186.1 128.6 185.5 124 Q 184.9 128.6 187.5 130 Q 190.1 128.6 189.5 124 Q 188.9 128.6 191.5 130 L 193.5 128 L 195.5 130 L 197.5 128 Q 199.3 131.8 201 128.5 L 200 124 Q 203.7 122.7 202 128.5 L 204 132 L 184.5 132 L 183.5 133 L 182.5 132 L 132 132 L 133.5 128 L 135.5 130 L 137.5 128 Q 139.3 131.8 141 128.5 L 141.5 124 Q 140.9 128.6 143.5 130 L 145.5 128 L 147.5 130 L 149.5 128 L 151.5 130 L 153.5 128 L 155.5 130 L 157.5 128 Q 159.3 131.8 161 128.5 L 161.5 124 Q 160.9 128.6 163.5 130 L 165 128.5 L 165.5 120 L 166 128.5 L 167.5 130 L 169 128.5 L 169.5 112 Z "></path><path fill="rgb(249,250,249)" stroke="rgb(249,250,249)" stroke-width="1" opacity="1" d="M 157.5 135 L 158 138 L 156 137.5 L 157.5 135 Z "></path><path fill="rgb(249,250,249)" stroke="rgb(249,250,249)" stroke-width="1" opacity="1" d="M 221.5 135 L 224.5 136 L 226.5 136 Q 229.5 135.1 228 139.5 L 227 139.5 Q 227.8 137.3 225.5 138 L 221.5 136 L 221.5 135 Z "></path><path fill="rgb(249,250,249)" stroke="rgb(249,250,249)" stroke-width="1" opacity="1" d="M 163 137 L 172 137 L 172 146 L 161.5 147 L 161.5 146 L 163 145.5 L 163 137 Z M 164 138 L 164 145 L 171 145 L 171 138 L 164 138 Z "></path><path fill="rgb(249,250,249)" stroke="rgb(249,250,249)" stroke-width="1" opacity="1" d="M 219.5 137 L 219.5 140 Q 216.5 138.5 219.5 137 Z "></path><path fill="rgb(249,250,249)" stroke="rgb(249,250,249)" stroke-width="1" opacity="1" d="M 159 138 L 161 138.5 L 159 139.5 L 159 138 Z "></path><path fill="rgb(249,250,249)" stroke="rgb(249,250,249)" stroke-width="1" opacity="1" d="M 229.5 142 L 229.5 144 Q 232.1 143.2 231 146.5 L 229 147.5 L 228.5 144 L 228 148 L 220 148 L 220 145.5 L 219.5 144 L 224.5 146 L 229.5 142 Z "></path><path fill="rgb(223,223,225)" stroke="rgb(223,223,225)" stroke-width="1" opacity="0.996078431372549" d="M 158.5 33 Q 177.6 31.4 185 41.5 L 185.5 43 L 186 40 L 188 40.5 L 185.5 48 L 181.5 43 Q 174.2 35.8 158.5 37 Q 148.8 38.8 144 45.5 L 163 64.5 L 164 69.5 L 163 72 Q 166.7 70.7 165 76.5 L 167 82.5 L 168 93 L 176.5 91 L 186 84 Q 191 77.5 192 67 L 196 67 L 196 68.5 L 194 77.5 L 187.5 88 L 185.5 88 L 184 88 Q 185.5 91.8 182.5 91 L 175.5 96 Q 169.8 95.3 167.5 98 L 160.5 98 L 153 96 L 152.5 98 L 152 95 Q 143.2 92.6 138 85.5 L 135.5 80 Q 133.3 80.8 134 78.5 L 132 73.5 L 131 62.5 L 135 49.5 L 145.5 38 L 158.5 33 Z M 141 80 Q 140 83 144 82 Q 145 79 141 80 Z M 141 82 Q 139 85 142 84 L 141 82 Z M 147 82 L 149 85 Q 152 86 151 84 L 147 82 Z M 152 89 Q 151 93 154 92 Q 155 88 152 89 Z "></path><path fill="rgb(223,223,225)" stroke="rgb(223,223,225)" stroke-width="1" opacity="0.996078431372549" d="M 189 42 Q 193.1 40.7 192 44 Q 187.9 45.3 189 42 Z "></path><path fill="rgb(223,223,225)" stroke="rgb(223,223,225)" stroke-width="1" opacity="0.996078431372549" d="M 224 42 Q 226.7 40.9 226 43.5 L 227 44.5 L 227 63.5 L 226 63.5 L 226 44.5 Q 223.3 45.1 224 42 Z "></path><path fill="rgb(223,223,225)" stroke="rgb(223,223,225)" stroke-width="1" opacity="0.996078431372549" d="M 199 45 L 224 45 L 224 62 L 200.5 62 L 199 60.5 L 199.5 59 L 196 58.5 L 199.5 58 L 200.5 59 L 212 59 L 211.5 56 L 200.5 56 L 200.5 55 L 211.5 55 L 212 52 L 200 51.5 L 212 51 L 211.5 48 L 200.5 48 L 199 45 Z "></path><path fill="rgb(223,223,225)" stroke="rgb(223,223,225)" stroke-width="1" opacity="0.996078431372549" d="M 189.5 47 L 194 53.5 Q 193.4 59.6 196 62.5 L 192 64 L 189 53.5 L 189.5 47 Z "></path><path fill="rgb(223,223,225)" stroke="rgb(223,223,225)" stroke-width="1" opacity="0.996078431372549" d="M 217.5 73 Q 220.8 73.8 220 78.5 L 219 78.5 Q 219.4 73.8 217.5 73 Z "></path><path fill="rgb(223,223,225)" stroke="rgb(223,223,225)" stroke-width="1" opacity="0.996078431372549" d="M 211.5 76 L 212 78.5 L 211 78.5 L 211.5 76 Z "></path><path fill="rgb(223,223,225)" stroke="rgb(223,223,225)" stroke-width="1" opacity="0.996078431372549" d="M 205.5 88 L 209.5 89 L 211 88.5 L 212 90.5 L 209.5 96 Q 205 97 204 94.5 L 203 91.5 L 205.5 88 Z "></path><path fill="rgb(223,223,225)" stroke="rgb(223,223,225)" stroke-width="1" opacity="0.996078431372549" d="M 130.5 89 L 133 90.5 L 131.5 91 L 130.5 89 Z "></path><path fill="rgb(223,223,225)" stroke="rgb(223,223,225)" stroke-width="1" opacity="0.996078431372549" d="M 193.5 90 L 228 123.5 L 229 125.5 L 225 131 L 223.5 131 L 189 96.5 L 192.5 96 L 224.5 127 L 226 125.5 L 193.5 93 L 192 93.5 L 193.5 90 Z "></path><path fill="rgb(223,223,225)" stroke="rgb(223,223,225)" stroke-width="1" opacity="0.996078431372549" d="M 227.5 90 L 228 93.5 L 225 95.5 Q 227.8 94.3 227.5 90 Z "></path><path fill="rgb(223,223,225)" stroke="rgb(223,223,225)" stroke-width="1" opacity="0.996078431372549" d="M 220.5 94 L 221.5 96 L 220.5 94 Z "></path><path fill="rgb(223,223,225)" stroke="rgb(223,223,225)" stroke-width="1" opacity="0.996078431372549" d="M 138.5 100 Q 141.5 101.5 138.5 103 L 138.5 100 Z "></path><path fill="rgb(223,223,225)" stroke="rgb(223,223,225)" stroke-width="1" opacity="0.996078431372549" d="M 227.5 102 Q 231.5 101.5 232 104.5 Q 232.5 108.5 229.5 109 Q 225.8 109.8 225 107.5 Q 224.3 102.8 227.5 102 Z M 227 105 Q 226 108 229 107 Q 230 104 227 105 Z "></path><path fill="rgb(223,223,225)" stroke="rgb(223,223,225)" stroke-width="1" opacity="0.996078431372549" d="M 166.5 105 L 167 115.5 L 166 115.5 L 166.5 105 Z "></path><path fill="rgb(223,223,225)" stroke="rgb(223,223,225)" stroke-width="1" opacity="0.996078431372549" d="M 188.5 108 L 192 109.5 L 190.5 112 Q 187.2 113.1 188 110.5 Q 185.8 109.3 188.5 108 Z "></path><path fill="rgb(223,223,225)" stroke="rgb(223,223,225)" stroke-width="1" opacity="0.996078431372549" d="M 162.5 117 L 163 123.5 L 162 123.5 L 162.5 117 Z "></path><path fill="rgb(223,223,225)" stroke="rgb(223,223,225)" stroke-width="1" opacity="0.996078431372549" d="M 182.5 117 L 183 119.5 L 182 119.5 L 182.5 117 Z "></path><path fill="rgb(223,223,225)" stroke="rgb(223,223,225)" stroke-width="1" opacity="0.996078431372549" d="M 138.5 120 L 139 127.5 L 138 127.5 L 138.5 120 Z "></path><path fill="rgb(223,223,225)" stroke="rgb(223,223,225)" stroke-width="1" opacity="0.996078431372549" d="M 150.5 121 L 151 127.5 L 150 127.5 L 150.5 121 Z "></path><path fill="rgb(223,223,225)" stroke="rgb(223,223,225)" stroke-width="1" opacity="0.996078431372549" d="M 158.5 121 L 159 127.5 L 158 127.5 L 158.5 121 Z "></path><path fill="rgb(223,223,225)" stroke="rgb(223,223,225)" stroke-width="1" opacity="0.996078431372549" d="M 160.5 121 L 161 123.5 L 160 123.5 L 160.5 121 Z "></path><path fill="rgb(223,223,225)" stroke="rgb(223,223,225)" stroke-width="1" opacity="0.996078431372549" d="M 192.5 123 L 193 127.5 L 192 127.5 L 192.5 123 Z "></path><path fill="rgb(223,223,225)" stroke="rgb(223,223,225)" stroke-width="1" opacity="0.996078431372549" d="M 130.5 124 L 131 127.5 L 130 127.5 L 130.5 124 Z "></path><path fill="rgb(223,223,225)" stroke="rgb(223,223,225)" stroke-width="1" opacity="0.996078431372549" d="M 136.5 125 L 137 127.5 L 136 127.5 L 136.5 125 Z "></path><path fill="rgb(223,223,225)" stroke="rgb(223,223,225)" stroke-width="1" opacity="0.996078431372549" d="M 148.5 125 L 149 127.5 L 148 127.5 L 148.5 125 Z "></path><path fill="rgb(223,223,225)" stroke="rgb(223,223,225)" stroke-width="1" opacity="0.996078431372549" d="M 156.5 125 L 157 127.5 L 156 127.5 L 156.5 125 Z "></path><path fill="rgb(223,223,225)" stroke="rgb(223,223,225)" stroke-width="1" opacity="0.996078431372549" d="M 199.5 125 L 199 126.5 L 198.5 128 L 198 126.5 L 199.5 125 Z "></path><path fill="rgb(223,223,225)" stroke="rgb(223,223,225)" stroke-width="1" opacity="0.996078431372549" d="M 131.5 137 L 132 145 L 140 145.5 L 132.5 146 L 131 144.5 L 131.5 137 Z "></path><path fill="rgb(223,223,225)" stroke="rgb(223,223,225)" stroke-width="1" opacity="0.996078431372549" d="M 147.5 137 L 148 145 L 156 145.5 L 148.5 146 L 147 144.5 L 147.5 137 Z "></path><path fill="rgb(223,223,225)" stroke="rgb(223,223,225)" stroke-width="1" opacity="0.996078431372549" d="M 179 137 L 188 137 L 188 146 L 180.5 146 L 179 144.5 L 179 137 Z "></path><path fill="rgb(223,223,225)" stroke="rgb(223,223,225)" stroke-width="1" opacity="0.996078431372549" d="M 195 137 L 204 137 L 204 146 L 196.5 146 L 195 144.5 L 195 137 Z M 198 139 L 198 143 Q 203 145 202 141 L 198 139 Z "></path><path fill="rgb(223,223,225)" stroke="rgb(223,223,225)" stroke-width="1" opacity="0.996078431372549" d="M 164 138 L 171 138 L 171 145 L 164 145 L 164 138 Z "></path><path fill="rgb(223,223,225)" stroke="rgb(223,223,225)" stroke-width="1" opacity="0.996078431372549" d="M 227.5 140 L 228 142.5 L 227 142.5 L 227.5 140 Z "></path><path fill="rgb(68,180,213)" stroke="rgb(68,180,213)" stroke-width="1" opacity="1" d="M 158.5 37 Q 176.8 35.7 184 45.5 L 185.5 48 L 186.5 44 L 187 66 L 228 66 L 228 41 L 188 40.5 L 227.5 40 L 229 41.5 L 229 65.5 L 227.5 67 L 192 67 Q 191 77.5 186 84 L 176.5 91 L 168 93 L 163 64.5 L 144 45.5 Q 148.8 38.8 158.5 37 Z "></path><path fill="rgb(68,180,213)" stroke="rgb(68,180,213)" stroke-width="1" opacity="1" d="M 188.5 42 L 189 53.5 L 191 57.5 L 192 64.5 L 189.5 65 L 188 63.5 L 188.5 42 Z "></path><path fill="rgb(68,180,213)" stroke="rgb(68,180,213)" stroke-width="1" opacity="1" d="M 192.5 42 L 224 42.5 L 192.5 43 L 192.5 42 Z "></path><path fill="rgb(68,180,213)" stroke="rgb(68,180,213)" stroke-width="1" opacity="1" d="M 196.5 48 L 199 48.5 L 196 49.5 L 212 50.5 L 196.5 51 Q 193.5 49.5 196.5 48 Z "></path><path fill="rgb(68,180,213)" stroke="rgb(68,180,213)" stroke-width="1" opacity="1" d="M 196.5 52 L 199 52.5 L 196 53.5 L 212 54.5 L 196.5 55 Q 193.5 53.5 196.5 52 Z "></path><path fill="rgb(68,180,213)" stroke="rgb(68,180,213)" stroke-width="1" opacity="1" d="M 204.5 56 L 208 56.5 L 204.5 57 L 204.5 56 Z "></path><path fill="rgb(68,180,213)" stroke="rgb(68,180,213)" stroke-width="1" opacity="1" d="M 200.5 58 L 212 58.5 L 200.5 59 L 200.5 58 Z "></path><path fill="rgb(68,180,213)" stroke="rgb(68,180,213)" stroke-width="1" opacity="1" d="M 195.5 64 L 226 64.5 L 195.5 65 L 195.5 64 Z "></path><path fill="rgb(68,180,213)" stroke="rgb(68,180,213)" stroke-width="1" opacity="1" d="M 215.5 73 L 219 75.5 Q 217.5 81 220 82.5 L 217.5 83 L 215.5 81 L 214 82.5 L 212.5 85 L 213 83.5 L 212 75.5 L 215.5 73 Z "></path><path fill="rgb(68,180,213)" stroke="rgb(68,180,213)" stroke-width="1" opacity="1" d="M 141.5 80 L 142 81.5 L 141.5 84 Q 139.3 84.8 140 82.5 L 141.5 80 Z "></path><path fill="rgb(68,180,213)" stroke="rgb(68,180,213)" stroke-width="1" opacity="1" d="M 148.5 82 L 151 83.5 L 150.5 85 L 150 83 L 148.5 82 Z "></path><path fill="rgb(68,180,213)" stroke="rgb(68,180,213)" stroke-width="1" opacity="1" d="M 186.5 87 L 186 88.5 L 190.5 93 L 192 92.5 L 191 96 L 189 95.5 L 190 93.5 L 184 88.5 L 186.5 87 Z "></path><path fill="rgb(68,180,213)" stroke="rgb(68,180,213)" stroke-width="1" opacity="1" d="M 222.5 87 L 227 89.5 Q 228 95 224.5 96 Q 220 96.5 219.5 93 L 211 93 L 211.5 91 Q 213.3 93.8 219.5 92 Q 217.7 89.5 222.5 87 Z "></path><path fill="rgb(68,180,213)" stroke="rgb(68,180,213)" stroke-width="1" opacity="1" d="M 146.5 101 L 145.5 103 L 144 102.5 L 146.5 101 Z "></path><path fill="rgb(68,180,213)" stroke="rgb(68,180,213)" stroke-width="1" opacity="1" d="M 168.5 106 L 169 128.5 Q 167.5 131.5 166 128.5 L 166.5 116 L 167.5 129 L 168.5 106 Z "></path><path fill="rgb(68,180,213)" stroke="rgb(68,180,213)" stroke-width="1" opacity="1" d="M 170.5 109 L 171.5 129 L 172.5 110 L 173 128.5 Q 171.5 131.5 170 128.5 L 170.5 109 Z "></path><path fill="rgb(68,180,213)" stroke="rgb(68,180,213)" stroke-width="1" opacity="1" d="M 174.5 113 L 175.5 129 L 176.5 114 L 177 128.5 Q 175.5 131.5 174 128.5 L 174.5 113 Z "></path><path fill="rgb(68,180,213)" stroke="rgb(68,180,213)" stroke-width="1" opacity="1" d="M 138.5 117 L 139 119.5 L 138 119.5 L 138.5 117 Z "></path><path fill="rgb(68,180,213)" stroke="rgb(68,180,213)" stroke-width="1" opacity="1" d="M 164.5 117 L 165 128.5 Q 163.5 131.5 162 128.5 L 162.5 124 L 163.5 129 L 164.5 117 Z "></path><path fill="rgb(68,180,213)" stroke="rgb(68,180,213)" stroke-width="1" opacity="1" d="M 140.5 118 L 141 128.5 Q 139.5 131.5 138 128.5 L 140 128.5 L 140.5 118 Z "></path><path fill="rgb(68,180,213)" stroke="rgb(68,180,213)" stroke-width="1" opacity="1" d="M 184.5 118 L 185 128.5 Q 183.5 131.5 182 128.5 L 182.5 120 L 183.5 129 L 184.5 118 Z "></path><path fill="rgb(68,180,213)" stroke="rgb(68,180,213)" stroke-width="1" opacity="1" d="M 130.5 121 L 131 123.5 L 130 123.5 L 130.5 121 Z "></path><path fill="rgb(68,180,213)" stroke="rgb(68,180,213)" stroke-width="1" opacity="1" d="M 142.5 121 L 143.5 129 L 144.5 122 L 145 128.5 Q 143.5 131.5 142 128.5 L 142.5 121 Z "></path><path fill="rgb(68,180,213)" stroke="rgb(68,180,213)" stroke-width="1" opacity="1" d="M 178.5 121 L 179.5 129 L 180.5 121 L 181 128.5 Q 179.5 131.5 178 128.5 L 178.5 121 Z "></path><path fill="rgb(68,180,213)" stroke="rgb(68,180,213)" stroke-width="1" opacity="1" d="M 186.5 121 L 187.5 129 L 188.5 122 L 189 128.5 Q 187.5 131.5 186 128.5 L 186.5 121 Z "></path><path fill="rgb(68,180,213)" stroke="rgb(68,180,213)" stroke-width="1" opacity="1" d="M 202.5 121 L 203.5 129 L 204.5 122 L 205 128.5 Q 203.5 131.5 202 128.5 L 202.5 121 Z "></path><path fill="rgb(68,180,213)" stroke="rgb(68,180,213)" stroke-width="1" opacity="1" d="M 132.5 122 L 133 128.5 Q 131.5 131.5 130 128.5 L 132 128.5 L 132.5 122 Z "></path><path fill="rgb(68,180,213)" stroke="rgb(68,180,213)" stroke-width="1" opacity="1" d="M 152.5 122 L 153 128.5 Q 151.5 131.5 150 128.5 L 152 128.5 L 152.5 122 Z "></path><path fill="rgb(68,180,213)" stroke="rgb(68,180,213)" stroke-width="1" opacity="1" d="M 191.5 123 L 191 124.5 L 191.5 129 L 193 128.5 Q 191.5 131.5 190 128.5 Q 189 124 191.5 123 Z "></path><path fill="rgb(68,180,213)" stroke="rgb(68,180,213)" stroke-width="1" opacity="1" d="M 160.5 124 L 161 128.5 Q 159.5 131.5 158 128.5 L 160 128.5 L 160.5 124 Z "></path><path fill="rgb(68,180,213)" stroke="rgb(68,180,213)" stroke-width="1" opacity="1" d="M 134.5 125 L 135.5 129 L 137 128.5 Q 135.5 131.5 134 128.5 L 134.5 125 Z "></path><path fill="rgb(68,180,213)" stroke="rgb(68,180,213)" stroke-width="1" opacity="1" d="M 146.5 125 L 147.5 129 L 149 128.5 Q 147.5 131.5 146 128.5 L 146.5 125 Z "></path><path fill="rgb(68,180,213)" stroke="rgb(68,180,213)" stroke-width="1" opacity="1" d="M 154.5 125 L 155.5 129 L 157 128.5 Q 155.5 131.5 154 128.5 L 154.5 125 Z "></path><path fill="rgb(68,180,213)" stroke="rgb(68,180,213)" stroke-width="1" opacity="1" d="M 200.5 126 L 201 128.5 Q 199.5 131.5 198 128.5 L 200 128.5 L 200.5 126 Z "></path><path fill="rgb(68,180,213)" stroke="rgb(68,180,213)" stroke-width="1" opacity="1" d="M 194.5 128 L 197 128.5 Q 194.9 131.8 194.5 128 Z "></path><path fill="rgb(68,180,213)" stroke="rgb(68,180,213)" stroke-width="1" opacity="1" d="M 132 137 L 138.5 137 L 140 138.5 L 140 145 L 132 145 L 132 137 Z "></path><path fill="rgb(68,180,213)" stroke="rgb(68,180,213)" stroke-width="1" opacity="1" d="M 148 137 Q 154.1 135.3 156 138.5 L 156 145 L 148 145 L 148 137 Z "></path><path fill="rgb(68,180,213)" stroke="rgb(68,180,213)" stroke-width="1" opacity="1" d="M 223.5 137 L 227 139.5 Q 228 144 225.5 145 Q 221 146 220 143.5 Q 219 139 221.5 138 L 223.5 137 Z "></path><path fill="rgb(254,254,254)" stroke="rgb(254,254,254)" stroke-width="1" opacity="1" d="M 176.5 33 L 178.5 34 L 180.5 33 L 180.5 35 L 184 34 L 183.5 36 L 181.5 36 Q 176.5 35.9 176.5 33 Z "></path><path fill="rgb(254,254,254)" stroke="rgb(254,254,254)" stroke-width="1" opacity="1" d="M 197.5 68 L 200 68.5 L 197.5 69 L 197.5 68 Z "></path><path fill="rgb(254,254,254)" stroke="rgb(254,254,254)" stroke-width="1" opacity="1" d="M 204.5 68 L 208 68.5 L 204.5 69 L 204.5 68 Z "></path><path fill="rgb(254,254,254)" stroke="rgb(254,254,254)" stroke-width="1" opacity="1" d="M 212.5 68 L 228 68.5 L 212.5 69 L 212.5 68 Z "></path><path fill="rgb(254,254,254)" stroke="rgb(254,254,254)" stroke-width="1" opacity="1" d="M 207.5 70 L 208 72 L 206 71.5 L 207.5 70 Z "></path><path fill="rgb(254,254,254)" stroke="rgb(254,254,254)" stroke-width="1" opacity="1" d="M 218.5 71 L 220.5 72 L 222.5 71 L 225 71.5 L 222 72.5 Q 221.3 74.8 223.5 74 L 222.5 76 L 221 75.5 L 220.5 79 L 220 75.5 L 221 73.5 L 218.5 71 Z "></path><path fill="rgb(254,254,254)" stroke="rgb(254,254,254)" stroke-width="1" opacity="1" d="M 130.5 76 L 131 77.5 L 130.5 80 Q 127.7 78.8 130 77.5 L 130.5 76 Z "></path><path fill="rgb(254,254,254)" stroke="rgb(254,254,254)" stroke-width="1" opacity="1" d="M 130.5 81 Q 133.5 82.5 130.5 84 L 129 83.5 L 131 82.5 L 130.5 81 Z "></path><path fill="rgb(254,254,254)" stroke="rgb(254,254,254)" stroke-width="1" opacity="1" d="M 228 93 L 231 93.5 L 230.5 96 L 228 95.5 L 228 93 Z "></path><path fill="rgb(254,254,254)" stroke="rgb(254,254,254)" stroke-width="1" opacity="1" d="M 143.5 95 L 147 97.5 L 141.5 100 L 139 96.5 L 140 96.5 L 141.5 99 L 145 97.5 L 143.5 95 Z "></path><path fill="rgb(254,254,254)" stroke="rgb(254,254,254)" stroke-width="1" opacity="1" d="M 204.5 96 L 205.5 98 L 204.5 96 Z "></path><path fill="rgb(254,254,254)" stroke="rgb(254,254,254)" stroke-width="1" opacity="1" d="M 131.5 100 L 133.5 101 L 135 100.5 Q 135.8 102.8 133.5 102 L 132 102.5 L 132.5 101 L 131.5 100 Z "></path><path fill="rgb(254,254,254)" stroke="rgb(254,254,254)" stroke-width="1" opacity="1" d="M 148 100 L 152 100.5 L 151.5 103 Q 149.3 103.8 150 101.5 L 148 101.5 L 148 100 Z "></path><path fill="rgb(254,254,254)" stroke="rgb(254,254,254)" stroke-width="1" opacity="1" d="M 153.5 100 L 154.5 102 Q 151.7 102.7 153.5 100 Z "></path><path fill="rgb(254,254,254)" stroke="rgb(254,254,254)" stroke-width="1" opacity="1" d="M 162 103 L 164 103.5 L 162 104.5 L 162 103 Z "></path><path fill="rgb(254,254,254)" stroke="rgb(254,254,254)" stroke-width="1" opacity="1" d="M 186.5 105 L 187.5 107 L 186.5 105 Z "></path><path fill="rgb(254,254,254)" stroke="rgb(254,254,254)" stroke-width="1" opacity="1" d="M 178.5 109 Q 180.8 108.3 180 110.5 L 178 111.5 L 178.5 109 Z "></path><path fill="rgb(254,254,254)" stroke="rgb(254,254,254)" stroke-width="1" opacity="1" d="M 216 109 L 219 110.5 L 216 110.5 L 216 109 Z "></path><path fill="rgb(254,254,254)" stroke="rgb(254,254,254)" stroke-width="1" opacity="1" d="M 220.5 112 L 222 114.5 L 220 113.5 L 220.5 112 Z "></path><path fill="rgb(254,254,254)" stroke="rgb(254,254,254)" stroke-width="1" opacity="1" d="M 187.5 114 Q 189.8 118.3 192 116.5 L 190.5 120 L 188 118.5 L 190 117.5 L 188 117 L 187.5 114 Z "></path><path fill="rgb(254,254,254)" stroke="rgb(254,254,254)" stroke-width="1" opacity="1" d="M 202.5 114 L 202 115.5 L 201.5 117 L 201 115.5 L 202.5 114 Z "></path><path fill="rgb(254,254,254)" stroke="rgb(254,254,254)" stroke-width="1" opacity="1" d="M 148.5 116 L 150.5 117 L 152 116.5 L 152.5 118 L 156.5 117 L 158 117.5 L 158.5 116 Q 161.5 117.5 158.5 119 L 156.5 120 L 152.5 120 L 148 118 L 148.5 116 Z "></path><path fill="rgb(254,254,254)" stroke="rgb(254,254,254)" stroke-width="1" opacity="1" d="M 224 116 L 226 116.5 L 224 117.5 L 224 116 Z "></path><path fill="rgb(254,254,254)" stroke="rgb(254,254,254)" stroke-width="1" opacity="1" d="M 200 118 L 202 118.5 L 200 119.5 L 200 118 Z "></path><path fill="rgb(254,254,254)" stroke="rgb(254,254,254)" stroke-width="1" opacity="1" d="M 226.5 119 L 229 120.5 L 228.5 123 L 228 120 L 226.5 119 Z "></path><path fill="rgb(254,254,254)" stroke="rgb(254,254,254)" stroke-width="1" opacity="1" d="M 230.5 128 L 231 130 L 229 129.5 L 230.5 128 Z "></path><path fill="rgb(254,254,254)" stroke="rgb(254,254,254)" stroke-width="1" opacity="1" d="M 229.5 131 L 227.5 134 L 226 133.5 L 229.5 131 Z "></path><path fill="rgb(254,254,254)" stroke="rgb(254,254,254)" stroke-width="1" opacity="1" d="M 130 132 L 132 132.5 L 130 133.5 L 130 132 Z "></path><path fill="rgb(254,254,254)" stroke="rgb(254,254,254)" stroke-width="1" opacity="1" d="M 149.5 132 L 150.5 134 L 151.5 132 L 152 133.5 L 147.5 136 L 146 134.5 L 149 133.5 L 149.5 132 Z "></path><path fill="rgb(254,254,254)" stroke="rgb(254,254,254)" stroke-width="1" opacity="1" d="M 156 132 L 159 133.5 L 156 133.5 L 156 132 Z "></path><path fill="rgb(254,254,254)" stroke="rgb(254,254,254)" stroke-width="1" opacity="1" d="M 169.5 132 L 172.5 136 L 169.5 134 Q 167.8 137.8 166 134.5 L 169 133.5 L 169.5 132 Z "></path><path fill="rgb(254,254,254)" stroke="rgb(254,254,254)" stroke-width="1" opacity="1" d="M 176.5 132 L 178 132.5 L 176 133 L 174.5 136 L 175 134.5 L 176.5 132 Z "></path><path fill="rgb(254,254,254)" stroke="rgb(254,254,254)" stroke-width="1" opacity="1" d="M 181.5 132 L 182.5 134 L 184 133.5 Q 184.8 135.8 182.5 135 L 180.5 135 L 179 134.5 L 181 134 L 181.5 132 Z "></path><path fill="rgb(254,254,254)" stroke="rgb(254,254,254)" stroke-width="1" opacity="1" d="M 188.5 132 Q 190.8 131.3 190 133.5 L 188.5 132 Z "></path><path fill="rgb(254,254,254)" stroke="rgb(254,254,254)" stroke-width="1" opacity="1" d="M 194.5 132 Q 196.8 131.3 196 133.5 L 197 133.5 L 197.5 132 L 198 133.5 L 196.5 135 L 193.5 134 L 192 133.5 L 194.5 132 Z "></path><path fill="rgb(254,254,254)" stroke="rgb(254,254,254)" stroke-width="1" opacity="1" d="M 201.5 132 L 203.5 135 L 201.5 134 Q 200.3 136.3 199 133.5 L 201 133.5 L 201.5 132 Z "></path><path fill="rgb(254,254,254)" stroke="rgb(254,254,254)" stroke-width="1" opacity="1" d="M 139.5 134 L 142 137.5 L 140 138 L 139.5 134 Z "></path><path fill="rgb(254,254,254)" stroke="rgb(254,254,254)" stroke-width="1" opacity="1" d="M 144.5 134 L 145 135.5 L 143 136.5 L 144.5 134 Z "></path><path fill="rgb(254,254,254)" stroke="rgb(254,254,254)" stroke-width="1" opacity="1" d="M 229.5 134 L 231 134.5 L 226.5 136 L 226.5 135 L 229.5 134 Z "></path><path fill="rgb(254,254,254)" stroke="rgb(254,254,254)" stroke-width="1" opacity="1" d="M 158 135 L 160 135.5 L 159 138.5 L 158.5 140 L 158 135 Z "></path><path fill="rgb(254,254,254)" stroke="rgb(254,254,254)" stroke-width="1" opacity="1" d="M 218.5 137 L 219.5 139 L 218.5 137 Z "></path><path fill="rgb(254,254,254)" stroke="rgb(254,254,254)" stroke-width="1" opacity="1" d="M 140.5 139 L 142 141.5 L 141.5 143 L 144 144.5 L 141.5 145 L 140 142.5 L 140 140.5 L 140.5 139 Z "></path><path fill="rgb(254,254,254)" stroke="rgb(254,254,254)" stroke-width="1" opacity="1" d="M 173.5 140 L 173 141.5 L 174 145 Q 170.7 146.3 172 141.5 L 173.5 140 Z "></path><path fill="rgb(254,254,254)" stroke="rgb(254,254,254)" stroke-width="1" opacity="1" d="M 228.5 140 L 230.5 141 L 232 140.5 L 228.5 143 L 228.5 140 Z "></path><path fill="rgb(254,254,254)" stroke="rgb(254,254,254)" stroke-width="1" opacity="1" d="M 157.5 144 Q 162.1 142.8 160 148 L 158 147.5 Q 160.3 146.2 157.5 145 L 156 145.5 L 157.5 144 Z "></path><path fill="rgb(254,254,254)" stroke="rgb(254,254,254)" stroke-width="1" opacity="1" d="M 218.5 144 L 220 147.5 L 218 146.5 L 218.5 144 Z "></path><path fill="rgb(255,255,255)" stroke="rgb(255,255,255)" stroke-width="1" opacity="1" d="M 3.5 1 L 356.5 1 L 359 3.5 L 359 251.5 L 356.5 254 L 3.5 254 L 1 251.5 L 1 3.5 L 3.5 1 Z M 159 33 L 149 36 L 145 39 L 140 39 L 140 43 Q 135 47 133 56 L 130 58 L 132 58 L 131 60 Q 130 72 134 79 Q 135 81 132 80 L 131 83 L 135 84 L 137 84 Q 139 83 138 86 Q 142 93 152 95 L 152 96 Q 146 94 148 100 Q 144 99 143 102 L 145 104 Q 149 105 148 102 L 152 103 L 151 102 L 154 96 L 160 98 L 173 97 L 182 92 L 187 92 L 188 96 L 224 131 L 225 131 L 228 127 Q 230 128 229 125 L 194 90 L 192 91 Q 193 86 188 88 L 193 81 L 196 72 Q 195 67 197 67 L 229 67 L 229 40 L 186 40 L 186 43 L 182 38 Q 179 39 180 36 L 182 36 L 181 35 L 181 33 L 177 35 L 179 35 L 179 36 L 170 33 L 159 33 Z M 183 34 L 184 36 Q 185 33 183 34 Z M 198 68 L 198 69 L 200 69 L 198 68 Z M 205 68 L 205 69 L 208 69 L 205 68 Z M 213 68 L 213 69 L 228 69 L 213 68 Z M 208 70 L 206 72 L 208 72 L 208 70 Z M 212 71 L 211 79 L 212 80 L 208 80 L 208 87 L 204 88 L 203 94 Q 204 97 210 96 L 211 93 L 220 93 L 221 96 L 231 96 L 230 95 L 231 92 L 229 93 L 228 87 L 226 88 L 224 85 Q 223 82 222 84 L 219 81 L 221 81 L 222 75 L 223 81 L 224 81 L 224 72 L 223 74 L 222 74 L 223 72 L 222 71 L 220 75 L 218 73 Q 215 74 216 71 L 212 71 Z M 218 71 L 218 72 L 220 72 L 218 71 Z M 131 76 Q 129 79 132 78 L 131 76 Z M 131 87 L 130 90 L 133 91 Q 135 86 131 87 Z M 131 95 L 131 97 L 134 98 Q 136 94 131 95 Z M 138 96 L 137 98 Q 141 99 140 97 L 138 96 Z M 146 97 L 143 98 L 142 100 L 147 98 L 146 97 Z M 137 99 Q 134 103 138 102 Q 139 104 140 102 L 137 99 Z M 135 100 L 133 102 L 135 102 L 135 100 Z M 154 100 Q 152 103 155 102 L 154 100 Z M 228 102 Q 224 103 225 108 Q 226 110 230 109 Q 232 109 232 105 Q 232 102 228 102 Z M 162 103 Q 161 106 164 105 Q 165 102 162 103 Z M 166 105 L 166 120 L 165 120 Q 166 115 162 117 L 162 124 L 161 121 L 158 121 L 158 128 L 157 128 Q 158 123 154 125 L 154 128 L 153 121 L 150 121 L 150 128 L 149 128 Q 150 123 146 125 L 146 128 L 145 121 Q 141 119 142 124 L 141 124 L 141 117 L 138 117 L 138 128 L 137 125 Q 133 123 134 128 L 133 128 L 133 121 L 130 121 L 130 129 L 132 132 L 144 132 L 145 133 L 149 132 L 150 134 L 151 132 L 152 134 L 152 132 L 156 132 L 156 134 L 159 132 L 169 132 L 169 134 L 171 134 L 171 132 Q 175 131 177 133 L 181 132 L 182 134 L 183 132 L 183 134 L 183 135 Q 186 136 184 132 Q 189 130 188 134 Q 191 135 190 132 Q 194 131 196 134 L 197 132 L 198 134 L 198 132 L 201 132 Q 200 135 203 134 L 202 133 L 204 132 Q 206 129 205 121 L 202 121 Q 203 125 201 124 L 198 128 L 197 128 Q 198 124 194 126 L 194 128 L 193 123 L 190 124 L 189 121 Q 185 119 186 124 L 185 124 L 185 117 L 182 117 L 182 124 L 181 121 Q 177 119 178 124 L 177 124 L 177 114 L 174 113 L 174 116 L 173 109 Q 169 107 170 112 L 169 112 L 169 105 L 166 105 Z M 189 107 L 187 111 Q 189 115 191 112 Q 194 113 192 109 L 189 107 Z M 179 109 L 180 111 Q 181 108 179 109 Z M 189 115 Q 187 118 190 117 L 189 115 Z M 148 116 L 148 118 L 151 119 L 152 117 L 151 117 L 148 116 Z M 159 116 L 157 119 L 159 119 Q 162 118 159 116 Z M 192 116 L 190 120 L 192 120 L 192 116 Z M 224 116 L 224 118 L 226 117 L 224 116 Z M 154 117 L 151 120 L 153 120 L 157 118 L 154 117 Z M 229 120 L 228 123 L 229 123 L 229 120 Z M 231 128 L 229 130 L 231 130 L 231 128 Z M 130 132 L 130 134 L 132 133 L 130 132 Z M 139 134 L 137 136 L 140 136 Q 141 133 139 134 Z M 147 134 Q 145 137 148 136 L 147 134 Z M 220 134 L 218 136 L 224 137 L 222 138 L 218 137 L 219 143 L 220 144 Q 217 143 218 147 L 220 148 L 231 148 L 231 144 L 230 144 L 232 140 L 229 142 L 228 140 L 228 136 Q 232 137 231 134 L 229 135 L 221 135 L 220 134 Z M 156 135 L 156 137 L 147 137 L 147 146 L 156 146 L 156 148 L 157 148 L 156 140 L 158 139 Q 157 141 160 140 L 161 139 Q 157 137 160 136 L 156 135 Z M 141 136 L 140 137 L 131 137 L 131 146 Q 139 147 144 145 L 140 142 L 142 142 L 141 140 L 142 138 Q 143 135 141 136 Z M 144 136 L 143 140 L 144 140 L 144 136 Z M 163 137 L 163 146 Q 171 147 174 145 L 172 141 L 172 137 L 163 137 Z M 179 137 L 179 146 L 188 146 L 188 144 L 189 141 L 188 139 L 188 137 L 179 137 Z M 195 137 L 195 146 L 204 146 Q 206 145 204 144 L 204 137 L 195 137 Z M 158 144 L 159 147 L 158 148 L 160 148 Q 162 143 158 144 Z "></path><path fill="rgb(255,255,255)" stroke="rgb(255,255,255)" stroke-width="1" opacity="1" d="M 192 43 L 223.5 43 L 226 44 L 226 64 L 196 64 L 196 59 L 199.5 59 L 199 60.5 L 199.5 62 L 224 62 L 224 45 L 199 45 L 199 48 Q 193.4 46.1 195 51 L 200 51.5 L 195 52 Q 193.2 56.9 199.5 55 L 199.5 56 L 194 56 L 194 53.5 Q 190.4 50.4 192 43 Z "></path><path fill="rgb(255,255,255)" stroke="rgb(255,255,255)" stroke-width="1" opacity="1" d="M 215.5 81 L 220 87.5 L 212 88 L 212 85.5 L 215.5 81 Z "></path><path fill="rgb(255,255,255)" stroke="rgb(255,255,255)" stroke-width="1" opacity="1" d="M 193.5 93 L 226 125.5 L 224.5 127 L 192 95.5 L 193.5 93 Z M 216 109 L 216 111 L 218 110 L 216 109 Z M 221 112 L 220 114 L 222 115 L 221 112 Z M 201 117 Q 198 121 202 120 L 201 117 Z "></path><path fill="rgb(255,255,255)" stroke="rgb(255,255,255)" stroke-width="1" opacity="1" d="M 227 105 Q 230 104 229 107 Q 226 108 227 105 Z "></path><path fill="rgb(255,255,255)" stroke="rgb(255,255,255)" stroke-width="1" opacity="1" d="M 198 139 L 202 140.5 Q 203.2 145.1 198 143 L 198 139 Z "></path><path fill="rgb(22,25,26)" stroke="rgb(22,25,26)" stroke-width="1" opacity="0.9882352941176471" d="M 187 41 L 228 41 L 228 66 L 187 66 L 187 41 Z M 188 42 L 188 64 L 190 65 L 193 64 L 196 65 L 226 65 L 227 64 L 227 42 L 188 42 Z "></path><path fill="rgb(22,25,26)" stroke="rgb(22,25,26)" stroke-width="1" opacity="0.9882352941176471" d="M 199.5 48 L 210.5 48 L 212 49.5 L 196.5 50 L 196.5 49 L 199.5 48 Z "></path><path fill="rgb(22,25,26)" stroke="rgb(22,25,26)" stroke-width="1" opacity="0.9882352941176471" d="M 199.5 52 L 210.5 52 L 212 53.5 L 196.5 54 L 196.5 53 L 199.5 52 Z "></path><path fill="rgb(22,25,26)" stroke="rgb(22,25,26)" stroke-width="1" opacity="0.9882352941176471" d="M 196 56 L 198.5 57 L 200.5 56 L 202.5 57 L 204.5 57 L 210.5 56 L 211.5 58 L 196.5 58 L 196 56 Z "></path><path fill="rgb(22,25,26)" stroke="rgb(22,25,26)" stroke-width="1" opacity="0.9882352941176471" d="M 142 80 Q 145 79 144 82 Q 141 83 142 80 Z "></path><path fill="rgb(22,25,26)" stroke="rgb(22,25,26)" stroke-width="1" opacity="0.9882352941176471" d="M 213.5 81 L 213 82.5 L 211 88 L 209 87.5 L 213.5 81 Z "></path><path fill="rgb(22,25,26)" stroke="rgb(22,25,26)" stroke-width="1" opacity="0.9882352941176471" d="M 217.5 81 L 222 88 Q 219.3 89.1 220 86.5 L 217.5 81 Z "></path><path fill="rgb(22,25,26)" stroke="rgb(22,25,26)" stroke-width="1" opacity="0.9882352941176471" d="M 135 82 L 137 82.5 L 135 83.5 L 135 82 Z "></path><path fill="rgb(22,25,26)" stroke="rgb(22,25,26)" stroke-width="1" opacity="0.9882352941176471" d="M 148.5 83 Q 150.8 82.3 150 84.5 L 148.5 83 Z "></path><path fill="rgb(22,25,26)" stroke="rgb(22,25,26)" stroke-width="1" opacity="0.9882352941176471" d="M 131 88 Q 134 87 133 90 Q 130 91 131 88 Z "></path><path fill="rgb(22,25,26)" stroke="rgb(22,25,26)" stroke-width="1" opacity="0.9882352941176471" d="M 186.5 88 L 191 91.5 L 190.5 93 L 186.5 88 Z "></path><path fill="rgb(22,25,26)" stroke="rgb(22,25,26)" stroke-width="1" opacity="0.9882352941176471" d="M 152.5 89 Q 155.5 90.5 152.5 92 L 152.5 89 Z "></path><path fill="rgb(22,25,26)" stroke="rgb(22,25,26)" stroke-width="1" opacity="0.9882352941176471" d="M 212.5 91 L 220 91.5 L 212.5 92 L 212.5 91 Z "></path><path fill="rgb(22,25,26)" stroke="rgb(22,25,26)" stroke-width="1" opacity="0.9882352941176471" d="M 132.5 95 L 133.5 97 Q 130.7 97.7 132.5 95 Z "></path><path fill="rgb(22,25,26)" stroke="rgb(22,25,26)" stroke-width="1" opacity="0.9882352941176471" d="M 151.5 96 L 152 97.5 L 150 98.5 L 151.5 96 Z "></path><path fill="rgb(22,25,26)" stroke="rgb(22,25,26)" stroke-width="1" opacity="0.9882352941176471" d="M 137.5 100 L 138.5 102 Q 135.7 102.7 137.5 100 Z "></path><path fill="rgb(22,25,26)" stroke="rgb(22,25,26)" stroke-width="1" opacity="0.9882352941176471" d="M 167.5 105 L 168 128.5 L 167 128.5 L 167.5 105 Z "></path><path fill="rgb(22,25,26)" stroke="rgb(22,25,26)" stroke-width="1" opacity="0.9882352941176471" d="M 171.5 109 L 172 128.5 L 171 128.5 L 171.5 109 Z "></path><path fill="rgb(22,25,26)" stroke="rgb(22,25,26)" stroke-width="1" opacity="0.9882352941176471" d="M 175.5 113 L 176 128.5 L 175 128.5 L 175.5 113 Z "></path><path fill="rgb(22,25,26)" stroke="rgb(22,25,26)" stroke-width="1" opacity="0.9882352941176471" d="M 139.5 117 L 140 128.5 L 139 128.5 L 139.5 117 Z "></path><path fill="rgb(22,25,26)" stroke="rgb(22,25,26)" stroke-width="1" opacity="0.9882352941176471" d="M 163.5 117 L 164 128.5 L 163 128.5 L 163.5 117 Z "></path><path fill="rgb(22,25,26)" stroke="rgb(22,25,26)" stroke-width="1" opacity="0.9882352941176471" d="M 183.5 117 L 184 128.5 L 183 128.5 L 183.5 117 Z "></path><path fill="rgb(22,25,26)" stroke="rgb(22,25,26)" stroke-width="1" opacity="0.9882352941176471" d="M 131.5 121 L 132 128.5 L 131 128.5 L 131.5 121 Z "></path><path fill="rgb(22,25,26)" stroke="rgb(22,25,26)" stroke-width="1" opacity="0.9882352941176471" d="M 143.5 121 L 144 128.5 L 143 128.5 L 143.5 121 Z "></path><path fill="rgb(22,25,26)" stroke="rgb(22,25,26)" stroke-width="1" opacity="0.9882352941176471" d="M 151.5 121 L 152 128.5 L 151 128.5 L 151.5 121 Z "></path><path fill="rgb(22,25,26)" stroke="rgb(22,25,26)" stroke-width="1" opacity="0.9882352941176471" d="M 159.5 121 L 160 128.5 L 159 128.5 L 159.5 121 Z "></path><path fill="rgb(22,25,26)" stroke="rgb(22,25,26)" stroke-width="1" opacity="0.9882352941176471" d="M 179.5 121 L 180 128.5 L 179 128.5 L 179.5 121 Z "></path><path fill="rgb(22,25,26)" stroke="rgb(22,25,26)" stroke-width="1" opacity="0.9882352941176471" d="M 187.5 121 L 188 128.5 L 187 128.5 L 187.5 121 Z "></path><path fill="rgb(22,25,26)" stroke="rgb(22,25,26)" stroke-width="1" opacity="0.9882352941176471" d="M 203.5 121 L 204 128.5 L 203 128.5 L 203.5 121 Z "></path><path fill="rgb(22,25,26)" stroke="rgb(22,25,26)" stroke-width="1" opacity="0.9882352941176471" d="M 191.5 124 L 192 128.5 L 191 128.5 L 191.5 124 Z "></path><path fill="rgb(22,25,26)" stroke="rgb(22,25,26)" stroke-width="1" opacity="0.9882352941176471" d="M 135.5 125 L 136 128.5 L 135 128.5 L 135.5 125 Z "></path><path fill="rgb(22,25,26)" stroke="rgb(22,25,26)" stroke-width="1" opacity="0.9882352941176471" d="M 147.5 125 L 148 128.5 L 147 128.5 L 147.5 125 Z "></path><path fill="rgb(22,25,26)" stroke="rgb(22,25,26)" stroke-width="1" opacity="0.9882352941176471" d="M 155.5 125 L 156 128.5 L 155 128.5 L 155.5 125 Z "></path><path fill="rgb(22,25,26)" stroke="rgb(22,25,26)" stroke-width="1" opacity="0.9882352941176471" d="M 195.5 126 L 196 128.5 L 195 128.5 L 195.5 126 Z "></path><path fill="rgb(22,25,26)" stroke="rgb(22,25,26)" stroke-width="1" opacity="0.9882352941176471" d="M 199.5 126 L 200 128.5 L 199 128.5 L 199.5 126 Z "></path></svg>