<?xml version="1.0" encoding="UTF-8"?>
<!DOCTYPE svg PUBLIC "-//W3C//DTD SVG 1.1//EN" "http://www.w3.org/Graphics/SVG/1.1/DTD/svg11.dtd">
<svg xmlns="http://www.w3.org/2000/svg" version="1.1" width="360px" height="255px" style="shape-rendering:geometricPrecision; text-rendering:geometricPrecision; image-rendering:optimizeQuality; fill-rule:evenodd; clip-rule:evenodd" xmlns:xlink="http://www.w3.org/1999/xlink">
<g><path style="opacity:0.992" fill="#ebeceb" d="M 0.5,-0.5 C 119.833,-0.5 239.167,-0.5 358.5,-0.5C 358.5,0.166667 358.833,0.5 359.5,0.5C 359.5,84.8333 359.5,169.167 359.5,253.5C 358.833,253.5 358.5,253.833 358.5,254.5C 239.167,254.5 119.833,254.5 0.5,254.5C 0.5,253.833 0.166667,253.5 -0.5,253.5C -0.5,169.167 -0.5,84.8333 -0.5,0.5C 0.166667,0.5 0.5,0.166667 0.5,-0.5 Z"/></g>
<g><path style="opacity:1" fill="#fefefe" d="M 358.5,173.5 C 331.382,156.647 305.048,157.813 279.5,177C 257.131,199.083 252.131,224.583 264.5,253.5C 176.833,253.667 89.166,253.5 1.5,253C 0.166667,169 0.166667,85 1.5,1C 120.167,0.333333 238.833,0.333333 357.5,1C 358.498,58.4286 358.831,115.929 358.5,173.5 Z"/></g>
<g><path style="opacity:1" fill="#e0e4eb" d="M 192.5,49.5 C 191.167,49.5 189.833,49.5 188.5,49.5C 188.5,46.8333 188.5,44.1667 188.5,41.5C 170.833,41.5 153.167,41.5 135.5,41.5C 135.5,72.5 135.5,103.5 135.5,134.5C 153.167,134.5 170.833,134.5 188.5,134.5C 188.5,133.5 188.5,132.5 188.5,131.5C 189.376,131.631 190.043,131.298 190.5,130.5C 189.263,129.719 188.263,128.719 187.5,127.5C 188.952,126.06 189.952,124.394 190.5,122.5C 188.56,112.09 187.893,101.423 188.5,90.5C 189.833,90.5 191.167,90.5 192.5,90.5C 192.5,101.833 192.5,113.167 192.5,124.5C 192.047,125.458 191.381,126.292 190.5,127C 191.71,128.039 192.71,129.206 193.5,130.5C 192.624,130.369 191.957,130.702 191.5,131.5C 192.448,136.435 192.781,141.435 192.5,146.5C 172.167,146.5 151.833,146.5 131.5,146.5C 131.5,108.833 131.5,71.1667 131.5,33.5C 151.503,33.3334 171.503,33.5 191.5,34C 192.471,39.0717 192.805,44.2384 192.5,49.5 Z"/></g>
<g><path style="opacity:1" fill="#4d5863" d="M 155.5,37.5 C 159.884,37.1744 164.217,37.5078 168.5,38.5C 166.333,38.8333 164.167,39.1667 162,39.5C 159.39,39.4668 157.223,38.8001 155.5,37.5 Z"/></g>
<g><path style="opacity:1" fill="#46525a" d="M 213.5,37.5 C 215.337,37.6395 215.67,38.3061 214.5,39.5C 213.702,39.0431 213.369,38.3764 213.5,37.5 Z"/></g>
<g><path style="opacity:1" fill="#f5f7f8" d="M 188.5,49.5 C 182.833,49.5 177.167,49.5 171.5,49.5C 170.18,48.0582 168.514,47.3915 166.5,47.5C 166.833,48.1667 167.167,48.8333 167.5,49.5C 166.5,49.5 165.5,49.5 164.5,49.5C 164.5,56.1667 164.5,62.8333 164.5,69.5C 159.937,70.9054 156.271,69.4054 153.5,65C 154.308,64.6924 154.975,64.1924 155.5,63.5C 151.022,60.402 149.022,61.402 149.5,66.5C 150.192,65.9747 150.692,65.3081 151,64.5C 154.03,69.7024 158.53,72.0357 164.5,71.5C 164.5,77.8333 164.5,84.1667 164.5,90.5C 167.833,90.5 171.167,90.5 174.5,90.5C 174.5,87.8333 174.5,85.1667 174.5,82.5C 175.5,82.5 176.5,82.5 177.5,82.5C 177.187,85.2469 177.52,87.9135 178.5,90.5C 179.266,81.3682 180.766,72.3682 183,63.5C 188.034,55.934 194.867,53.7674 203.5,57C 213.299,64.5968 213.966,72.9301 205.5,82C 197.307,86.8938 189.974,85.7271 183.5,78.5C 182.509,82.4454 182.176,86.4454 182.5,90.5C 184.5,90.5 186.5,90.5 188.5,90.5C 187.893,101.423 188.56,112.09 190.5,122.5C 183.559,124.302 182.892,127.302 188.5,131.5C 188.5,132.5 188.5,133.5 188.5,134.5C 170.833,134.5 153.167,134.5 135.5,134.5C 135.5,103.5 135.5,72.5 135.5,41.5C 153.167,41.5 170.833,41.5 188.5,41.5C 188.5,44.1667 188.5,46.8333 188.5,49.5 Z"/></g>
<g><path style="opacity:1" fill="#77818b" d="M 208.5,40.5 C 209.776,41.3864 209.776,42.3864 208.5,43.5C 207.438,42.5754 207.438,41.5754 208.5,40.5 Z"/></g>
<g><path style="opacity:1" fill="#1d242a" d="M 166.5,47.5 C 159.689,46.5685 155.022,49.2352 152.5,55.5C 150.302,55.5912 149.969,54.9245 151.5,53.5C 154.689,46.8227 159.689,44.8227 166.5,47.5 Z"/></g>
<g><path style="opacity:1" fill="#29363f" d="M 208.5,49.5 C 207.833,49.5 207.167,49.5 206.5,49.5C 207.167,46.8333 207.833,46.8333 208.5,49.5 Z"/></g>
<g><path style="opacity:1" fill="#6c7981" d="M 222.5,45.5 C 224.465,45.9483 224.798,46.9483 223.5,48.5C 222.614,47.675 222.281,46.675 222.5,45.5 Z"/></g>
<g><path style="opacity:1" fill="#101b23" d="M 166.5,47.5 C 168.514,47.3915 170.18,48.0582 171.5,49.5C 172.392,51.9457 173.892,52.6123 176,51.5C 175.981,53.1075 175.815,54.7741 175.5,56.5C 173.304,56.4348 171.304,55.7681 169.5,54.5C 170.603,54.0024 171.603,53.6691 172.5,53.5C 171.395,51.3886 169.729,50.0553 167.5,49.5C 167.167,48.8333 166.833,48.1667 166.5,47.5 Z"/></g>
<g><path style="opacity:1" fill="#3cc6fe" d="M 208.5,49.5 C 215.167,49.5 221.833,49.5 228.5,49.5C 228.5,63.1667 228.5,76.8333 228.5,90.5C 220.167,90.5 211.833,90.5 203.5,90.5C 211.316,89.5076 219.316,89.1743 227.5,89.5C 227.5,76.5 227.5,63.5 227.5,50.5C 220.978,50.8235 214.645,50.4902 208.5,49.5 Z"/></g>
<g><path style="opacity:1" fill="#d0d6db" d="M 151.5,53.5 C 149.969,54.9245 150.302,55.5912 152.5,55.5C 153.007,56.8589 154.007,57.8589 155.5,58.5C 150.5,59.8333 145.5,59.8333 140.5,58.5C 143.5,57.8333 146.5,57.1667 149.5,56.5C 146.167,55.8333 142.833,55.1667 139.5,54.5C 143.445,53.5091 147.445,53.1758 151.5,53.5 Z"/></g>
<g><path style="opacity:1" fill="#12a4d3" d="M 167.5,49.5 C 169.729,50.0553 171.395,51.3886 172.5,53.5C 171.603,53.6691 170.603,54.0024 169.5,54.5C 171.304,55.7681 173.304,56.4348 175.5,56.5C 175.815,54.7741 175.981,53.1075 176,51.5C 173.892,52.6123 172.392,51.9457 171.5,49.5C 177.167,49.5 182.833,49.5 188.5,49.5C 189.833,49.5 191.167,49.5 192.5,49.5C 197.167,49.5 201.833,49.5 206.5,49.5C 207.167,49.5 207.833,49.5 208.5,49.5C 214.645,50.4902 220.978,50.8235 227.5,50.5C 227.5,63.5 227.5,76.5 227.5,89.5C 219.316,89.1743 211.316,89.5076 203.5,90.5C 201.5,92.8333 199.5,95.1667 197.5,97.5C 195.656,95.7211 194.99,93.3878 195.5,90.5C 194.5,90.5 193.5,90.5 192.5,90.5C 191.167,90.5 189.833,90.5 188.5,90.5C 186.5,90.5 184.5,90.5 182.5,90.5C 182.176,86.4454 182.509,82.4454 183.5,78.5C 189.974,85.7271 197.307,86.8938 205.5,82C 213.966,72.9301 213.299,64.5968 203.5,57C 194.867,53.7674 188.034,55.934 183,63.5C 180.766,72.3682 179.266,81.3682 178.5,90.5C 177.52,87.9135 177.187,85.2469 177.5,82.5C 176.5,82.5 175.5,82.5 174.5,82.5C 174.5,85.1667 174.5,87.8333 174.5,90.5C 171.167,90.5 167.833,90.5 164.5,90.5C 164.5,84.1667 164.5,77.8333 164.5,71.5C 169.898,70.5972 173.065,67.5972 174,62.5C 172.043,66.6427 168.876,68.9761 164.5,69.5C 164.5,62.8333 164.5,56.1667 164.5,49.5C 165.5,49.5 166.5,49.5 167.5,49.5 Z"/></g>
<g><path style="opacity:1" fill="#01293d" d="M 211.5,52.5 C 213.337,52.6395 213.67,53.3061 212.5,54.5C 211.702,54.0431 211.369,53.3764 211.5,52.5 Z"/></g>
<g><path style="opacity:1" fill="#161f26" d="M 164.5,69.5 C 168.876,68.9761 172.043,66.6427 174,62.5C 173.065,67.5972 169.898,70.5972 164.5,71.5C 158.53,72.0357 154.03,69.7024 151,64.5C 150.692,65.3081 150.192,65.9747 149.5,66.5C 149.022,61.402 151.022,60.402 155.5,63.5C 154.975,64.1924 154.308,64.6924 153.5,65C 156.271,69.4054 159.937,70.9054 164.5,69.5 Z"/></g>
<g><path style="opacity:1" fill="#232c33" d="M 195.5,59.5 C 197.863,61.0389 199.863,63.0389 201.5,65.5C 201.167,65.8333 200.833,66.1667 200.5,66.5C 198.992,63.5824 196.825,62.9157 194,64.5C 193.333,65.8333 193.333,67.1667 194,68.5C 197.989,68.7334 200.489,70.7334 201.5,74.5C 200.158,77.0225 198.491,79.3558 196.5,81.5C 195.062,79.2882 193.395,77.2882 191.5,75.5C 191.833,75.1667 192.167,74.8333 192.5,74.5C 194.008,77.4176 196.175,78.0843 199,76.5C 200.137,72.63 198.637,70.7967 194.5,71C 192.99,69.6487 191.99,67.982 191.5,66C 192.708,63.654 194.041,61.4873 195.5,59.5 Z"/></g>
<g><path style="opacity:1" fill="#d1d7dc" d="M 151.5,85.5 C 152.833,85.5 154.167,85.5 155.5,85.5C 155.5,89.8333 155.5,94.1667 155.5,98.5C 152.167,98.5 148.833,98.5 145.5,98.5C 145.5,95.8333 145.5,93.1667 145.5,90.5C 147.167,90.5 148.833,90.5 150.5,90.5C 150.366,88.7085 150.699,87.0418 151.5,85.5 Z"/></g>
<g><path style="opacity:1" fill="#f1f8fc" d="M 192.5,90.5 C 193.5,90.5 194.5,90.5 195.5,90.5C 194.99,93.3878 195.656,95.7211 197.5,97.5C 198.136,99.7946 199.469,101.461 201.5,102.5C 200.781,104.764 200.448,107.097 200.5,109.5C 201.675,109.719 202.675,109.386 203.5,108.5C 203.994,106.974 204.661,105.641 205.5,104.5C 205.167,103.833 204.833,103.167 204.5,102.5C 206.134,101.793 207.468,100.627 208.5,99C 208.272,98.6012 207.938,98.4346 207.5,98.5C 206.697,97.5768 206.53,96.5768 207,95.5C 209.05,97.8594 211.217,99.1928 213.5,99.5C 212.549,100.919 212.216,102.585 212.5,104.5C 213.5,104.5 214.5,104.5 215.5,104.5C 215.91,101.569 217.244,100.903 219.5,102.5C 219.15,104.626 219.15,106.959 219.5,109.5C 221.167,109.5 222.833,109.5 224.5,109.5C 224.5,109.833 224.5,110.167 224.5,110.5C 222.833,110.5 221.167,110.5 219.5,110.5C 219.167,115.833 218.833,115.833 218.5,110.5C 216.5,110.5 214.5,110.5 212.5,110.5C 212.227,112.451 212.893,113.951 214.5,115C 212.808,116.401 212.141,118.234 212.5,120.5C 212.167,120.5 211.833,120.5 211.5,120.5C 211.923,118.219 211.256,116.552 209.5,115.5C 208.909,116.151 208.243,116.818 207.5,117.5C 208.193,118.518 208.859,119.518 209.5,120.5C 206.046,120.964 202.546,121.297 199,121.5C 197.183,126.68 198.683,130.847 203.5,134C 202,135.5 200.5,137 199,138.5C 198.667,136.953 199.167,135.62 200.5,134.5C 199.717,132.712 198.384,131.712 196.5,131.5C 196.141,129.629 195.141,128.129 193.5,127C 197.628,122.988 197.295,122.155 192.5,124.5C 192.5,113.167 192.5,101.833 192.5,90.5 Z"/></g>
<g><path style="opacity:1" fill="#4fcfee" d="M 207.5,98.5 C 207.938,98.4346 208.272,98.6012 208.5,99C 207.468,100.627 206.134,101.793 204.5,102.5C 204.468,100.381 205.468,99.0478 207.5,98.5 Z"/></g>
<g><path style="opacity:1" fill="#49c5e5" d="M 219.5,102.5 C 217.244,100.903 215.91,101.569 215.5,104.5C 214.5,104.5 213.5,104.5 212.5,104.5C 212.216,102.585 212.549,100.919 213.5,99.5C 214.787,100.768 215.787,100.435 216.5,98.5C 218.55,99.0766 219.55,100.41 219.5,102.5 Z"/></g>
<g><path style="opacity:1" fill="#29b2d7" d="M 201.5,102.5 C 202.5,102.5 203.5,102.5 204.5,102.5C 204.833,103.167 205.167,103.833 205.5,104.5C 204.661,105.641 203.994,106.974 203.5,108.5C 202.675,109.386 201.675,109.719 200.5,109.5C 200.448,107.097 200.781,104.764 201.5,102.5 Z"/></g>
<g><path style="opacity:1" fill="#14add1" d="M 215.5,104.5 C 220.011,108.443 219.011,110.109 212.5,109.5C 212.5,108.167 212.5,106.833 212.5,105.5C 213.791,105.737 214.791,105.404 215.5,104.5 Z"/></g>
<g><path style="opacity:1" fill="#1eaad1" d="M 219.5,102.5 C 222.76,103.486 224.427,105.819 224.5,109.5C 222.833,109.5 221.167,109.5 219.5,109.5C 219.15,106.959 219.15,104.626 219.5,102.5 Z"/></g>
<g><path style="opacity:1" fill="#525e68" d="M 139.5,105.5 C 141.5,105.5 143.5,105.5 145.5,105.5C 145.5,106.833 145.5,108.167 145.5,109.5C 143.5,109.5 141.5,109.5 139.5,109.5C 139.5,108.167 139.5,106.833 139.5,105.5 Z"/></g>
<g><path style="opacity:1" fill="#1dabd4" d="M 205.5,104.5 C 207,102.816 208.667,101.149 210.5,99.5C 211.452,101.045 211.785,102.712 211.5,104.5C 207.5,104.833 207.5,105.167 211.5,105.5C 211.5,106.833 211.5,108.167 211.5,109.5C 209.5,109.5 207.5,109.5 205.5,109.5C 205.5,107.833 205.5,106.167 205.5,104.5 Z"/></g>
<g><path style="opacity:1" fill="#32424f" d="M 153.5,107.5 C 155.388,109.988 156.055,112.988 155.5,116.5C 153.612,114.012 152.945,111.012 153.5,107.5 Z"/></g>
<g><path style="opacity:1" fill="#0bb9e2" d="M 169.5,109.5 C 170.725,110.152 171.392,111.319 171.5,113C 171.167,114.167 170.833,115.333 170.5,116.5C 169.526,114.257 169.192,111.924 169.5,109.5 Z"/></g>
<g><path style="opacity:1" fill="#07bde5" d="M 177.5,109.5 C 178.725,110.152 179.392,111.319 179.5,113C 179.167,114.167 178.833,115.333 178.5,116.5C 177.526,114.257 177.192,111.924 177.5,109.5 Z"/></g>
<g><path style="opacity:1" fill="#1eadd3" d="M 209.5,115.5 C 208.167,115.5 206.833,115.5 205.5,115.5C 205.5,113.833 205.5,112.167 205.5,110.5C 207.5,110.5 209.5,110.5 211.5,110.5C 211.635,112.554 210.968,114.221 209.5,115.5 Z"/></g>
<g><path style="opacity:1" fill="#344350" d="M 157.5,110.5 C 158.693,110.97 159.36,111.97 159.5,113.5C 159.167,114.5 158.833,115.5 158.5,116.5C 157.534,114.604 157.201,112.604 157.5,110.5 Z"/></g>
<g><path style="opacity:1" fill="#0bb0dc" d="M 173.5,104.5 C 174.794,106.048 175.461,108.048 175.5,110.5C 175.167,112.5 174.833,114.5 174.5,116.5C 173.509,112.555 173.176,108.555 173.5,104.5 Z"/></g>
<g><path style="opacity:1" fill="#1db1df" d="M 181.5,111.5 C 182.649,111.791 183.316,112.624 183.5,114C 183.167,114.833 182.833,115.667 182.5,116.5C 181.548,114.955 181.215,113.288 181.5,111.5 Z"/></g>
<g><path style="opacity:1" fill="#31404d" d="M 165.5,110.5 C 166.693,110.97 167.36,111.97 167.5,113.5C 167.167,114.5 166.833,115.5 166.5,116.5C 165.534,114.604 165.201,112.604 165.5,110.5 Z"/></g>
<g><path style="opacity:1" fill="#dee3ea" d="M 153.5,107.5 C 152.945,111.012 153.612,114.012 155.5,116.5C 155.082,117.222 154.416,117.722 153.5,118C 157.094,127.419 153.761,131.086 143.5,129C 140.098,125.281 139.598,121.114 142,116.5C 144.924,115.35 147.757,114.016 150.5,112.5C 151.251,113.376 151.751,114.376 152,115.5C 152.183,112.635 152.683,109.969 153.5,107.5 Z"/></g>
<g><path style="opacity:1" fill="#364652" d="M 161.5,113.5 C 163.465,113.948 163.798,114.948 162.5,116.5C 161.614,115.675 161.281,114.675 161.5,113.5 Z"/></g>
<g><path style="opacity:1" fill="#27b3d9" d="M 205.5,115.5 C 204.878,116.627 204.045,117.627 203,118.5C 201.097,116.559 200.264,114.226 200.5,111.5C 201.675,111.281 202.675,111.614 203.5,112.5C 203.942,113.739 204.609,114.739 205.5,115.5 Z"/></g>
<g><path style="opacity:1" fill="#3dbcde" d="M 224.5,110.5 C 224.493,116.725 221.993,118.392 217,115.5C 216.5,115.667 216,115.833 215.5,116C 216.252,116.671 216.586,117.504 216.5,118.5C 215.395,119.6 214.062,120.267 212.5,120.5C 212.141,118.234 212.808,116.401 214.5,115C 212.893,113.951 212.227,112.451 212.5,110.5C 214.5,110.5 216.5,110.5 218.5,110.5C 218.833,115.833 219.167,115.833 219.5,110.5C 221.167,110.5 222.833,110.5 224.5,110.5 Z"/></g>
<g><path style="opacity:1" fill="#22afd6" d="M 209.5,115.5 C 211.256,116.552 211.923,118.219 211.5,120.5C 211.062,121.506 210.396,121.506 209.5,120.5C 208.859,119.518 208.193,118.518 207.5,117.5C 208.243,116.818 208.909,116.151 209.5,115.5 Z"/></g>
<g><path style="opacity:1" fill="#27b4d8" d="M 216.5,118.5 C 220.339,119.05 220.339,120.05 216.5,121.5C 215.913,120.767 215.913,119.767 216.5,118.5 Z"/></g>
<g><path style="opacity:1" fill="#41c4ed" d="M 175.5,122.5 C 176.376,122.369 177.043,122.702 177.5,123.5C 176.687,124.814 175.687,125.981 174.5,127C 176.616,128.171 177.282,129.671 176.5,131.5C 174.246,130.876 172.579,129.543 171.5,127.5C 172.857,125.814 174.19,124.148 175.5,122.5 Z"/></g>
<g><path style="opacity:1" fill="#3bbee7" d="M 181.5,122.5 C 182.497,122.47 183.164,122.97 183.5,124C 183.05,125.285 182.383,126.452 181.5,127.5C 182.167,128.5 182.833,129.5 183.5,130.5C 181.083,130.983 179.416,129.817 178.5,127C 179.315,125.357 180.315,123.857 181.5,122.5 Z"/></g>
<g><path style="opacity:1" fill="#34bfe7" d="M 168.5,122.5 C 169.497,122.47 170.164,122.97 170.5,124C 170.05,125.285 169.383,126.452 168.5,127.5C 169.167,128.5 169.833,129.5 170.5,130.5C 168.288,131.047 166.621,130.047 165.5,127.5C 166.952,126.06 167.952,124.394 168.5,122.5 Z"/></g>
<g><path style="opacity:1" fill="#45bfe9" d="M 190.5,122.5 C 189.952,124.394 188.952,126.06 187.5,127.5C 188.263,128.719 189.263,129.719 190.5,130.5C 190.043,131.298 189.376,131.631 188.5,131.5C 182.892,127.302 183.559,124.302 190.5,122.5 Z"/></g>
<g><path style="opacity:1" fill="#30bde7" d="M 196.5,131.5 C 195.391,131.443 194.391,131.11 193.5,130.5C 192.71,129.206 191.71,128.039 190.5,127C 191.381,126.292 192.047,125.458 192.5,124.5C 197.295,122.155 197.628,122.988 193.5,127C 195.141,128.129 196.141,129.629 196.5,131.5 Z"/></g>
<g><path style="opacity:1" fill="#f0fbfe" d="M 358.5,173.5 C 358.5,182.167 358.5,190.833 358.5,199.5C 355.741,197.707 352.741,197.207 349.5,198C 336.986,210.681 324.319,223.181 311.5,235.5C 303.651,227.817 295.651,220.317 287.5,213C 285.833,212.333 284.167,212.333 282.5,213C 280.667,214.833 278.833,216.667 277,218.5C 276.333,220.5 276.333,222.5 277,224.5C 286.702,234.035 296.202,243.702 305.5,253.5C 291.833,253.5 278.167,253.5 264.5,253.5C 252.131,224.583 257.131,199.083 279.5,177C 305.048,157.813 331.382,156.647 358.5,173.5 Z"/></g>
<g><path style="opacity:1" fill="#fefeff" d="M 358.5,199.5 C 358.5,203.833 358.5,208.167 358.5,212.5C 344.5,225.833 330.833,239.5 317.5,253.5C 313.5,253.5 309.5,253.5 305.5,253.5C 296.202,243.702 286.702,234.035 277,224.5C 276.333,222.5 276.333,220.5 277,218.5C 278.833,216.667 280.667,214.833 282.5,213C 284.167,212.333 285.833,212.333 287.5,213C 295.651,220.317 303.651,227.817 311.5,235.5C 324.319,223.181 336.986,210.681 349.5,198C 352.741,197.207 355.741,197.707 358.5,199.5 Z"/></g>
<g><path style="opacity:1" fill="#f0fbfd" d="M 358.5,212.5 C 358.667,225.837 358.5,239.171 358,252.5C 344.579,253.49 331.079,253.823 317.5,253.5C 330.833,239.5 344.5,225.833 358.5,212.5 Z"/></g>
</svg>
