<?xml version="1.0" encoding="UTF-8"?>
<!DOCTYPE svg PUBLIC "-//W3C//DTD SVG 1.1//EN" "http://www.w3.org/Graphics/SVG/1.1/DTD/svg11.dtd">
<svg xmlns="http://www.w3.org/2000/svg" version="1.1" width="28px" height="21px" style="shape-rendering:geometricPrecision; text-rendering:geometricPrecision; image-rendering:optimizeQuality; fill-rule:evenodd; clip-rule:evenodd" xmlns:xlink="http://www.w3.org/1999/xlink">
<g><path style="opacity:1" fill="#1b6ca0" d="M 18.5,-0.5 C 20.8333,-0.5 23.1667,-0.5 25.5,-0.5C 24.1667,0.833333 22.8333,2.16667 21.5,3.5C 21.1667,3.5 20.8333,3.5 20.5,3.5C 19.1938,2.53261 18.5271,1.19928 18.5,-0.5 Z"/></g>
<g><path style="opacity:1" fill="#0b669d" d="M 16.5,-0.5 C 17.1667,-0.5 17.8333,-0.5 18.5,-0.5C 18.5271,1.19928 19.1938,2.53261 20.5,3.5C 19.5178,4.14083 18.5178,4.80749 17.5,5.5C 16.5344,3.60395 16.2011,1.60395 16.5,-0.5 Z"/></g>
<g><path style="opacity:1" fill="#dbe8ef" d="M 25.5,-0.5 C 26.1667,-0.5 26.8333,-0.5 27.5,-0.5C 27.5,-0.166667 27.5,0.166667 27.5,0.5C 25.7721,2.22555 23.7721,3.55888 21.5,4.5C 21.5,4.16667 21.5,3.83333 21.5,3.5C 22.8333,2.16667 24.1667,0.833333 25.5,-0.5 Z"/></g>
<g><path style="opacity:1" fill="#d5dfe7" d="M -0.5,0.5 C -0.5,0.166667 -0.5,-0.166667 -0.5,-0.5C 0.166667,-0.5 0.833333,-0.5 1.5,-0.5C 3.84126,1.82883 6.50793,3.82883 9.5,5.5C 10.4656,3.60395 10.7989,1.60395 10.5,-0.5C 10.8333,-0.5 11.1667,-0.5 11.5,-0.5C 11.5,2.5 11.5,5.5 11.5,8.5C 7.5,8.5 3.5,8.5 -0.5,8.5C -0.5,8.16667 -0.5,7.83333 -0.5,7.5C 2.24688,7.81335 4.91355,7.48002 7.5,6.5C 4.80359,4.49097 2.13692,2.49097 -0.5,0.5 Z"/></g>
<g><path style="opacity:1" fill="#176aa0" d="M 1.5,-0.5 C 4.5,-0.5 7.5,-0.5 10.5,-0.5C 10.7989,1.60395 10.4656,3.60395 9.5,5.5C 6.50793,3.82883 3.84126,1.82883 1.5,-0.5 Z"/></g>
<g><path style="opacity:1" fill="#c7d9e4" d="M 15.5,-0.5 C 15.8333,-0.5 16.1667,-0.5 16.5,-0.5C 16.2011,1.60395 16.5344,3.60395 17.5,5.5C 18.5178,4.80749 19.5178,4.14083 20.5,3.5C 20.8333,3.5 21.1667,3.5 21.5,3.5C 21.5,3.83333 21.5,4.16667 21.5,4.5C 20.5707,5.31491 19.5707,6.14825 18.5,7C 21.4816,7.49796 24.4816,7.66463 27.5,7.5C 27.5,7.83333 27.5,8.16667 27.5,8.5C 23.5,8.5 19.5,8.5 15.5,8.5C 15.5,5.5 15.5,2.5 15.5,-0.5 Z"/></g>
<g><path style="opacity:1" fill="#206ea1" d="M 27.5,0.5 C 27.5,2.83333 27.5,5.16667 27.5,7.5C 24.4816,7.66463 21.4816,7.49796 18.5,7C 19.5707,6.14825 20.5707,5.31491 21.5,4.5C 23.7721,3.55888 25.7721,2.22555 27.5,0.5 Z"/></g>
<g><path style="opacity:1" fill="#1e6ea1" d="M -0.5,0.5 C 2.13692,2.49097 4.80359,4.49097 7.5,6.5C 4.91355,7.48002 2.24688,7.81335 -0.5,7.5C -0.5,5.16667 -0.5,2.83333 -0.5,0.5 Z"/></g>
<g><path style="opacity:1" fill="#ef1b20" d="M -0.5,9.5 C 3.9707,8.91057 7.9707,9.57723 11.5,11.5C 7.5,11.5 3.5,11.5 -0.5,11.5C -0.5,10.8333 -0.5,10.1667 -0.5,9.5 Z"/></g>
<g><path style="opacity:1" fill="#f64945" d="M 11.5,-0.5 C 11.8333,-0.5 12.1667,-0.5 12.5,-0.5C 13.1667,11.5 13.8333,11.5 14.5,-0.5C 14.8333,-0.5 15.1667,-0.5 15.5,-0.5C 15.5,2.5 15.5,5.5 15.5,8.5C 19.5,8.5 23.5,8.5 27.5,8.5C 27.5,9.5 27.5,10.5 27.5,11.5C 23.1667,11.5 18.8333,11.5 14.5,11.5C 13.8333,11.5 13.1667,11.5 12.5,11.5C 12.1667,11.5 11.8333,11.5 11.5,11.5C 7.9707,9.57723 3.9707,8.91057 -0.5,9.5C -0.5,9.16667 -0.5,8.83333 -0.5,8.5C 3.5,8.5 7.5,8.5 11.5,8.5C 11.5,5.5 11.5,2.5 11.5,-0.5 Z"/></g>
<g><path style="opacity:1" fill="#ec0812" d="M 12.5,-0.5 C 13.1667,-0.5 13.8333,-0.5 14.5,-0.5C 13.8333,11.5 13.1667,11.5 12.5,-0.5 Z"/></g>
<g><path style="opacity:1" fill="#fb9799" d="M -0.5,12.5 C -0.5,12.1667 -0.5,11.8333 -0.5,11.5C 3.5,11.5 7.5,11.5 11.5,11.5C 11.8333,11.5 12.1667,11.5 12.5,11.5C 12.5,14.5 12.5,17.5 12.5,20.5C 12.1667,20.5 11.8333,20.5 11.5,20.5C 11.5,17.8333 11.5,15.1667 11.5,12.5C 7.5,12.5 3.5,12.5 -0.5,12.5 Z"/></g>
<g><path style="opacity:1" fill="#fc9c9d" d="M 14.5,11.5 C 18.8333,11.5 23.1667,11.5 27.5,11.5C 27.5,11.8333 27.5,12.1667 27.5,12.5C 23.5,12.5 19.5,12.5 15.5,12.5C 15.5,15.1667 15.5,17.8333 15.5,20.5C 15.1667,20.5 14.8333,20.5 14.5,20.5C 14.5,17.5 14.5,14.5 14.5,11.5 Z"/></g>
<g><path style="opacity:1" fill="#055e96" d="M -0.5,14.5 C -0.5,14.1667 -0.5,13.8333 -0.5,13.5C 1.85684,13.3367 4.19018,13.5034 6.5,14C 5.94404,14.3826 5.61071,14.8826 5.5,15.5C 5.16667,15.5 4.83333,15.5 4.5,15.5C 2.50121,14.1435 1.33454,14.8101 1,17.5C 0.76791,16.2625 0.26791,15.2625 -0.5,14.5 Z"/></g>
<g><path style="opacity:1" fill="#ec0812" d="M 12.5,11.5 C 13.1667,11.5 13.8333,11.5 14.5,11.5C 14.5,14.5 14.5,17.5 14.5,20.5C 13.8333,20.5 13.1667,20.5 12.5,20.5C 12.5,17.5 12.5,14.5 12.5,11.5 Z"/></g>
<g><path style="opacity:1" fill="#bedeea" d="M 27.5,12.5 C 27.5,12.8333 27.5,13.1667 27.5,13.5C 25.1432,13.3367 22.8098,13.5034 20.5,14C 21.3805,14.7083 22.0472,15.5416 22.5,16.5C 21.8333,16.5 21.1667,16.5 20.5,16.5C 19.5178,15.8592 18.5178,15.1925 17.5,14.5C 16.5344,16.396 16.2011,18.396 16.5,20.5C 16.1667,20.5 15.8333,20.5 15.5,20.5C 15.5,17.8333 15.5,15.1667 15.5,12.5C 19.5,12.5 23.5,12.5 27.5,12.5 Z"/></g>
<g><path style="opacity:1" fill="#2a71a2" d="M -0.5,14.5 C 0.26791,15.2625 0.76791,16.2625 1,17.5C 1.33454,14.8101 2.50121,14.1435 4.5,15.5C 3.42065,17.543 1.75398,18.8763 -0.5,19.5C -0.5,17.8333 -0.5,16.1667 -0.5,14.5 Z"/></g>
<g><path style="opacity:1" fill="#c1deeb" d="M -0.5,13.5 C -0.5,13.1667 -0.5,12.8333 -0.5,12.5C 3.5,12.5 7.5,12.5 11.5,12.5C 11.5,15.1667 11.5,17.8333 11.5,20.5C 11.1667,20.5 10.8333,20.5 10.5,20.5C 10.7989,18.396 10.4656,16.396 9.5,14.5C 8.48224,15.1925 7.48224,15.8592 6.5,16.5C 6.5,15.8333 6.16667,15.5 5.5,15.5C 5.61071,14.8826 5.94404,14.3826 6.5,14C 4.19018,13.5034 1.85684,13.3367 -0.5,13.5 Z"/></g>
<g><path style="opacity:1" fill="#15659a" d="M 27.5,13.5 C 27.5,15.5 27.5,17.5 27.5,19.5C 26.078,18.075 24.4113,17.075 22.5,16.5C 22.0472,15.5416 21.3805,14.7083 20.5,14C 22.8098,13.5034 25.1432,13.3367 27.5,13.5 Z"/></g>
<g><path style="opacity:1" fill="#10649b" d="M 20.5,16.5 C 21.6935,17.2719 22.6935,18.2719 23.5,19.5C 21.8297,19.2488 20.3297,18.5822 19,17.5C 18.5172,18.448 18.3505,19.448 18.5,20.5C 17.8333,20.5 17.1667,20.5 16.5,20.5C 16.2011,18.396 16.5344,16.396 17.5,14.5C 18.5178,15.1925 19.5178,15.8592 20.5,16.5 Z"/></g>
<g><path style="opacity:1" fill="#0c679d" d="M 5.5,17.5 C 6.18944,18.7736 7.02278,18.7736 8,17.5C 8.48278,18.448 8.64945,19.448 8.5,20.5C 6.5,20.5 4.5,20.5 2.5,20.5C 3.16667,19.1667 4.16667,18.1667 5.5,17.5 Z"/></g>
<g><path style="opacity:1" fill="#0e699f" d="M 23.5,19.5 C 24.4916,19.3284 25.1583,19.6618 25.5,20.5C 23.1667,20.5 20.8333,20.5 18.5,20.5C 18.3505,19.448 18.5172,18.448 19,17.5C 20.3297,18.5822 21.8297,19.2488 23.5,19.5 Z"/></g>
<g><path style="opacity:1" fill="#cee0e9" d="M 20.5,16.5 C 21.1667,16.5 21.8333,16.5 22.5,16.5C 24.4113,17.075 26.078,18.075 27.5,19.5C 27.5,19.8333 27.5,20.1667 27.5,20.5C 26.8333,20.5 26.1667,20.5 25.5,20.5C 25.1583,19.6618 24.4916,19.3284 23.5,19.5C 22.6935,18.2719 21.6935,17.2719 20.5,16.5 Z"/></g>
<g><path style="opacity:1" fill="#11659c" d="M 10.5,20.5 C 9.83333,20.5 9.16667,20.5 8.5,20.5C 8.64945,19.448 8.48278,18.448 8,17.5C 7.02278,18.7736 6.18944,18.7736 5.5,17.5C 6.16667,17.5 6.5,17.1667 6.5,16.5C 7.48224,15.8592 8.48224,15.1925 9.5,14.5C 10.4656,16.396 10.7989,18.396 10.5,20.5 Z"/></g>
<g><path style="opacity:1" fill="#dae7ee" d="M 4.5,15.5 C 4.83333,15.5 5.16667,15.5 5.5,15.5C 6.16667,15.5 6.5,15.8333 6.5,16.5C 6.5,17.1667 6.16667,17.5 5.5,17.5C 4.16667,18.1667 3.16667,19.1667 2.5,20.5C 1.5,20.5 0.5,20.5 -0.5,20.5C -0.5,20.1667 -0.5,19.8333 -0.5,19.5C 1.75398,18.8763 3.42065,17.543 4.5,15.5 Z"/></g>
</svg>
