<?xml version="1.0" encoding="UTF-8"?>
<!DOCTYPE svg PUBLIC "-//W3C//DTD SVG 1.1//EN" "http://www.w3.org/Graphics/SVG/1.1/DTD/svg11.dtd">
<svg xmlns="http://www.w3.org/2000/svg" version="1.1" width="360px" height="255px" style="shape-rendering:geometricPrecision; text-rendering:geometricPrecision; image-rendering:optimizeQuality; fill-rule:evenodd; clip-rule:evenodd" xmlns:xlink="http://www.w3.org/1999/xlink">
<g><path style="opacity:0.992" fill="#ebeceb" d="M 0.5,-0.5 C 119.833,-0.5 239.167,-0.5 358.5,-0.5C 358.5,0.166667 358.833,0.5 359.5,0.5C 359.5,84.8333 359.5,169.167 359.5,253.5C 358.833,253.5 358.5,253.833 358.5,254.5C 239.167,254.5 119.833,254.5 0.5,254.5C 0.5,253.833 0.166667,253.5 -0.5,253.5C -0.5,169.167 -0.5,84.8333 -0.5,0.5C 0.166667,0.5 0.5,0.166667 0.5,-0.5 Z"/></g>
<g><path style="opacity:1" fill="#fefefe" d="M 358.5,173.5 C 331.382,156.647 305.048,157.813 279.5,177C 257.131,199.083 252.131,224.583 264.5,253.5C 176.833,253.667 89.166,253.5 1.5,253C 0.166667,169 0.166667,85 1.5,1C 120.167,0.333333 238.833,0.333333 357.5,1C 358.498,58.4286 358.831,115.929 358.5,173.5 Z"/></g>
<g><path style="opacity:1" fill="#1bacf0" d="M 156.5,33.5 C 164.174,33.3336 171.841,33.5003 179.5,34C 177.833,35.6667 176.167,37.3333 174.5,39C 176.019,40.3513 177.352,41.8513 178.5,43.5C 171.197,44.4973 163.863,44.8306 156.5,44.5C 156.5,40.8333 156.5,37.1667 156.5,33.5 Z"/></g>
<g><path style="opacity:1" fill="#2aa0d3" d="M 221.5,41.5 C 222.833,41.5 224.167,41.5 225.5,41.5C 225.5,49.5 225.5,57.5 225.5,65.5C 224.167,65.5 222.833,65.5 221.5,65.5C 221.5,57.5 221.5,49.5 221.5,41.5 Z"/></g>
<g><path style="opacity:1" fill="#2e2e2e" d="M 218.5,33.5 C 220.167,33.5 221.833,33.5 223.5,33.5C 223.785,35.288 223.452,36.9547 222.5,38.5C 221.914,38.2907 221.414,37.9574 221,37.5C 217.833,40.6667 214.667,43.8333 211.5,47C 207.044,46.9476 203.044,45.4476 199.5,42.5C 195.877,46.6251 192.043,50.6251 188,54.5C 190.362,49.0998 194.029,44.4331 199,40.5C 202.788,43.3223 206.955,44.8223 211.5,45C 213.795,41.7026 216.462,38.7026 219.5,36C 218.748,35.3292 218.414,34.4959 218.5,33.5 Z"/></g>
<g><path style="opacity:1" fill="#2a2b2c" d="M 156.5,33.5 C 156.5,37.1667 156.5,40.8333 156.5,44.5C 156.5,45.8333 156.5,47.1667 156.5,48.5C 156.5,49.1667 156.5,49.8333 156.5,50.5C 156.5,51.1667 156.5,51.8333 156.5,52.5C 156.5,53.1667 156.5,53.8333 156.5,54.5C 156.5,61.5 156.5,68.5 156.5,75.5C 155.833,75.5 155.167,75.5 154.5,75.5C 154.5,68.5 154.5,61.5 154.5,54.5C 154.5,53.8333 154.5,53.1667 154.5,52.5C 154.5,51.8333 154.5,51.1667 154.5,50.5C 154.5,49.8333 154.5,49.1667 154.5,48.5C 153.892,43.0557 154.558,38.0557 156.5,33.5 Z"/></g>
<g><path style="opacity:1" fill="#209ed4" d="M 204.5,51.5 C 205.833,51.5 207.167,51.5 208.5,51.5C 208.5,56.1667 208.5,60.8333 208.5,65.5C 207.167,65.5 205.833,65.5 204.5,65.5C 204.5,60.8333 204.5,56.1667 204.5,51.5 Z"/></g>
<g><path style="opacity:1" fill="#2099d0" d="M 209.5,55.5 C 210.833,55.5 212.167,55.5 213.5,55.5C 213.5,58.8333 213.5,62.1667 213.5,65.5C 212.167,65.5 210.833,65.5 209.5,65.5C 209.5,62.1667 209.5,58.8333 209.5,55.5 Z"/></g>
<g><path style="opacity:1" fill="#139dd5" d="M 215.5,49.5 C 216.833,49.5 218.167,49.5 219.5,49.5C 219.5,54.8333 219.5,60.1667 219.5,65.5C 218.167,65.5 216.833,65.5 215.5,65.5C 215.5,60.1667 215.5,54.8333 215.5,49.5 Z"/></g>
<g><path style="opacity:1" fill="#1d9fd5" d="M 198.5,55.5 C 199.833,55.5 201.167,55.5 202.5,55.5C 202.5,58.8333 202.5,62.1667 202.5,65.5C 201.167,65.5 199.833,65.5 198.5,65.5C 198.5,62.1667 198.5,58.8333 198.5,55.5 Z"/></g>
<g><path style="opacity:1" fill="#38a1d3" d="M 193.5,58.5 C 194.833,58.5 196.167,58.5 197.5,58.5C 197.5,60.8333 197.5,63.1667 197.5,65.5C 196.167,65.5 194.833,65.5 193.5,65.5C 193.5,63.1667 193.5,60.8333 193.5,58.5 Z"/></g>
<g><path style="opacity:1" fill="#1aa0d5" d="M 187.5,61.5 C 188.833,61.5 190.167,61.5 191.5,61.5C 191.5,62.8333 191.5,64.1667 191.5,65.5C 190.167,65.5 188.833,65.5 187.5,65.5C 187.5,64.1667 187.5,62.8333 187.5,61.5 Z"/></g>
<g><path style="opacity:1" fill="#e4e5e7" d="M 215.5,92.5 C 212.588,94.0663 209.921,96.0663 207.5,98.5C 206.5,97.8333 205.5,97.1667 204.5,96.5C 203.953,98.712 204.953,100.379 207.5,101.5C 210.186,99.1442 212.853,96.8109 215.5,94.5C 215.144,105.723 210.311,108.389 201,102.5C 197.785,93.4201 200.952,89.2534 210.5,90C 212.175,90.9853 213.842,91.8186 215.5,92.5 Z"/></g>
<g><path style="opacity:1" fill="#626262" d="M 187.5,90.5 C 190.247,90.1866 192.914,90.52 195.5,91.5C 194.167,91.8333 192.833,92.1667 191.5,92.5C 189.667,92.4146 188.334,91.7479 187.5,90.5 Z"/></g>
<g><path style="opacity:1" fill="#cacaca" d="M 154.5,48.5 C 154.5,49.1667 154.5,49.8333 154.5,50.5C 141.273,52.2271 133.94,59.7271 132.5,73C 134.474,90.303 144.141,97.9697 161.5,96C 173.137,92.2343 178.47,84.4009 177.5,72.5C 172.807,92.8469 161.141,98.6802 142.5,90C 131.833,79 131.833,68 142.5,57C 146.015,54.217 150.015,52.717 154.5,52.5C 154.5,53.1667 154.5,53.8333 154.5,54.5C 145.689,54.8225 139.855,59.1559 137,67.5C 134.621,78.0649 138.121,85.7315 147.5,90.5C 149.634,92.0334 152.134,92.7001 155,92.5C 158.976,92.7815 162.476,91.7815 165.5,89.5C 173.557,84.3601 176.39,77.0268 174,67.5C 170.534,59.854 164.701,55.5207 156.5,54.5C 156.5,53.8333 156.5,53.1667 156.5,52.5C 167.471,53.8081 173.804,59.8081 175.5,70.5C 176.5,70.5 177.5,70.5 178.5,70.5C 175.916,58.5818 168.583,51.9152 156.5,50.5C 156.5,49.8333 156.5,49.1667 156.5,48.5C 169.665,50.2242 177.332,57.5575 179.5,70.5C 195.833,70.5 212.167,70.5 228.5,70.5C 228.5,72.5 228.5,74.5 228.5,76.5C 227.167,76.5 225.833,76.5 224.5,76.5C 224.5,79.8333 224.5,83.1667 224.5,86.5C 221.167,86.5 217.833,86.5 214.5,86.5C 214.799,84.396 214.466,82.396 213.5,80.5C 212.571,81.6888 212.238,83.0222 212.5,84.5C 210.5,84.5 208.5,84.5 206.5,84.5C 206.762,83.0222 206.429,81.6888 205.5,80.5C 204.534,82.396 204.201,84.396 204.5,86.5C 202.5,86.5 200.5,86.5 198.5,86.5C 198.5,83.1667 198.5,79.8333 198.5,76.5C 192.167,76.5 185.833,76.5 179.5,76.5C 178.87,84.4396 175.203,90.4396 168.5,94.5C 160.369,99.3595 152.035,99.6928 143.5,95.5C 129.663,86.1435 126.83,74.1435 135,59.5C 139.981,52.9944 146.481,49.3277 154.5,48.5 Z"/></g>
<g><path style="opacity:1" fill="#262626" d="M 183.5,83.5 C 187.555,83.1758 191.555,83.5091 195.5,84.5C 193.5,84.8333 191.5,85.1667 189.5,85.5C 187.048,85.4609 185.048,84.7943 183.5,83.5 Z"/></g>
<g><path style="opacity:1" fill="#303030" d="M 183.5,80.5 C 187.555,80.1758 191.555,80.5091 195.5,81.5C 193.5,81.8333 191.5,82.1667 189.5,82.5C 187.048,82.4609 185.048,81.7943 183.5,80.5 Z"/></g>
<g><path style="opacity:1" fill="#fcfcfc" d="M 180.5,72.5 C 195.848,72.1673 211.181,72.5006 226.5,73.5C 225.311,74.4287 223.978,74.762 222.5,74.5C 222.823,78.226 222.489,81.8927 221.5,85.5C 220.167,76.1667 218.833,76.1667 217.5,85.5C 216.526,83.2573 216.192,80.924 216.5,78.5C 214.5,78.5 212.5,78.5 210.5,78.5C 209.833,83.8333 209.167,83.8333 208.5,78.5C 206.5,78.5 204.5,78.5 202.5,78.5C 202.808,80.924 202.474,83.2573 201.5,85.5C 200.511,81.8927 200.177,78.226 200.5,74.5C 193.416,75.1255 186.75,74.4589 180.5,72.5 Z"/></g>
<g><path style="opacity:1" fill="#cdcdcd" d="M 203.5,74.5 C 208.875,74.1718 214.208,74.5052 219.5,75.5C 216.833,75.8333 214.167,76.1667 211.5,76.5C 208.41,76.4783 205.743,75.8117 203.5,74.5 Z"/></g>
<g><path style="opacity:1" fill="#f7f7f7" d="M 156.5,50.5 C 168.583,51.9152 175.916,58.5818 178.5,70.5C 177.5,70.5 176.5,70.5 175.5,70.5C 173.804,59.8081 167.471,53.8081 156.5,52.5C 156.5,51.8333 156.5,51.1667 156.5,50.5 Z"/></g>
<g><path style="opacity:1" fill="#f6f6f6" d="M 154.5,50.5 C 154.5,51.1667 154.5,51.8333 154.5,52.5C 150.015,52.717 146.015,54.217 142.5,57C 131.833,68 131.833,79 142.5,90C 161.141,98.6802 172.807,92.8469 177.5,72.5C 178.47,84.4009 173.137,92.2343 161.5,96C 144.141,97.9697 134.474,90.303 132.5,73C 133.94,59.7271 141.273,52.2271 154.5,50.5 Z"/></g>
<g><path style="opacity:1" fill="#e3e4e6" d="M 154.5,75.5 C 155.167,75.5 155.833,75.5 156.5,75.5C 159.5,80.1667 162.5,84.8333 165.5,89.5C 162.476,91.7815 158.976,92.7815 155,92.5C 152.134,92.7001 149.634,92.0334 147.5,90.5C 149.044,85.0806 151.378,80.0806 154.5,75.5 Z"/></g>
<g><path style="opacity:1" fill="#fdfdfd" d="M 156.5,54.5 C 164.701,55.5207 170.534,59.854 174,67.5C 176.39,77.0268 173.557,84.3601 165.5,89.5C 162.5,84.8333 159.5,80.1667 156.5,75.5C 156.5,68.5 156.5,61.5 156.5,54.5 Z"/></g>
<g><path style="opacity:1" fill="#fdfdfd" d="M 154.5,54.5 C 154.5,61.5 154.5,68.5 154.5,75.5C 151.378,80.0806 149.044,85.0806 147.5,90.5C 138.121,85.7315 134.621,78.0649 137,67.5C 139.855,59.1559 145.689,54.8225 154.5,54.5 Z"/></g>
<g><path style="opacity:1" fill="#e3e4e7" d="M 168.5,94.5 C 170.05,104.787 174.05,105.953 180.5,98C 181.5,97.3333 182.5,97.3333 183.5,98C 189.605,103.583 194.938,109.416 199.5,115.5C 201.466,116.255 201.8,117.421 200.5,119C 197.183,119.498 193.85,119.665 190.5,119.5C 190.665,122.85 190.498,126.183 190,129.5C 189.586,129.957 189.086,130.291 188.5,130.5C 184.387,126.205 181.387,126.871 179.5,132.5C 179.752,134.073 180.418,135.406 181.5,136.5C 177.265,137.436 172.931,137.769 168.5,137.5C 172.192,132.325 173.192,126.658 171.5,120.5C 173.294,118.203 175.294,116.037 177.5,114C 175.527,113.505 173.527,113.338 171.5,113.5C 171.799,111.396 171.466,109.396 170.5,107.5C 169.575,108.357 168.908,109.357 168.5,110.5C 167.167,111.167 166.167,112.167 165.5,113.5C 165.167,113.5 164.833,113.5 164.5,113.5C 152.556,110.465 145.556,114.965 143.5,127C 143.374,131.13 144.707,134.63 147.5,137.5C 143.167,137.5 138.833,137.5 134.5,137.5C 134.5,135.833 134.5,134.167 134.5,132.5C 139.159,132.985 140.492,131.152 138.5,127C 133.181,127.185 131.015,124.685 132,119.5C 133.373,116.588 134.873,113.754 136.5,111C 134.618,110.802 132.952,110.302 131.5,109.5C 135.971,110.089 139.971,109.423 143.5,107.5C 143.5,107.167 143.5,106.833 143.5,106.5C 143.5,105.833 143.5,105.167 143.5,104.5C 143.5,104.167 143.5,103.833 143.5,103.5C 139.971,101.577 135.971,100.911 131.5,101.5C 135.021,100.834 138.687,100.167 142.5,99.5C 143.246,98.2638 143.579,96.9305 143.5,95.5C 152.035,99.6928 160.369,99.3595 168.5,94.5 Z"/></g>
<g><path style="opacity:1" fill="#333334" d="M 215.5,92.5 C 215.5,93.1667 215.5,93.8333 215.5,94.5C 212.853,96.8109 210.186,99.1442 207.5,101.5C 204.953,100.379 203.953,98.712 204.5,96.5C 205.5,97.1667 206.5,97.8333 207.5,98.5C 209.921,96.0663 212.588,94.0663 215.5,92.5 Z"/></g>
<g><path style="opacity:1" fill="#484949" d="M 131.5,101.5 C 135.971,100.911 139.971,101.577 143.5,103.5C 139.029,104.089 135.029,103.423 131.5,101.5 Z"/></g>
<g><path style="opacity:1" fill="#323232" d="M 143.5,104.5 C 143.5,105.167 143.5,105.833 143.5,106.5C 127.5,105.833 127.5,105.167 143.5,104.5 Z"/></g>
<g><path style="opacity:1" fill="#333333" d="M 215.5,104.5 C 219.555,104.176 223.555,104.509 227.5,105.5C 225.5,105.833 223.5,106.167 221.5,106.5C 219.048,106.461 217.048,105.794 215.5,104.5 Z"/></g>
<g><path style="opacity:1" fill="#232424" d="M 143.5,107.5 C 139.971,109.423 135.971,110.089 131.5,109.5C 135.029,107.577 139.029,106.911 143.5,107.5 Z"/></g>
<g><path style="opacity:1" fill="#262626" d="M 215.5,107.5 C 219.555,107.176 223.555,107.509 227.5,108.5C 225.5,108.833 223.5,109.167 221.5,109.5C 219.048,109.461 217.048,108.794 215.5,107.5 Z"/></g>
<g><path style="opacity:1" fill="#4f4f4f" d="M 168.5,110.5 C 170.176,111.183 170.843,112.517 170.5,114.5C 171.791,114.263 172.791,114.596 173.5,115.5C 172.167,115.5 170.833,115.5 169.5,115.5C 169.657,114.127 169.49,112.793 169,111.5C 167.961,112.71 166.794,113.71 165.5,114.5C 165.5,114.167 165.5,113.833 165.5,113.5C 166.167,112.167 167.167,111.167 168.5,110.5 Z"/></g>
<g><path style="opacity:1" fill="#e3e4e5" d="M 173.5,115.5 C 172.833,116.833 171.833,117.833 170.5,118.5C 169.078,117.075 167.411,116.075 165.5,115.5C 165.5,115.167 165.5,114.833 165.5,114.5C 166.794,113.71 167.961,112.71 169,111.5C 169.49,112.793 169.657,114.127 169.5,115.5C 170.833,115.5 172.167,115.5 173.5,115.5 Z"/></g>
<g><path style="opacity:1" fill="#666666" d="M 215.5,114.5 C 218.247,114.187 220.914,114.52 223.5,115.5C 222.167,115.833 220.833,116.167 219.5,116.5C 217.667,116.415 216.334,115.748 215.5,114.5 Z"/></g>
<g><path style="opacity:1" fill="#0e181f" d="M 171.5,120.5 C 168.811,122.11 165.811,122.943 162.5,123C 161,124.5 159.5,126 158,127.5C 158.372,125.08 159.705,123.08 162,121.5C 162.097,118.518 162.93,115.851 164.5,113.5C 164.833,113.5 165.167,113.5 165.5,113.5C 165.5,113.833 165.5,114.167 165.5,114.5C 165.5,114.833 165.5,115.167 165.5,115.5C 164.549,116.919 164.216,118.585 164.5,120.5C 167.01,120.946 169.01,120.28 170.5,118.5C 171.833,117.833 172.833,116.833 173.5,115.5C 172.791,114.596 171.791,114.263 170.5,114.5C 170.843,112.517 170.176,111.183 168.5,110.5C 168.908,109.357 169.575,108.357 170.5,107.5C 171.466,109.396 171.799,111.396 171.5,113.5C 173.527,113.338 175.527,113.505 177.5,114C 175.294,116.037 173.294,118.203 171.5,120.5 Z"/></g>
<g><path style="opacity:1" fill="#32a2d5" d="M 165.5,115.5 C 167.411,116.075 169.078,117.075 170.5,118.5C 169.01,120.28 167.01,120.946 164.5,120.5C 164.216,118.585 164.549,116.919 165.5,115.5 Z"/></g>
<g><path style="opacity:1" fill="#1cacef" d="M 181.5,136.5 C 180.418,135.406 179.752,134.073 179.5,132.5C 181.387,126.871 184.387,126.205 188.5,130.5C 189.086,130.291 189.586,129.957 190,129.5C 190.498,126.183 190.665,122.85 190.5,119.5C 193.85,119.665 197.183,119.498 200.5,119C 201.8,117.421 201.466,116.255 199.5,115.5C 197.991,109.512 200.325,107.345 206.5,109C 207.097,110.062 207.43,111.228 207.5,112.5C 207.079,114.658 206.579,116.658 206,118.5C 209.394,119.456 212.894,119.789 216.5,119.5C 216.5,122.833 216.5,126.167 216.5,129.5C 218.848,129.33 221.182,128.997 223.5,128.5C 227.825,129.964 228.492,132.464 225.5,136C 222.86,136.839 220.527,136.339 218.5,134.5C 217.914,134.709 217.414,135.043 217,135.5C 216.502,138.817 216.335,142.15 216.5,145.5C 213.15,145.665 209.817,145.498 206.5,145C 205.216,143.703 205.383,142.536 207,141.5C 207.852,135.001 205.519,133.334 200,136.5C 199.161,139.14 199.661,141.473 201.5,143.5C 201.291,144.086 200.957,144.586 200.5,145C 197.183,145.498 193.85,145.665 190.5,145.5C 190.665,142.15 190.498,138.817 190,135.5C 189.586,135.043 189.086,134.709 188.5,134.5C 186.49,136.171 184.157,136.838 181.5,136.5 Z"/></g>
<g><path style="opacity:1" fill="#16a2de" d="M 164.5,113.5 C 162.93,115.851 162.097,118.518 162,121.5C 159.705,123.08 158.372,125.08 158,127.5C 159.5,126 161,124.5 162.5,123C 165.811,122.943 168.811,122.11 171.5,120.5C 173.192,126.658 172.192,132.325 168.5,137.5C 161.47,142.757 154.47,142.757 147.5,137.5C 144.707,134.63 143.374,131.13 143.5,127C 145.556,114.965 152.556,110.465 164.5,113.5 Z"/></g>
<g><path style="opacity:1" fill="#f0fbfe" d="M 358.5,173.5 C 358.5,182.167 358.5,190.833 358.5,199.5C 355.741,197.707 352.741,197.207 349.5,198C 336.986,210.681 324.319,223.181 311.5,235.5C 303.651,227.817 295.651,220.317 287.5,213C 285.833,212.333 284.167,212.333 282.5,213C 280.667,214.833 278.833,216.667 277,218.5C 276.333,220.5 276.333,222.5 277,224.5C 286.702,234.035 296.202,243.702 305.5,253.5C 291.833,253.5 278.167,253.5 264.5,253.5C 252.131,224.583 257.131,199.083 279.5,177C 305.048,157.813 331.382,156.647 358.5,173.5 Z"/></g>
<g><path style="opacity:1" fill="#fefeff" d="M 358.5,199.5 C 358.5,203.833 358.5,208.167 358.5,212.5C 344.5,225.833 330.833,239.5 317.5,253.5C 313.5,253.5 309.5,253.5 305.5,253.5C 296.202,243.702 286.702,234.035 277,224.5C 276.333,222.5 276.333,220.5 277,218.5C 278.833,216.667 280.667,214.833 282.5,213C 284.167,212.333 285.833,212.333 287.5,213C 295.651,220.317 303.651,227.817 311.5,235.5C 324.319,223.181 336.986,210.681 349.5,198C 352.741,197.207 355.741,197.707 358.5,199.5 Z"/></g>
<g><path style="opacity:1" fill="#f0fbfd" d="M 358.5,212.5 C 358.667,225.837 358.5,239.171 358,252.5C 344.579,253.49 331.079,253.823 317.5,253.5C 330.833,239.5 344.5,225.833 358.5,212.5 Z"/></g>
</svg>
