<svg width="360" height="255" version="1.1" xmlns="http://www.w3.org/2000/svg"><path fill="rgb(251,252,252)" stroke="rgb(251,252,252)" stroke-width="1" opacity="1" d="M 2.5 1 L 1.5 3 L 2.5 1 Z "></path><path fill="rgb(251,252,252)" stroke="rgb(251,252,252)" stroke-width="1" opacity="1" d="M 357.5 1 L 358.5 3 L 357.5 1 Z "></path><path fill="rgb(251,252,252)" stroke="rgb(251,252,252)" stroke-width="1" opacity="1" d="M 132.5 32 L 133.5 35 Q 135.8 35.8 135 33.5 L 136 33.5 Q 137.3 37.7 132.5 36 L 131 33.5 L 132.5 32 Z "></path><path fill="rgb(251,252,252)" stroke="rgb(251,252,252)" stroke-width="1" opacity="1" d="M 228.5 32 L 231 33 Q 232.3 37.1 229 36 L 228.5 32 Z "></path><path fill="rgb(251,252,252)" stroke="rgb(251,252,252)" stroke-width="1" opacity="1" d="M 212 52 L 217 52.5 L 215 53 L 213.5 56 L 212 55.5 L 214 54.5 L 212 54 L 212 52 Z "></path><path fill="rgb(251,252,252)" stroke="rgb(251,252,252)" stroke-width="1" opacity="1" d="M 146.5 53 L 148 55.5 L 145.5 56 L 144 55.5 L 146 55 L 146.5 53 Z "></path><path fill="rgb(251,252,252)" stroke="rgb(251,252,252)" stroke-width="1" opacity="1" d="M 210.5 54 L 211 56 L 209 55.5 L 210.5 54 Z "></path><path fill="rgb(251,252,252)" stroke="rgb(251,252,252)" stroke-width="1" opacity="1" d="M 205.5 58 Q 208.8 56.9 208 59.5 L 206.5 59 L 205.5 58 Z "></path><path fill="rgb(251,252,252)" stroke="rgb(251,252,252)" stroke-width="1" opacity="1" d="M 176 66 Q 180.1 64.7 179 68 Q 174.9 69.3 176 66 Z "></path><path fill="rgb(251,252,252)" stroke="rgb(251,252,252)" stroke-width="1" opacity="1" d="M 165.5 69 L 167.5 72 Q 163.1 73.1 165.5 69 Z "></path><path fill="rgb(251,252,252)" stroke="rgb(251,252,252)" stroke-width="1" opacity="1" d="M 160 74 Q 164.1 72.7 163 76 Q 158.9 77.3 160 74 Z "></path><path fill="rgb(251,252,252)" stroke="rgb(251,252,252)" stroke-width="1" opacity="1" d="M 184 74 Q 188.1 72.7 187 76 Q 182.9 77.3 184 74 Z "></path><path fill="rgb(251,252,252)" stroke="rgb(251,252,252)" stroke-width="1" opacity="1" d="M 184 82 Q 188.1 80.7 187 84 Q 182.9 85.3 184 82 Z "></path><path fill="rgb(251,252,252)" stroke="rgb(251,252,252)" stroke-width="1" opacity="1" d="M 148 90 Q 153.2 88.3 152 92 Q 146.8 93.7 148 90 Z "></path><path fill="rgb(251,252,252)" stroke="rgb(251,252,252)" stroke-width="1" opacity="1" d="M 182.5 96 L 184 99.5 L 180.5 100 L 180.5 99 Q 183.4 99.7 182.5 96 Z "></path><path fill="rgb(251,252,252)" stroke="rgb(251,252,252)" stroke-width="1" opacity="1" d="M 216 97 L 218 97.5 L 217.5 99 L 220 99.5 L 216 100 L 216 97 Z "></path><path fill="rgb(251,252,252)" stroke="rgb(251,252,252)" stroke-width="1" opacity="1" d="M 175.5 108 L 176 109.5 L 174.5 112 L 173.5 110 Q 176 110.7 175.5 108 Z "></path><path fill="rgb(251,252,252)" stroke="rgb(251,252,252)" stroke-width="1" opacity="1" d="M 131.5 109 L 132 121.5 L 131 121.5 L 131.5 109 Z "></path><path fill="rgb(251,252,252)" stroke="rgb(251,252,252)" stroke-width="1" opacity="1" d="M 165 110 L 167 110.5 L 165 113.5 L 165 115.5 L 165.5 118 L 167 117.5 Q 165.5 120.5 164 117.5 L 164 112 L 148.5 112 L 148.5 111 L 163.5 111 L 164.5 112 L 165 110 Z "></path><path fill="rgb(251,252,252)" stroke="rgb(251,252,252)" stroke-width="1" opacity="1" d="M 206.5 112 L 208 115.5 L 206.5 115 L 204 114.5 L 206 114 L 206.5 112 Z "></path><path fill="rgb(251,252,252)" stroke="rgb(251,252,252)" stroke-width="1" opacity="1" d="M 164 120 L 167 120.5 L 164.5 122 L 164 120 Z "></path><path fill="rgb(251,252,252)" stroke="rgb(251,252,252)" stroke-width="1" opacity="1" d="M 152 124 Q 155 122.8 154 126.5 L 152 127.5 L 152 124 Z "></path><path fill="rgb(251,252,252)" stroke="rgb(251,252,252)" stroke-width="1" opacity="1" d="M 172.5 128 L 174.5 129 L 176 128.5 L 173 130 Q 171.9 132.7 174.5 132 Q 177.3 133.3 175 134.5 L 174.5 136 L 172 130.5 L 172.5 128 Z "></path><path fill="rgb(251,252,252)" stroke="rgb(251,252,252)" stroke-width="1" opacity="1" d="M 199.5 128 L 201 130.5 Q 199.8 133.3 198.5 131 L 196 130.5 L 199.5 128 Z "></path><path fill="rgb(251,252,252)" stroke="rgb(251,252,252)" stroke-width="1" opacity="1" d="M 161.5 129 L 162 131 L 164 131.5 L 162.5 132 L 161.5 129 Z "></path><path fill="rgb(251,252,252)" stroke="rgb(251,252,252)" stroke-width="1" opacity="1" d="M 224.5 130 L 225 132.5 L 224 132.5 L 224.5 130 Z "></path><path fill="rgb(251,252,252)" stroke="rgb(251,252,252)" stroke-width="1" opacity="1" d="M 224.5 134 L 225 135.5 L 223 137.5 L 223.5 141 L 221.5 141 L 220 140.5 L 220 138.5 L 222.5 136 Q 225 136.7 224.5 134 Z "></path><path fill="rgb(251,252,252)" stroke="rgb(251,252,252)" stroke-width="1" opacity="1" d="M 144 136 L 146 136.5 L 145 138.5 Q 147.3 139.8 144.5 141 L 144 136 Z "></path><path fill="rgb(251,252,252)" stroke="rgb(251,252,252)" stroke-width="1" opacity="1" d="M 153.5 136 L 156 137.5 L 155.5 141 L 155 137 Q 152.3 135.9 153 138.5 L 154 141 Q 150.7 142.3 152 137.5 L 153.5 136 Z "></path><path fill="rgb(251,252,252)" stroke="rgb(251,252,252)" stroke-width="1" opacity="1" d="M 176.5 136 L 180 137.5 Q 177.8 138.8 180.5 140 L 182.5 141 L 184 140.5 L 181 142 L 181.5 144 L 184 143 L 183 145.5 L 183.5 147 L 181.5 148 Q 178.8 146.8 181 145.5 L 180 142.5 Q 182.2 141.3 179.5 140 L 174.5 141 L 174.5 140 L 178 137.5 L 176.5 136 Z "></path><path fill="rgb(251,252,252)" stroke="rgb(251,252,252)" stroke-width="1" opacity="1" d="M 217 140 L 219 140.5 Q 215.5 142 218 143.5 L 219 146.5 L 216.5 147 L 216.5 145 L 213.5 146 L 212.5 144 L 217 143.5 L 217 141.5 L 217 140 Z "></path><path fill="rgb(251,252,252)" stroke="rgb(251,252,252)" stroke-width="1" opacity="1" d="M 1.5 252 L 2.5 254 L 1.5 252 Z "></path><path fill="rgb(247,247,246)" stroke="rgb(247,247,246)" stroke-width="1" opacity="1" d="M 136 32 L 140 32.5 L 139 36 Q 134.1 37.6 136 32 Z "></path><path fill="rgb(247,247,246)" stroke="rgb(247,247,246)" stroke-width="1" opacity="1" d="M 144 32 L 148 32.5 L 147 36 Q 142.1 37.6 144 32 Z "></path><path fill="rgb(247,247,246)" stroke="rgb(247,247,246)" stroke-width="1" opacity="1" d="M 152 32 L 156 32.5 L 155 36 Q 150.1 37.6 152 32 Z "></path><path fill="rgb(247,247,246)" stroke="rgb(247,247,246)" stroke-width="1" opacity="1" d="M 160 32 L 164 32.5 L 163 36 Q 158.1 37.6 160 32 Z "></path><path fill="rgb(247,247,246)" stroke="rgb(247,247,246)" stroke-width="1" opacity="1" d="M 168 32 L 172 32.5 L 171 36 Q 166.1 37.6 168 32 Z "></path><path fill="rgb(247,247,246)" stroke="rgb(247,247,246)" stroke-width="1" opacity="1" d="M 176 32 L 180 32.5 L 179 36 Q 174.1 37.6 176 32 Z "></path><path fill="rgb(247,247,246)" stroke="rgb(247,247,246)" stroke-width="1" opacity="1" d="M 184 32 L 188 32.5 L 187 36 Q 182.1 37.6 184 32 Z "></path><path fill="rgb(247,247,246)" stroke="rgb(247,247,246)" stroke-width="1" opacity="1" d="M 192 32 L 196 32.5 L 195 36 Q 190.1 37.6 192 32 Z "></path><path fill="rgb(247,247,246)" stroke="rgb(247,247,246)" stroke-width="1" opacity="1" d="M 200 32 L 204 32.5 L 203 36 Q 198.1 37.6 200 32 Z "></path><path fill="rgb(247,247,246)" stroke="rgb(247,247,246)" stroke-width="1" opacity="1" d="M 208 32 L 212 32.5 L 211 36 Q 206.1 37.6 208 32 Z "></path><path fill="rgb(247,247,246)" stroke="rgb(247,247,246)" stroke-width="1" opacity="1" d="M 216 32 L 220 32.5 L 219 36 Q 214.1 37.6 216 32 Z "></path><path fill="rgb(247,247,246)" stroke="rgb(247,247,246)" stroke-width="1" opacity="1" d="M 128 36 L 131 36.5 L 131 105.5 L 132 108 L 128 107.5 L 128 36 Z "></path><path fill="rgb(247,247,246)" stroke="rgb(247,247,246)" stroke-width="1" opacity="1" d="M 224 52 L 227 52.5 L 227 100 L 224 99.5 L 224 52 Z "></path><path fill="rgb(247,247,246)" stroke="rgb(247,247,246)" stroke-width="1" opacity="1" d="M 200 58 Q 204.1 56.7 203 60 Q 198.9 61.3 200 58 Z "></path><path fill="rgb(247,247,246)" stroke="rgb(247,247,246)" stroke-width="1" opacity="1" d="M 208 58 L 210 58.5 L 208 59.5 L 208 58 Z "></path><path fill="rgb(247,247,246)" stroke="rgb(247,247,246)" stroke-width="1" opacity="1" d="M 205.5 61 L 207.5 64 L 204 63.5 L 205.5 61 Z "></path><path fill="rgb(247,247,246)" stroke="rgb(247,247,246)" stroke-width="1" opacity="1" d="M 210.5 62 L 211 64 L 209 63.5 L 210.5 62 Z "></path><path fill="rgb(247,247,246)" stroke="rgb(247,247,246)" stroke-width="1" opacity="1" d="M 160 66 Q 164.1 64.7 163 68 Q 158.9 69.3 160 66 Z "></path><path fill="rgb(247,247,246)" stroke="rgb(247,247,246)" stroke-width="1" opacity="1" d="M 168 66 L 170 66.5 L 168 67.5 L 168 66 Z "></path><path fill="rgb(247,247,246)" stroke="rgb(247,247,246)" stroke-width="1" opacity="1" d="M 173 66 Q 177.1 64.7 176 68 Q 171.9 69.3 173 66 Z "></path><path fill="rgb(247,247,246)" stroke="rgb(247,247,246)" stroke-width="1" opacity="1" d="M 184 66 Q 188.1 64.7 187 68 Q 182.9 69.3 184 66 Z "></path><path fill="rgb(247,247,246)" stroke="rgb(247,247,246)" stroke-width="1" opacity="1" d="M 200 66 Q 204.1 64.7 203 68 Q 198.9 69.3 200 66 Z "></path><path fill="rgb(247,247,246)" stroke="rgb(247,247,246)" stroke-width="1" opacity="1" d="M 208 66 Q 212.1 64.7 211 68 Q 206.9 69.3 208 66 Z "></path><path fill="rgb(247,247,246)" stroke="rgb(247,247,246)" stroke-width="1" opacity="1" d="M 170.5 69 L 171 72 L 168 71.5 L 170.5 69 Z "></path><path fill="rgb(247,247,246)" stroke="rgb(247,247,246)" stroke-width="1" opacity="1" d="M 176 74 Q 180.1 72.7 179 76 Q 174.9 77.3 176 74 Z "></path><path fill="rgb(247,247,246)" stroke="rgb(247,247,246)" stroke-width="1" opacity="1" d="M 192 74 L 194 74.5 L 192 75.5 L 192 74 Z "></path><path fill="rgb(247,247,246)" stroke="rgb(247,247,246)" stroke-width="1" opacity="1" d="M 198.5 74 Q 204.3 72.3 203 76 L 197 75.5 L 198.5 74 Z "></path><path fill="rgb(247,247,246)" stroke="rgb(247,247,246)" stroke-width="1" opacity="1" d="M 188.5 77 L 192 79.5 L 188.5 80 L 188.5 77 Z "></path><path fill="rgb(247,247,246)" stroke="rgb(247,247,246)" stroke-width="1" opacity="1" d="M 194.5 78 L 195 80 L 193 79.5 L 194.5 78 Z "></path><path fill="rgb(247,247,246)" stroke="rgb(247,247,246)" stroke-width="1" opacity="1" d="M 157 82 Q 161.1 80.7 160 84 Q 155.9 85.3 157 82 Z "></path><path fill="rgb(247,247,246)" stroke="rgb(247,247,246)" stroke-width="1" opacity="1" d="M 192 82 Q 196.1 80.7 195 84 Q 190.9 85.3 192 82 Z "></path><path fill="rgb(247,247,246)" stroke="rgb(247,247,246)" stroke-width="1" opacity="1" d="M 200 82 Q 204.1 80.7 203 84 Q 198.9 85.3 200 82 Z "></path><path fill="rgb(247,247,246)" stroke="rgb(247,247,246)" stroke-width="1" opacity="1" d="M 188 96 L 194 96.5 L 188.5 99 L 188 96 Z "></path><path fill="rgb(247,247,246)" stroke="rgb(247,247,246)" stroke-width="1" opacity="1" d="M 196.5 98 Q 202.5 96.5 204 99.5 L 201.5 100 L 199.5 99 Q 198 101.5 192.5 100 L 192.5 99 L 196.5 98 Z "></path><path fill="rgb(247,247,246)" stroke="rgb(247,247,246)" stroke-width="1" opacity="1" d="M 186.5 102 Q 189.1 101.3 188 104 L 185 103.5 L 186.5 102 Z "></path><path fill="rgb(247,247,246)" stroke="rgb(247,247,246)" stroke-width="1" opacity="1" d="M 183.5 105 L 184 108 L 181 107.5 L 183.5 105 Z "></path><path fill="rgb(247,247,246)" stroke="rgb(247,247,246)" stroke-width="1" opacity="1" d="M 176 106 Q 180.1 104.7 179 108 Q 174.9 109.3 176 106 Z "></path><path fill="rgb(247,247,246)" stroke="rgb(247,247,246)" stroke-width="1" opacity="1" d="M 220.5 106 L 227.5 106 L 228 108 Q 222.4 105.8 224 111.5 L 223 111.5 L 220.5 106 Z "></path><path fill="rgb(247,247,246)" stroke="rgb(247,247,246)" stroke-width="1" opacity="1" d="M 145 109 L 147 109.5 L 146.5 111 L 148 111.5 L 145 112 L 145 109 Z "></path><path fill="rgb(247,247,246)" stroke="rgb(247,247,246)" stroke-width="1" opacity="1" d="M 196 109 L 199 109.5 L 199 122 L 202.5 122 L 204 121.5 L 204 124 L 196 124 L 196 109 Z "></path><path fill="rgb(247,247,246)" stroke="rgb(247,247,246)" stroke-width="1" opacity="1" d="M 179.5 112 L 180 116 Q 177 117.3 178 113.5 L 179.5 112 Z "></path><path fill="rgb(247,247,246)" stroke="rgb(247,247,246)" stroke-width="1" opacity="1" d="M 144 114 Q 149.2 112.3 148 116 Q 142.8 117.7 144 114 Z "></path><path fill="rgb(247,247,246)" stroke="rgb(247,247,246)" stroke-width="1" opacity="1" d="M 204 116 Q 209.2 114.3 208 118 L 204.5 119 L 204 116 Z "></path><path fill="rgb(247,247,246)" stroke="rgb(247,247,246)" stroke-width="1" opacity="1" d="M 144 118 Q 149.2 116.3 148 120 Q 142.8 121.7 144 118 Z "></path><path fill="rgb(247,247,246)" stroke="rgb(247,247,246)" stroke-width="1" opacity="1" d="M 160 118 Q 165.2 116.3 164 120 Q 158.8 121.7 160 118 Z "></path><path fill="rgb(247,247,246)" stroke="rgb(247,247,246)" stroke-width="1" opacity="1" d="M 172 120 Q 176.9 118.4 175 124 Q 170.1 125.6 172 120 Z "></path><path fill="rgb(247,247,246)" stroke="rgb(247,247,246)" stroke-width="1" opacity="1" d="M 220 120 Q 224.1 118.3 223 122.5 L 220.5 131 L 219 126.5 L 220 120 Z "></path><path fill="rgb(247,247,246)" stroke="rgb(247,247,246)" stroke-width="1" opacity="1" d="M 131.5 122 Q 133.3 124.8 139.5 123 L 140.5 122 L 148 122 L 147.5 124 L 132.5 124 L 131.5 122 Z "></path><path fill="rgb(247,247,246)" stroke="rgb(247,247,246)" stroke-width="1" opacity="1" d="M 160 122 Q 165.2 120.3 164 124 Q 158.8 125.7 160 122 Z "></path><path fill="rgb(247,247,246)" stroke="rgb(247,247,246)" stroke-width="1" opacity="1" d="M 140 126 Q 145.2 124.3 144 128 Q 138.8 129.7 140 126 Z "></path><path fill="rgb(247,247,246)" stroke="rgb(247,247,246)" stroke-width="1" opacity="1" d="M 148 126 Q 153.2 124.3 152 128 Q 146.8 129.7 148 126 Z "></path><path fill="rgb(247,247,246)" stroke="rgb(247,247,246)" stroke-width="1" opacity="1" d="M 180.5 127 L 180 128.5 L 179.5 131 L 178 128.5 L 180.5 127 Z "></path><path fill="rgb(247,247,246)" stroke="rgb(247,247,246)" stroke-width="1" opacity="1" d="M 164 128 L 166 128.5 L 166 130.5 Q 166.7 133.1 164 132 L 164 128 Z "></path><path fill="rgb(247,247,246)" stroke="rgb(247,247,246)" stroke-width="1" opacity="1" d="M 223.5 130 L 224 136 L 220 135.5 L 223.5 130 Z "></path><path fill="rgb(247,247,246)" stroke="rgb(247,247,246)" stroke-width="1" opacity="1" d="M 171.5 132 L 172 136 Q 166.8 138.1 168 133.5 Q 169.8 135.1 171.5 132 Z "></path><path fill="rgb(247,247,246)" stroke="rgb(247,247,246)" stroke-width="1" opacity="1" d="M 180.5 132 Q 186.2 130.4 184 136 L 181 134.5 L 180.5 132 Z "></path><path fill="rgb(247,247,246)" stroke="rgb(247,247,246)" stroke-width="1" opacity="1" d="M 216 132 L 220 132.5 L 214.5 139 L 208 142 Q 206.5 138.3 209.5 139 L 213.5 136 L 216 136 L 216 132 Z "></path><path fill="rgb(247,247,246)" stroke="rgb(247,247,246)" stroke-width="1" opacity="1" d="M 132.5 136 L 136 136.5 L 132.5 137 L 132.5 136 Z "></path><path fill="rgb(247,247,246)" stroke="rgb(247,247,246)" stroke-width="1" opacity="1" d="M 148.5 136 L 152 136.5 L 148 137 L 147.5 141 L 147 137.5 L 148.5 136 Z "></path><path fill="rgb(247,247,246)" stroke="rgb(247,247,246)" stroke-width="1" opacity="1" d="M 219.5 137 L 220 140 L 217 139.5 L 219.5 137 Z "></path><path fill="rgb(247,247,246)" stroke="rgb(247,247,246)" stroke-width="1" opacity="1" d="M 196 141 L 203.5 141 L 204 142.5 Q 202.8 145.3 197.5 144 L 196 141 Z "></path><path fill="rgb(247,247,246)" stroke="rgb(247,247,246)" stroke-width="1" opacity="1" d="M 214.5 141 Q 217.5 140.2 216 144 L 211 143.5 L 214.5 141 Z "></path><path fill="rgb(247,247,246)" stroke="rgb(247,247,246)" stroke-width="1" opacity="1" d="M 192 145 L 196 146 Q 197.2 149.7 192 148 L 192 145 Z "></path><path fill="rgb(247,247,246)" stroke="rgb(247,247,246)" stroke-width="1" opacity="1" d="M 200 146 Q 205.2 144.3 204 148 Q 198.8 149.7 200 146 Z "></path><path fill="rgb(247,247,246)" stroke="rgb(247,247,246)" stroke-width="1" opacity="1" d="M 359.5 168 L 360 171.5 L 359 171.5 L 359.5 168 Z "></path><path fill="rgb(247,247,246)" stroke="rgb(247,247,246)" stroke-width="1" opacity="1" d="M 359.5 232 L 360 235.5 L 359 235.5 L 359.5 232 Z "></path><path fill="rgb(247,247,246)" stroke="rgb(247,247,246)" stroke-width="1" opacity="1" d="M 277 252 Q 281.1 250.7 280 254 Q 275.9 255.3 277 252 Z "></path><path fill="rgb(247,247,246)" stroke="rgb(247,247,246)" stroke-width="1" opacity="1" d="M 304.5 254 L 308 254.5 L 304.5 255 L 304.5 254 Z "></path><path fill="rgb(242,251,254)" stroke="rgb(242,251,254)" stroke-width="1" opacity="1" d="M 148.5 32 Q 154.2 30.4 152 36 Q 147.9 37.7 149 33.5 L 148.5 32 Z "></path><path fill="rgb(242,251,254)" stroke="rgb(242,251,254)" stroke-width="1" opacity="1" d="M 180.5 32 Q 186.2 30.4 184 36 Q 179.9 37.7 181 33.5 L 180.5 32 Z "></path><path fill="rgb(242,251,254)" stroke="rgb(242,251,254)" stroke-width="1" opacity="1" d="M 196.5 32 Q 202.2 30.4 200 36 Q 195.9 37.7 197 33.5 L 196.5 32 Z "></path><path fill="rgb(242,251,254)" stroke="rgb(242,251,254)" stroke-width="1" opacity="1" d="M 212.5 32 Q 218.2 30.4 216 36 Q 211.9 37.7 213 33.5 L 212.5 32 Z "></path><path fill="rgb(242,251,254)" stroke="rgb(242,251,254)" stroke-width="1" opacity="1" d="M 133 49 L 226.5 49 L 227 52 L 133.5 52 L 133 49 Z "></path><path fill="rgb(242,251,254)" stroke="rgb(242,251,254)" stroke-width="1" opacity="1" d="M 160 58 Q 164.1 56.7 163 60 Q 158.9 61.3 160 58 Z "></path><path fill="rgb(242,251,254)" stroke="rgb(242,251,254)" stroke-width="1" opacity="1" d="M 160 68 Q 164.9 66.4 163 72 Q 158.1 73.6 160 68 Z "></path><path fill="rgb(242,251,254)" stroke="rgb(242,251,254)" stroke-width="1" opacity="1" d="M 160 82 Q 164.1 80.7 163 84 Q 158.9 85.3 160 82 Z "></path><path fill="rgb(242,251,254)" stroke="rgb(242,251,254)" stroke-width="1" opacity="1" d="M 189 82 Q 193.1 80.7 192 84 Q 187.9 85.3 189 82 Z "></path><path fill="rgb(242,251,254)" stroke="rgb(242,251,254)" stroke-width="1" opacity="1" d="M 208.5 96 Q 213.3 94.3 212 98.5 L 210.5 98 L 208.5 96 Z "></path><path fill="rgb(242,251,254)" stroke="rgb(242,251,254)" stroke-width="1" opacity="1" d="M 201.5 100 Q 209 99 212 101 Q 213.5 104.8 210.5 104 Q 208.2 100.3 201.5 101 L 201.5 100 Z "></path><path fill="rgb(242,251,254)" stroke="rgb(242,251,254)" stroke-width="1" opacity="1" d="M 201.5 109 L 206 111.5 L 201 112 L 201.5 109 Z "></path><path fill="rgb(242,251,254)" stroke="rgb(242,251,254)" stroke-width="1" opacity="1" d="M 218.5 112 Q 221.8 110.9 221 113.5 L 222 116 L 219 114.5 L 218.5 112 Z "></path><path fill="rgb(242,251,254)" stroke="rgb(242,251,254)" stroke-width="1" opacity="1" d="M 208 116 L 211 116.5 L 208.5 118 L 208 116 Z "></path><path fill="rgb(242,251,254)" stroke="rgb(242,251,254)" stroke-width="1" opacity="1" d="M 206.5 127 L 208 129.5 L 204.5 132 L 204 128 L 206.5 127 Z "></path><path fill="rgb(242,251,254)" stroke="rgb(242,251,254)" stroke-width="1" opacity="1" d="M 192 128 Q 197.6 125.8 196 131.5 L 194.5 131 L 192 129.5 L 192 128 Z "></path><path fill="rgb(242,251,254)" stroke="rgb(242,251,254)" stroke-width="1" opacity="1" d="M 219.5 128 L 220 132 L 217 131.5 L 219.5 128 Z "></path><path fill="rgb(242,251,254)" stroke="rgb(242,251,254)" stroke-width="1" opacity="1" d="M 215.5 134 L 216 136 L 214 135.5 L 215.5 134 Z "></path><path fill="rgb(242,251,254)" stroke="rgb(242,251,254)" stroke-width="1" opacity="1" d="M 144.5 135 L 143.5 137 L 140 136.5 L 144.5 135 Z "></path><path fill="rgb(242,251,254)" stroke="rgb(242,251,254)" stroke-width="1" opacity="1" d="M 183.5 136 Q 187.3 135.3 188 137.5 Q 189.1 140.8 186.5 140 L 183.5 136 Z "></path><path fill="rgb(242,251,254)" stroke="rgb(242,251,254)" stroke-width="1" opacity="1" d="M 180.5 137 L 182.5 140 Q 178.1 141.1 180.5 137 Z "></path><path fill="rgb(242,251,254)" stroke="rgb(242,251,254)" stroke-width="1" opacity="1" d="M 139.5 140 L 144 141 Q 145.6 145.9 140 144 L 139.5 140 Z "></path><path fill="rgb(242,251,254)" stroke="rgb(242,251,254)" stroke-width="1" opacity="1" d="M 205.5 140 Q 209.7 138.9 208 143 L 204 143 L 204 141.5 L 205.5 140 Z "></path><path fill="rgb(242,251,254)" stroke="rgb(242,251,254)" stroke-width="1" opacity="1" d="M 132 141 Q 137.6 139.1 136 144 Q 130.4 145.9 132 141 Z "></path><path fill="rgb(242,251,254)" stroke="rgb(242,251,254)" stroke-width="1" opacity="1" d="M 337.5 163 L 343.5 165 L 345.5 165 L 348.5 165 L 359 169 L 359 195.5 L 356.5 196 L 349.5 191 L 338.5 187 L 333 187 L 333 191.5 L 330 200.5 L 332.5 203 L 345.5 207 L 350 211.5 L 351 215.5 L 347.5 219 L 336.5 219 L 334.5 219 Q 322.9 219.4 319 227.5 L 320.5 230 L 331.5 238 L 335.5 234 L 337.5 234 L 341.5 235 L 343.5 235 L 355.5 234 L 357.5 234 L 359 234.5 L 359 252.5 L 357.5 254 L 324 254 Q 325.9 251.3 325 244.5 L 322.5 241 L 314.5 236 L 309 237 Q 310.1 239.7 307.5 239 Q 302.7 241.2 304 249.5 L 306 253.5 L 280 254 Q 281.3 250.7 276.5 252 L 275 250.5 L 271 235.5 L 271 218.5 Q 276.1 192.1 293.5 178 L 315.5 166 L 325.5 164 L 336.5 164 L 337.5 163 Z "></path><path fill="rgb(254,254,255)" stroke="rgb(254,254,255)" stroke-width="1" opacity="1" d="M 129 32 Q 131.7 30.9 131 33.5 L 128 35.5 L 129 32 Z "></path><path fill="rgb(254,254,255)" stroke="rgb(254,254,255)" stroke-width="1" opacity="1" d="M 140.5 32 Q 146.2 30.4 144 36 Q 139.9 37.7 141 33.5 L 140.5 32 Z "></path><path fill="rgb(254,254,255)" stroke="rgb(254,254,255)" stroke-width="1" opacity="1" d="M 156.5 32 Q 162.2 30.4 160 36 Q 155.9 37.7 157 33.5 L 156.5 32 Z "></path><path fill="rgb(254,254,255)" stroke="rgb(254,254,255)" stroke-width="1" opacity="1" d="M 164.5 32 Q 170.2 30.4 168 36 Q 163.9 37.7 165 33.5 L 164.5 32 Z "></path><path fill="rgb(254,254,255)" stroke="rgb(254,254,255)" stroke-width="1" opacity="1" d="M 172.5 32 Q 178.2 30.4 176 36 Q 171.9 37.7 173 33.5 L 172.5 32 Z "></path><path fill="rgb(254,254,255)" stroke="rgb(254,254,255)" stroke-width="1" opacity="1" d="M 188.5 32 Q 194.2 30.4 192 36 Q 187.9 37.7 189 33.5 L 188.5 32 Z "></path><path fill="rgb(254,254,255)" stroke="rgb(254,254,255)" stroke-width="1" opacity="1" d="M 204.5 32 Q 210.2 30.4 208 36 Q 203.9 37.7 205 33.5 L 204.5 32 Z "></path><path fill="rgb(254,254,255)" stroke="rgb(254,254,255)" stroke-width="1" opacity="1" d="M 220.5 32 L 228 32.5 L 225 33.5 L 228 34.5 L 221 36 L 220.5 32 Z "></path><path fill="rgb(254,254,255)" stroke="rgb(254,254,255)" stroke-width="1" opacity="1" d="M 217.5 52 Q 219.8 51.3 219 53.5 L 218 58 Q 215 57 216 60 L 213.5 60 L 214 58.5 Q 214.3 53.8 217.5 52 Z "></path><path fill="rgb(254,254,255)" stroke="rgb(254,254,255)" stroke-width="1" opacity="1" d="M 148.5 53 L 152 53.5 L 148.5 54 L 148.5 53 Z "></path><path fill="rgb(254,254,255)" stroke="rgb(254,254,255)" stroke-width="1" opacity="1" d="M 144 56 L 147 56.5 L 147 88 L 144 87.5 L 144 56 Z "></path><path fill="rgb(254,254,255)" stroke="rgb(254,254,255)" stroke-width="1" opacity="1" d="M 157 58 L 160 58 Q 158.9 61.3 163 60 L 163 64 L 160 64 L 160 60 Q 155.9 61.3 157 58 Z "></path><path fill="rgb(254,254,255)" stroke="rgb(254,254,255)" stroke-width="1" opacity="1" d="M 168 58 L 171 58 L 171 64 L 168 64 L 168 58 Z "></path><path fill="rgb(254,254,255)" stroke="rgb(254,254,255)" stroke-width="1" opacity="1" d="M 173 58 L 179 58 L 179 60 L 173 60 L 173 58 Z "></path><path fill="rgb(254,254,255)" stroke="rgb(254,254,255)" stroke-width="1" opacity="1" d="M 181 58 L 187 58 L 187 64 L 184 64 L 184 60 Q 179.9 61.3 181 58 Z "></path><path fill="rgb(254,254,255)" stroke="rgb(254,254,255)" stroke-width="1" opacity="1" d="M 189 58 L 195 58 L 195 64 L 192 64 L 192 60 Q 187.9 61.3 189 58 Z "></path><path fill="rgb(254,254,255)" stroke="rgb(254,254,255)" stroke-width="1" opacity="1" d="M 197 58 L 200 58 Q 198.9 61.3 203 60 L 203 64 L 200 64 L 200 60 Q 195.9 61.3 197 58 Z "></path><path fill="rgb(254,254,255)" stroke="rgb(254,254,255)" stroke-width="1" opacity="1" d="M 217 60 Q 220 59 219 62 Q 216 63 217 60 Z "></path><path fill="rgb(254,254,255)" stroke="rgb(254,254,255)" stroke-width="1" opacity="1" d="M 157 66 L 160 66 L 160 72 L 157 72 L 157 66 Z "></path><path fill="rgb(254,254,255)" stroke="rgb(254,254,255)" stroke-width="1" opacity="1" d="M 181 66 L 184 66 Q 182.9 69.3 187 68 L 187 72 L 184 72 L 184 68 Q 179.9 69.3 181 66 Z "></path><path fill="rgb(254,254,255)" stroke="rgb(254,254,255)" stroke-width="1" opacity="1" d="M 189 66 L 192 66 Q 190.9 69.3 195 68 L 195 72 L 192 72 L 192 68 Q 187.9 69.3 189 66 Z "></path><path fill="rgb(254,254,255)" stroke="rgb(254,254,255)" stroke-width="1" opacity="1" d="M 197 66 Q 201.1 64.7 200 68 Q 195.9 69.3 197 66 Z "></path><path fill="rgb(254,254,255)" stroke="rgb(254,254,255)" stroke-width="1" opacity="1" d="M 205 66 L 208 66 Q 206.9 69.3 211 68 L 211 72 L 208 72 L 208 68 Q 203.9 69.3 205 66 Z "></path><path fill="rgb(254,254,255)" stroke="rgb(254,254,255)" stroke-width="1" opacity="1" d="M 176 68 Q 180.9 66.4 179 72 Q 174.1 73.6 176 68 Z "></path><path fill="rgb(254,254,255)" stroke="rgb(254,254,255)" stroke-width="1" opacity="1" d="M 157 74 L 160 74 Q 158.9 77.3 163 76 L 163 80 L 160 80 L 160 76 Q 155.9 77.3 157 74 Z "></path><path fill="rgb(254,254,255)" stroke="rgb(254,254,255)" stroke-width="1" opacity="1" d="M 165 74 L 171 74 L 171 76 L 165 76 L 165 74 Z "></path><path fill="rgb(254,254,255)" stroke="rgb(254,254,255)" stroke-width="1" opacity="1" d="M 173 74 L 176 74 Q 174.9 77.3 179 76 L 179 80 L 176 80 L 176 76 Q 171.9 77.3 173 74 Z "></path><path fill="rgb(254,254,255)" stroke="rgb(254,254,255)" stroke-width="1" opacity="1" d="M 181 74 L 184 74 Q 182.9 77.3 187 76 L 187 80 L 184 80 L 184 76 Q 179.9 77.3 181 74 Z "></path><path fill="rgb(254,254,255)" stroke="rgb(254,254,255)" stroke-width="1" opacity="1" d="M 205 74 Q 209.6 72.8 211 75.5 Q 212.9 81.8 208 80 L 208 76 Q 203.9 77.3 205 74 Z "></path><path fill="rgb(254,254,255)" stroke="rgb(254,254,255)" stroke-width="1" opacity="1" d="M 200 76 Q 204.9 74.4 203 80 Q 198.1 81.6 200 76 Z "></path><path fill="rgb(254,254,255)" stroke="rgb(254,254,255)" stroke-width="1" opacity="1" d="M 165 82 L 171 82 L 171 88 L 168 88 L 168 84 Q 163.9 85.3 165 82 Z "></path><path fill="rgb(254,254,255)" stroke="rgb(254,254,255)" stroke-width="1" opacity="1" d="M 173 82 L 179 82 L 179 88 L 176 88 L 176 84 Q 171.9 85.3 173 82 Z "></path><path fill="rgb(254,254,255)" stroke="rgb(254,254,255)" stroke-width="1" opacity="1" d="M 181 82 L 184 82 Q 182.9 85.3 187 84 L 187 88 L 184 88 L 184 84 Q 179.9 85.3 181 82 Z "></path><path fill="rgb(254,254,255)" stroke="rgb(254,254,255)" stroke-width="1" opacity="1" d="M 197 82 L 200 82 Q 198.9 85.3 203 84 L 203 88 L 200 88 L 200 84 Q 195.9 85.3 197 82 Z "></path><path fill="rgb(254,254,255)" stroke="rgb(254,254,255)" stroke-width="1" opacity="1" d="M 205 82 L 211 82 L 211 88 L 208 88 L 208 84 Q 203.9 85.3 205 82 Z "></path><path fill="rgb(254,254,255)" stroke="rgb(254,254,255)" stroke-width="1" opacity="1" d="M 160 84 Q 164.9 82.4 163 88 Q 158.1 89.6 160 84 Z "></path><path fill="rgb(254,254,255)" stroke="rgb(254,254,255)" stroke-width="1" opacity="1" d="M 192 84 Q 196.9 82.4 195 88 Q 190.1 89.6 192 84 Z "></path><path fill="rgb(254,254,255)" stroke="rgb(254,254,255)" stroke-width="1" opacity="1" d="M 196 90 Q 201.2 88.3 200 92 Q 194.8 93.7 196 90 Z "></path><path fill="rgb(254,254,255)" stroke="rgb(254,254,255)" stroke-width="1" opacity="1" d="M 136.5 99 L 180 99.5 L 136.5 100 L 136.5 99 Z "></path><path fill="rgb(254,254,255)" stroke="rgb(254,254,255)" stroke-width="1" opacity="1" d="M 220.5 99 L 224 99.5 L 220.5 100 L 220.5 99 Z "></path><path fill="rgb(254,254,255)" stroke="rgb(254,254,255)" stroke-width="1" opacity="1" d="M 190.5 100 Q 193.5 99.2 192 103 Q 185.9 103.8 183 109.5 L 180.5 115 L 180 109.5 L 184 108 L 184 104 L 188 104 Q 186.5 100.3 189.5 101 L 190.5 100 Z "></path><path fill="rgb(254,254,255)" stroke="rgb(254,254,255)" stroke-width="1" opacity="1" d="M 212.5 102 L 213.5 104 Q 210.7 104.7 212.5 102 Z "></path><path fill="rgb(254,254,255)" stroke="rgb(254,254,255)" stroke-width="1" opacity="1" d="M 132 106 L 175.5 106 L 176 108 L 144.5 108 L 143.5 109 L 132 109 L 132 106 Z "></path><path fill="rgb(254,254,255)" stroke="rgb(254,254,255)" stroke-width="1" opacity="1" d="M 195.5 110 L 196 112 L 193 111.5 L 195.5 110 Z "></path><path fill="rgb(254,254,255)" stroke="rgb(254,254,255)" stroke-width="1" opacity="1" d="M 160 114 Q 165.2 112.3 164 116 Q 158.8 117.7 160 114 Z "></path><path fill="rgb(254,254,255)" stroke="rgb(254,254,255)" stroke-width="1" opacity="1" d="M 178.5 116 L 180 116.5 L 180 124 L 177 124 L 177 117.5 L 178.5 116 Z "></path><path fill="rgb(254,254,255)" stroke="rgb(254,254,255)" stroke-width="1" opacity="1" d="M 220 116 Q 223 114.8 222 118.5 L 222.5 120 Q 217.9 121.2 220 116 Z "></path><path fill="rgb(254,254,255)" stroke="rgb(254,254,255)" stroke-width="1" opacity="1" d="M 148 122 L 159.5 122 L 160 124 L 148.5 124 L 148 122 Z "></path><path fill="rgb(254,254,255)" stroke="rgb(254,254,255)" stroke-width="1" opacity="1" d="M 207.5 124 Q 211.9 122.5 211 125.5 L 207.5 128 L 205 127.5 L 207.5 124 Z "></path><path fill="rgb(254,254,255)" stroke="rgb(254,254,255)" stroke-width="1" opacity="1" d="M 144 126 Q 149.2 124.3 148 128 Q 142.8 129.7 144 126 Z "></path><path fill="rgb(254,254,255)" stroke="rgb(254,254,255)" stroke-width="1" opacity="1" d="M 170.5 128 L 172 128 L 172 132 Q 169.3 133.1 170 130.5 L 170.5 128 Z "></path><path fill="rgb(254,254,255)" stroke="rgb(254,254,255)" stroke-width="1" opacity="1" d="M 202.5 128 L 202.5 131 L 200 129.5 L 202.5 128 Z "></path><path fill="rgb(254,254,255)" stroke="rgb(254,254,255)" stroke-width="1" opacity="1" d="M 161 132 L 165 132 Q 163.9 134.7 166.5 134 L 168 133.5 Q 169.2 138.1 164 136 L 162.5 133 L 161 133.5 L 161 132 Z "></path><path fill="rgb(254,254,255)" stroke="rgb(254,254,255)" stroke-width="1" opacity="1" d="M 176.5 132 L 179 136 Q 173.9 137.6 176.5 132 Z "></path><path fill="rgb(254,254,255)" stroke="rgb(254,254,255)" stroke-width="1" opacity="1" d="M 139.5 135 L 140 136.5 L 139 140 L 136 139.5 L 137 137.5 L 136.5 136 L 139.5 135 Z "></path><path fill="rgb(254,254,255)" stroke="rgb(254,254,255)" stroke-width="1" opacity="1" d="M 156.5 136 L 160 136.5 L 156.5 137 L 156.5 136 Z "></path><path fill="rgb(254,254,255)" stroke="rgb(254,254,255)" stroke-width="1" opacity="1" d="M 192 140 L 196 141 Q 197.2 144.7 192 143 L 192 140 Z "></path><path fill="rgb(254,254,255)" stroke="rgb(254,254,255)" stroke-width="1" opacity="1" d="M 148 141 Q 153.6 139.1 152 144 Q 146.4 145.9 148 141 Z "></path><path fill="rgb(254,254,255)" stroke="rgb(254,254,255)" stroke-width="1" opacity="1" d="M 184.5 141 L 188 143.5 L 187.5 147 L 185 145.5 L 185.5 144 Q 182.4 144.7 184.5 141 Z "></path><path fill="rgb(254,254,255)" stroke="rgb(254,254,255)" stroke-width="1" opacity="1" d="M 196 146 Q 201.2 144.3 200 148 Q 194.8 149.7 196 146 Z "></path><path fill="rgb(254,254,255)" stroke="rgb(254,254,255)" stroke-width="1" opacity="1" d="M 330.5 163 L 337 163.5 L 330.5 164 L 330.5 163 Z "></path><path fill="rgb(254,254,255)" stroke="rgb(254,254,255)" stroke-width="1" opacity="1" d="M 321.5 164 L 325 164.5 L 321.5 165 L 321.5 164 Z "></path><path fill="rgb(254,254,255)" stroke="rgb(254,254,255)" stroke-width="1" opacity="1" d="M 317.5 165 L 320 165.5 L 317.5 166 L 317.5 165 Z "></path><path fill="rgb(254,254,255)" stroke="rgb(254,254,255)" stroke-width="1" opacity="1" d="M 308.5 168 L 310 168.5 L 298.5 175 L 299.5 173 L 308.5 168 Z "></path><path fill="rgb(254,254,255)" stroke="rgb(254,254,255)" stroke-width="1" opacity="1" d="M 296.5 175 L 294.5 178 L 296.5 175 Z "></path><path fill="rgb(254,254,255)" stroke="rgb(254,254,255)" stroke-width="1" opacity="1" d="M 348.5 191 L 351 192.5 L 349.5 192 L 348.5 191 Z "></path><path fill="rgb(254,254,255)" stroke="rgb(254,254,255)" stroke-width="1" opacity="1" d="M 280.5 193 L 279 195.5 L 278.5 197 L 278 195.5 L 280.5 193 Z "></path><path fill="rgb(254,254,255)" stroke="rgb(254,254,255)" stroke-width="1" opacity="1" d="M 353.5 194 L 356 195.5 L 354.5 195 L 353.5 194 Z "></path><path fill="rgb(254,254,255)" stroke="rgb(254,254,255)" stroke-width="1" opacity="1" d="M 276.5 200 L 276 201.5 L 275.5 203 L 275 201.5 L 276.5 200 Z "></path><path fill="rgb(254,254,255)" stroke="rgb(254,254,255)" stroke-width="1" opacity="1" d="M 348.5 209 L 349.5 211 L 348.5 209 Z "></path><path fill="rgb(254,254,255)" stroke="rgb(254,254,255)" stroke-width="1" opacity="1" d="M 349.5 217 L 348.5 219 L 349.5 217 Z "></path><path fill="rgb(254,254,255)" stroke="rgb(254,254,255)" stroke-width="1" opacity="1" d="M 325.5 221 L 320 227.5 L 321 229.5 L 319 228.5 L 325.5 221 Z "></path><path fill="rgb(254,254,255)" stroke="rgb(254,254,255)" stroke-width="1" opacity="1" d="M 270.5 226 L 271 228.5 L 270 228.5 L 270.5 226 Z "></path><path fill="rgb(254,254,255)" stroke="rgb(254,254,255)" stroke-width="1" opacity="1" d="M 324.5 232 L 326.5 235 L 324.5 232 Z "></path><path fill="rgb(254,254,255)" stroke="rgb(254,254,255)" stroke-width="1" opacity="1" d="M 356 232 Q 360.1 230.7 359 234 L 356.5 235 L 356 232 Z "></path><path fill="rgb(254,254,255)" stroke="rgb(254,254,255)" stroke-width="1" opacity="1" d="M 343.5 234 L 346 234.5 L 343.5 235 L 343.5 234 Z "></path><path fill="rgb(254,254,255)" stroke="rgb(254,254,255)" stroke-width="1" opacity="1" d="M 350.5 234 L 353 234.5 L 350.5 235 L 350.5 234 Z "></path><path fill="rgb(254,254,255)" stroke="rgb(254,254,255)" stroke-width="1" opacity="1" d="M 333.5 235 L 332.5 237 L 333.5 235 Z "></path><path fill="rgb(254,254,255)" stroke="rgb(254,254,255)" stroke-width="1" opacity="1" d="M 271.5 236 L 272 238.5 L 271 238.5 L 271.5 236 Z "></path><path fill="rgb(254,254,255)" stroke="rgb(254,254,255)" stroke-width="1" opacity="1" d="M 329.5 236 L 330.5 238 L 329.5 236 Z "></path><path fill="rgb(254,254,255)" stroke="rgb(254,254,255)" stroke-width="1" opacity="1" d="M 307.5 239 L 305.5 242 L 307.5 239 Z "></path><path fill="rgb(254,254,255)" stroke="rgb(254,254,255)" stroke-width="1" opacity="1" d="M 322.5 241 L 323.5 243 L 322.5 241 Z "></path><path fill="rgb(254,254,255)" stroke="rgb(254,254,255)" stroke-width="1" opacity="1" d="M 275.5 251 L 277 253.5 L 276 253.5 L 275.5 251 Z "></path><path fill="rgb(254,254,255)" stroke="rgb(254,254,255)" stroke-width="1" opacity="1" d="M 305.5 252 Q 309.3 251 308 254 L 305.5 252 Z "></path><path fill="rgb(255,255,255)" stroke="rgb(255,255,255)" stroke-width="1" opacity="1" d="M 3.5 1 L 356.5 1 L 359 3.5 L 359 167.5 L 356.5 168 L 346.5 164 L 328.5 163 L 308.5 168 L 292 178 L 289.5 182 L 288 182 L 288 184 Q 285.3 182.9 286 185.5 L 275 201.5 L 271 216.5 L 270 228.5 L 271 229.5 L 271 238.5 L 276 254 L 3.5 254 L 1 251.5 L 1 3.5 L 3.5 1 Z M 129 32 L 128 36 L 128 108 L 132 108 L 131 110 L 131 124 L 139 124 L 140 128 L 153 128 L 154 127 L 154 124 L 164 124 L 164 123 L 167 121 L 164 120 L 166 115 L 165 113 L 164 111 L 147 111 L 147 110 L 144 109 L 175 108 L 176 110 L 176 108 L 178 109 L 175 115 Q 177 122 172 120 Q 170 126 175 124 L 176 133 L 175 132 Q 172 133 173 131 L 173 128 L 165 128 L 164 131 L 163 131 L 161 134 L 164 135 L 165 136 L 172 136 L 173 133 L 175 136 L 175 135 L 176 135 Q 175 138 178 137 L 176 140 L 183 142 L 182 141 L 184 142 Q 185 144 183 143 L 184 145 L 186 144 L 185 146 L 188 147 L 188 144 L 191 145 Q 194 144 192 148 L 204 148 L 204 146 L 211 144 L 214 146 L 217 145 L 217 147 L 219 147 L 218 144 L 217 144 L 216 142 L 217 140 L 218 142 L 221 139 L 220 138 Q 219 135 222 136 L 221 138 L 223 138 L 225 135 L 225 133 L 224 130 L 225 127 L 224 111 L 225 108 L 228 109 L 229 106 L 229 37 Q 232 37 231 33 L 229 32 L 137 32 L 134 33 L 132 33 L 129 32 Z M 165 110 L 165 112 L 167 111 L 165 110 Z M 174 110 L 175 112 Q 176 109 174 110 Z M 137 134 Q 137 137 135 136 Q 133 133 131 138 L 132 144 L 136 144 Q 134 139 139 140 L 140 144 L 144 144 Q 143 140 146 141 L 145 139 L 146 137 L 145 134 L 144 136 L 140 135 L 137 136 L 137 134 Z M 149 136 L 147 138 L 148 144 L 152 144 Q 151 140 154 141 L 153 138 Q 152 135 149 136 Z M 157 136 L 155 138 L 155 141 L 160 141 L 160 136 L 157 136 Z M 222 139 L 221 141 L 223 140 L 222 139 Z M 182 144 L 181 146 L 184 147 L 182 144 Z "></path><path fill="rgb(255,255,255)" stroke="rgb(255,255,255)" stroke-width="1" opacity="1" d="M 133 52 L 156.5 52 L 158.5 53 L 163.5 52 L 165.5 53 L 166.5 52 L 193.5 52 L 195.5 52 L 197.5 53 L 198.5 52 L 212 52 L 211.5 56 L 210.5 54 L 208.5 56 L 176.5 56 L 174.5 56 L 152.5 56 L 147.5 55 L 145.5 55 L 144 55.5 L 144 88 Q 147.8 86.5 147 89.5 L 148 92 Q 153.3 93.3 152.5 90 L 196 90 Q 194.8 93.7 200 92 L 200.5 90 L 213 90 L 213 60.5 L 218 58 L 218 54.5 L 219 52 L 224 52.5 L 224 99 L 217 98.5 L 217.5 97 Q 214.5 96.2 216 100 L 213.5 100 L 212 96 L 206.5 97 L 199.5 95 L 198.5 96 L 188 96 Q 189.5 99.7 186.5 99 L 184.5 100 L 182.5 96 L 182 99 L 136.5 99 L 133 100 L 133 52 Z M 149 53 L 149 54 L 152 54 L 149 53 Z M 217 60 Q 216 63 219 62 Q 220 59 217 60 Z M 217 62 Q 215 65 218 64 L 217 62 Z "></path><path fill="rgb(255,255,255)" stroke="rgb(255,255,255)" stroke-width="1" opacity="1" d="M 165 58 L 168 58 L 168 64 L 165 64 L 165 58 Z "></path><path fill="rgb(255,255,255)" stroke="rgb(255,255,255)" stroke-width="1" opacity="1" d="M 157 60 Q 161.9 58.4 160 64 Q 155.1 65.6 157 60 Z "></path><path fill="rgb(255,255,255)" stroke="rgb(255,255,255)" stroke-width="1" opacity="1" d="M 173 60 L 179 60 L 179 64 L 173 64 L 173 60 Z "></path><path fill="rgb(255,255,255)" stroke="rgb(255,255,255)" stroke-width="1" opacity="1" d="M 181 60 Q 185.9 58.4 184 64 Q 179.1 65.6 181 60 Z "></path><path fill="rgb(255,255,255)" stroke="rgb(255,255,255)" stroke-width="1" opacity="1" d="M 189 60 Q 193.9 58.4 192 64 Q 187.1 65.6 189 60 Z "></path><path fill="rgb(255,255,255)" stroke="rgb(255,255,255)" stroke-width="1" opacity="1" d="M 197 60 Q 201.9 58.4 200 64 Q 195.1 65.6 197 60 Z "></path><path fill="rgb(255,255,255)" stroke="rgb(255,255,255)" stroke-width="1" opacity="1" d="M 192 66 L 195 67.5 L 192 68 Q 193.9 73.6 189 72 L 189 68 Q 193.1 69.3 192 66 Z "></path><path fill="rgb(255,255,255)" stroke="rgb(255,255,255)" stroke-width="1" opacity="1" d="M 173 68 Q 177.9 66.4 176 72 Q 171.1 73.6 173 68 Z "></path><path fill="rgb(255,255,255)" stroke="rgb(255,255,255)" stroke-width="1" opacity="1" d="M 181 68 Q 185.9 66.4 184 72 Q 179.1 73.6 181 68 Z "></path><path fill="rgb(255,255,255)" stroke="rgb(255,255,255)" stroke-width="1" opacity="1" d="M 197 68 L 203 68 L 203 72 L 197 72 L 197 68 Z "></path><path fill="rgb(255,255,255)" stroke="rgb(255,255,255)" stroke-width="1" opacity="1" d="M 205 68 Q 209.9 66.4 208 72 Q 203.1 73.6 205 68 Z "></path><path fill="rgb(255,255,255)" stroke="rgb(255,255,255)" stroke-width="1" opacity="1" d="M 157 76 Q 161.9 74.4 160 80 Q 155.1 81.6 157 76 Z "></path><path fill="rgb(255,255,255)" stroke="rgb(255,255,255)" stroke-width="1" opacity="1" d="M 165 76 L 170.5 76 L 171 77.5 L 170.5 80 Q 162.7 82.4 165 76 Z "></path><path fill="rgb(255,255,255)" stroke="rgb(255,255,255)" stroke-width="1" opacity="1" d="M 173 76 Q 177.9 74.4 176 80 Q 171.1 81.6 173 76 Z "></path><path fill="rgb(255,255,255)" stroke="rgb(255,255,255)" stroke-width="1" opacity="1" d="M 181 76 Q 185.9 74.4 184 80 Q 179.1 81.6 181 76 Z "></path><path fill="rgb(255,255,255)" stroke="rgb(255,255,255)" stroke-width="1" opacity="1" d="M 197 76 Q 201.9 74.4 200 80 Q 195.1 81.6 197 76 Z "></path><path fill="rgb(255,255,255)" stroke="rgb(255,255,255)" stroke-width="1" opacity="1" d="M 205 76 Q 209.9 74.4 208 80 Q 203.1 81.6 205 76 Z "></path><path fill="rgb(255,255,255)" stroke="rgb(255,255,255)" stroke-width="1" opacity="1" d="M 157 84 Q 161.9 82.4 160 88 Q 155.1 89.6 157 84 Z "></path><path fill="rgb(255,255,255)" stroke="rgb(255,255,255)" stroke-width="1" opacity="1" d="M 165 84 Q 169.9 82.4 168 88 Q 163.1 89.6 165 84 Z "></path><path fill="rgb(255,255,255)" stroke="rgb(255,255,255)" stroke-width="1" opacity="1" d="M 173 84 Q 177.9 82.4 176 88 Q 171.1 89.6 173 84 Z "></path><path fill="rgb(255,255,255)" stroke="rgb(255,255,255)" stroke-width="1" opacity="1" d="M 181 84 Q 185.9 82.4 184 88 Q 179.1 89.6 181 84 Z "></path><path fill="rgb(255,255,255)" stroke="rgb(255,255,255)" stroke-width="1" opacity="1" d="M 189 84 Q 193.9 82.4 192 88 Q 187.1 89.6 189 84 Z "></path><path fill="rgb(255,255,255)" stroke="rgb(255,255,255)" stroke-width="1" opacity="1" d="M 197 84 Q 201.9 82.4 200 88 Q 195.1 89.6 197 84 Z "></path><path fill="rgb(255,255,255)" stroke="rgb(255,255,255)" stroke-width="1" opacity="1" d="M 205 84 Q 209.9 82.4 208 88 Q 203.1 89.6 205 84 Z "></path><path fill="rgb(255,255,255)" stroke="rgb(255,255,255)" stroke-width="1" opacity="1" d="M 204.5 99 L 207 99.5 L 204.5 100 L 204.5 99 Z "></path><path fill="rgb(255,255,255)" stroke="rgb(255,255,255)" stroke-width="1" opacity="1" d="M 192 100 L 199 100.5 L 192 102 L 192 100 Z "></path><path fill="rgb(255,255,255)" stroke="rgb(255,255,255)" stroke-width="1" opacity="1" d="M 212.5 104 L 216 105.5 L 216 108 Q 219.8 106.5 219 109.5 L 220 112 L 217 110.5 L 212.5 104 Z "></path><path fill="rgb(255,255,255)" stroke="rgb(255,255,255)" stroke-width="1" opacity="1" d="M 193.5 112 L 196 112.5 L 196 124 L 204 124 Q 202.3 119.5 207.5 121 L 211 120 Q 213.2 125.6 207.5 124 L 204 128.5 L 204 132 L 200 131.5 L 203 130.5 L 202.5 128 L 200.5 129 L 198.5 129 L 196.5 130 L 196 128 L 190.5 128 L 190 126.5 L 188 118.5 L 191.5 113 L 193.5 112 Z "></path><path fill="rgb(255,255,255)" stroke="rgb(255,255,255)" stroke-width="1" opacity="1" d="M 201 112 L 204.5 113 L 206 112.5 Q 206.8 114.8 204.5 114 L 204.5 115 L 207 115.5 L 204 116 Q 205.5 120.5 201 119 L 201 112 Z "></path><path fill="rgb(255,255,255)" stroke="rgb(255,255,255)" stroke-width="1" opacity="1" d="M 207.5 113 Q 209.8 112.3 209 114.5 L 209.5 116 Q 207.3 116.8 208 114.5 L 207.5 113 Z "></path><path fill="rgb(255,255,255)" stroke="rgb(255,255,255)" stroke-width="1" opacity="1" d="M 148 114 L 159.5 114 L 160 116 L 148.5 116 L 148 114 Z "></path><path fill="rgb(255,255,255)" stroke="rgb(255,255,255)" stroke-width="1" opacity="1" d="M 148 118 L 159.5 118 L 160 120 L 148.5 120 L 148 118 Z "></path><path fill="rgb(255,255,255)" stroke="rgb(255,255,255)" stroke-width="1" opacity="1" d="M 177.5 124 Q 181.7 122.7 180 127.5 L 182 132 L 180 132 L 180 128 Q 177 129.3 178 125.5 L 177.5 124 Z "></path><path fill="rgb(255,255,255)" stroke="rgb(255,255,255)" stroke-width="1" opacity="1" d="M 196.5 131 L 199 131.5 L 196.5 132 L 196.5 131 Z "></path><path fill="rgb(255,255,255)" stroke="rgb(255,255,255)" stroke-width="1" opacity="1" d="M 188.5 138 L 192 140.5 Q 192.8 142.8 190.5 142 L 188 141 L 188.5 138 Z "></path><path fill="rgb(255,255,255)" stroke="rgb(255,255,255)" stroke-width="1" opacity="1" d="M 334.5 187 L 337.5 188 L 346.5 190 L 359 197 L 359 231.5 L 356 232 L 355.5 234 L 350.5 234 L 348.5 234 L 346.5 235 L 345.5 234 L 335.5 234 L 332 236.5 L 331.5 238 L 320 228.5 L 327.5 220 L 337.5 219 L 340.5 220 L 342.5 219 L 344.5 220 L 350 217.5 L 351 212.5 L 348.5 209 L 340.5 204 L 331 202 L 332 192.5 L 334.5 187 Z "></path><path fill="rgb(255,255,255)" stroke="rgb(255,255,255)" stroke-width="1" opacity="1" d="M 311.5 237 Q 321.3 236.7 324 243.5 L 325 250.5 L 322.5 254 L 308.5 254 L 308 252 Q 304.3 253.5 305 250.5 Q 302.7 249.3 304 244.5 L 309.5 238 L 311.5 237 Z "></path><path fill="rgb(89,184,212)" stroke="rgb(89,184,212)" stroke-width="1" opacity="1" d="M 133 38 L 139 38 Q 137.7 42.1 141 41 L 141 38 L 147 38 Q 145.7 42.1 149 41 L 149 38 L 155 38 Q 153.7 42.1 157 41 L 157 38 L 163 38 Q 161.7 42.1 165 41 L 165 38 L 171 38 Q 169.7 42.1 173 41 L 173 38 L 179 38 Q 177.7 42.1 181 41 L 181 38 L 187 38 Q 185.7 42.1 189 41 L 189 38 L 195 38 Q 193.7 42.1 197 41 L 197 38 L 203 38 Q 201.7 42.1 205 41 L 205 38 L 211 38 Q 209.7 42.1 213 41 L 213 38 L 219 38 Q 217.7 42.1 221 41 L 221 38 L 227 38 L 227 48.5 L 226.5 49 L 133.5 49 L 133 51.5 L 132 51.5 L 133 38 Z "></path><path fill="rgb(89,184,212)" stroke="rgb(89,184,212)" stroke-width="1" opacity="1" d="M 148 57 L 156 57 L 156 71.5 L 152 73.5 L 155 74 L 156 79.5 L 152 81.5 L 155 82 L 156 87.5 Q 154.8 90.3 149.5 89 L 148 87.5 L 148 66 L 152 65.5 L 148 63.5 L 148 57 Z "></path><path fill="rgb(89,184,212)" stroke="rgb(89,184,212)" stroke-width="1" opacity="1" d="M 212.5 57 L 214 57.5 L 207.5 63 L 205.5 60 L 208.5 61 L 212.5 57 Z "></path><path fill="rgb(89,184,212)" stroke="rgb(89,184,212)" stroke-width="1" opacity="1" d="M 172.5 64 L 174 65.5 L 168.5 71 L 165 68.5 Q 164.3 66.3 166.5 67 Q 168.8 71.3 171 66.5 L 172.5 64 Z "></path><path fill="rgb(89,184,212)" stroke="rgb(89,184,212)" stroke-width="1" opacity="1" d="M 196.5 73 L 198 73.5 L 191.5 79 L 189 75 L 191 75 Q 189.9 77.7 192.5 77 L 196.5 73 Z "></path><path fill="rgb(89,184,212)" stroke="rgb(89,184,212)" stroke-width="1" opacity="1" d="M 196 101 Q 200.5 99.5 199 104 Q 194.5 105.5 196 101 Z "></path><path fill="rgb(89,184,212)" stroke="rgb(89,184,212)" stroke-width="1" opacity="1" d="M 201 101 Q 210.3 101.4 215 107.5 L 220 117.5 L 220 124.5 Q 217.8 132.3 212.5 137 Q 207.2 142.7 194.5 141 Q 187.8 138.8 184 133.5 Q 183.1 130.1 188.5 132 L 191.5 130 Q 194.7 134.3 203.5 133 L 210 127.5 L 212 120 L 210 119.5 L 216 118 Q 217.1 115.3 214.5 116 L 209.5 118 L 209.5 117 L 211 116.5 L 205.5 110 Q 201.8 110.8 201 108.5 L 201 101 Z "></path><path fill="rgb(89,184,212)" stroke="rgb(89,184,212)" stroke-width="1" opacity="1" d="M 213.5 102 L 214.5 104 L 213.5 102 Z "></path><path fill="rgb(89,184,212)" stroke="rgb(89,184,212)" stroke-width="1" opacity="1" d="M 216.5 102 L 217.5 104 L 216.5 102 Z "></path><path fill="rgb(89,184,212)" stroke="rgb(89,184,212)" stroke-width="1" opacity="1" d="M 218.5 107 L 222 108.5 L 219.5 109 L 218.5 107 Z "></path><path fill="rgb(89,184,212)" stroke="rgb(89,184,212)" stroke-width="1" opacity="1" d="M 196.5 108 L 199 108.5 L 196.5 109 L 196.5 108 Z "></path><path fill="rgb(89,184,212)" stroke="rgb(89,184,212)" stroke-width="1" opacity="1" d="M 222.5 116 L 223 118.5 L 222 118.5 L 222.5 116 Z "></path><path fill="rgb(89,184,212)" stroke="rgb(89,184,212)" stroke-width="1" opacity="1" d="M 222.5 123 L 223 125.5 L 222 125.5 L 222.5 123 Z "></path><path fill="rgb(89,184,212)" stroke="rgb(89,184,212)" stroke-width="1" opacity="1" d="M 224.5 123 L 225 125.5 L 224 125.5 L 224.5 123 Z "></path><path fill="rgb(89,184,212)" stroke="rgb(89,184,212)" stroke-width="1" opacity="1" d="M 166.5 128 L 167.5 130 L 165 129.5 L 166.5 128 Z "></path><path fill="rgb(89,184,212)" stroke="rgb(89,184,212)" stroke-width="1" opacity="1" d="M 169.5 128 L 170.5 130 L 169.5 128 Z "></path><path fill="rgb(89,184,212)" stroke="rgb(89,184,212)" stroke-width="1" opacity="1" d="M 169.5 131 Q 172.5 132.5 169.5 134 L 169.5 131 Z "></path><path fill="rgb(89,184,212)" stroke="rgb(89,184,212)" stroke-width="1" opacity="1" d="M 165.5 132 L 166.5 134 Q 163.7 134.7 165.5 132 Z "></path><path fill="rgb(89,184,212)" stroke="rgb(89,184,212)" stroke-width="1" opacity="1" d="M 219.5 136 L 215.5 141 L 219.5 136 Z "></path><path fill="rgb(89,184,212)" stroke="rgb(89,184,212)" stroke-width="1" opacity="1" d="M 132 137 Q 138 135 136 141 Q 130 143 132 137 Z "></path><path fill="rgb(89,184,212)" stroke="rgb(89,184,212)" stroke-width="1" opacity="1" d="M 140 137 Q 146 135 144 141 Q 138 143 140 137 Z "></path><path fill="rgb(89,184,212)" stroke="rgb(89,184,212)" stroke-width="1" opacity="1" d="M 194.5 145 L 197 145.5 L 194.5 146 L 194.5 145 Z "></path><path fill="rgb(89,184,212)" stroke="rgb(89,184,212)" stroke-width="1" opacity="1" d="M 203.5 145 L 206 145.5 L 203.5 146 L 203.5 145 Z "></path><path fill="rgb(42,48,50)" stroke="rgb(42,48,50)" stroke-width="1" opacity="0.996078431372549" d="M 139 33 Q 142.3 31.9 141 36 L 147 36 Q 145.7 31.9 149 33 L 149 36 L 155 36 Q 153.7 31.9 157 33 L 157 36 L 163 36 Q 161.7 31.9 165 33 L 165 36 L 171 36 Q 169.7 31.9 173 33 L 173 36 L 179 36 Q 177.7 31.9 181 33 L 181 36 L 187 36 Q 185.7 31.9 189 33 L 189 36 L 195 36 Q 193.7 31.9 197 33 L 197 36 L 203 36 Q 201.7 31.9 205 33 L 205 36 L 211 36 Q 209.7 31.9 213 33 L 213 36 L 219 36 Q 217.7 31.9 221 33 L 221 36 L 227.5 36 L 229 37.5 L 229 104.5 L 227.5 106 L 220 106 Q 224.7 111.7 225 122.5 L 221 134.5 L 213.5 142 Q 207.9 146.4 197.5 146 L 187.5 143 L 180 136.5 Q 174.5 130 175 117.5 L 177 110.5 L 180 106.5 L 131 106 L 131 36.5 L 131.5 36 L 139 36 L 139 33 Z M 133 38 L 133 49 L 132 50 L 133 53 L 133 100 L 188 100 L 197 96 Q 207 95 213 100 L 227 100 L 227 100 L 227 38 L 221 38 L 221 41 Q 218 42 219 38 L 213 38 L 213 41 Q 210 42 211 38 L 205 38 L 205 41 Q 202 42 203 38 L 197 38 L 197 41 Q 194 42 195 38 L 189 38 L 189 41 Q 186 42 187 38 L 181 38 L 181 41 Q 178 42 179 38 L 173 38 L 173 41 Q 170 42 171 38 L 165 38 L 165 41 Q 162 42 163 38 L 157 38 L 157 41 Q 154 42 155 38 L 149 38 L 149 41 Q 146 42 147 38 L 141 38 L 141 41 Q 138 42 139 38 L 133 38 Z M 195 98 L 188 101 Q 180 106 177 116 Q 175 128 180 134 Q 185 141 195 144 Q 208 146 214 140 Q 221 135 223 126 L 223 117 L 220 109 Q 214 97 195 98 Z M 133 102 L 133 104 L 182 104 L 183 103 L 133 102 Z M 217 102 L 218 104 L 227 104 L 227 102 L 217 102 Z "></path><path fill="rgb(42,48,50)" stroke="rgb(42,48,50)" stroke-width="1" opacity="0.996078431372549" d="M 199 99 L 201 99.5 L 201 109.5 L 200 111.5 L 201 112.5 L 201 120 L 216 116 Q 217.3 119 213.5 118 L 199 122 L 199 99 Z "></path><path fill="rgb(42,48,50)" stroke="rgb(42,48,50)" stroke-width="1" opacity="0.996078431372549" d="M 140 112 L 162.5 112 L 164 113.5 L 140 114 L 140 112 Z "></path><path fill="rgb(42,48,50)" stroke="rgb(42,48,50)" stroke-width="1" opacity="0.996078431372549" d="M 140 116 L 162.5 116 L 164 117.5 L 140 118 L 140 116 Z "></path><path fill="rgb(42,48,50)" stroke="rgb(42,48,50)" stroke-width="1" opacity="0.996078431372549" d="M 140 120 L 163.5 120 L 164 122 L 140.5 122 L 140 120 Z "></path><path fill="rgb(42,48,50)" stroke="rgb(42,48,50)" stroke-width="1" opacity="0.996078431372549" d="M 140 124 L 151.5 124 L 152 126 L 140.5 126 L 140 124 Z "></path><path fill="rgb(42,48,50)" stroke="rgb(42,48,50)" stroke-width="1" opacity="0.996078431372549" d="M 166.5 129 L 168.5 129 Q 170.8 128.3 170 130.5 L 169.5 133 Q 163.6 134.6 166.5 129 Z "></path><path fill="rgb(230,229,232)" stroke="rgb(230,229,232)" stroke-width="1" opacity="0.9921568627450981" d="M 1.5 0 L 358.5 0 L 360 1.5 L 359.5 168 L 359 2.5 L 357.5 1 L 2.5 1 L 1 2.5 L 1 252.5 L 2.5 254 L 304 254.5 L 1.5 255 L 0 253.5 L 0 1.5 L 1.5 0 Z "></path><path fill="rgb(230,229,232)" stroke="rgb(230,229,232)" stroke-width="1" opacity="0.9921568627450981" d="M 147 56 L 214 56.5 L 207.5 61 L 205 60 L 204 63.5 L 207.5 64 L 214 58.5 L 213 59.5 L 213 90 L 147 90 L 147 56 Z M 148 57 L 148 64 L 152 66 L 148 66 L 148 88 L 150 89 Q 155 90 156 88 L 155 82 L 152 82 L 156 80 L 155 74 L 152 74 L 156 72 L 156 57 L 148 57 Z M 157 58 L 157 64 L 163 64 L 163 58 L 157 58 Z M 165 58 L 165 64 L 171 64 L 171 58 L 165 58 Z M 173 58 L 173 64 L 179 64 L 179 58 L 173 58 Z M 181 58 L 181 64 L 187 64 L 187 58 L 181 58 Z M 189 58 L 189 64 L 195 64 L 195 58 L 189 58 Z M 197 58 L 197 64 L 203 64 L 203 58 L 197 58 Z M 206 58 L 208 60 L 210 59 L 206 58 Z M 211 62 L 209 64 L 211 64 L 211 62 Z M 173 64 L 169 69 L 165 67 L 165 72 L 171 72 Q 170 68 173 67 L 173 72 L 179 72 L 179 66 Q 174 67 173 64 Z M 157 66 L 157 72 L 163 72 L 163 66 L 157 66 Z M 168 66 L 168 68 L 170 67 L 168 66 Z M 181 66 L 181 72 L 187 72 L 187 66 L 181 66 Z M 189 66 L 189 72 L 195 72 L 195 68 Q 194 65 189 66 Z M 197 66 L 197 72 L 203 72 L 203 66 L 197 66 Z M 205 66 L 205 72 L 211 72 L 211 66 L 205 66 Z M 197 73 L 193 77 Q 190 78 191 75 Q 188 74 189 77 L 189 80 L 192 80 L 198 74 L 197 73 Z M 157 74 L 157 80 L 163 80 L 163 74 L 157 74 Z M 165 74 L 165 80 L 171 80 L 171 78 L 171 74 L 165 74 Z M 173 74 L 173 80 L 179 80 L 179 74 L 173 74 Z M 181 74 L 181 80 L 187 80 L 187 74 L 181 74 Z M 192 74 L 192 76 L 194 75 L 192 74 Z M 199 74 L 197 76 L 197 80 L 203 80 L 203 74 L 199 74 Z M 205 74 L 205 80 L 211 80 L 211 76 Q 210 73 205 74 Z M 195 78 L 193 80 L 195 80 L 195 78 Z M 157 82 L 157 88 L 163 88 L 163 82 L 157 82 Z M 165 82 L 165 88 L 171 88 L 171 82 L 165 82 Z M 173 82 L 173 88 L 179 88 L 179 82 L 173 82 Z M 181 82 L 181 88 L 187 88 L 187 82 L 181 82 Z M 189 82 L 189 88 L 195 88 L 195 82 L 189 82 Z M 197 82 L 197 88 L 203 88 L 203 82 L 197 82 Z M 205 82 L 205 88 L 211 88 L 211 82 L 205 82 Z "></path><path fill="rgb(230,229,232)" stroke="rgb(230,229,232)" stroke-width="1" opacity="0.9921568627450981" d="M 194.5 101 Q 197.5 100.2 196 104 L 199 104 L 199 108 Q 195.3 106.5 196 109.5 L 190 114.5 Q 187.2 117.2 188 123.5 L 190 128 Q 192.7 126.9 192 129.5 L 192.5 131 L 190.5 130 Q 188.6 133.8 182 132 Q 178.6 126.7 180 115.5 Q 182.6 108.1 188.5 104 L 194.5 101 Z "></path><path fill="rgb(230,229,232)" stroke="rgb(230,229,232)" stroke-width="1" opacity="0.9921568627450981" d="M 133 102 L 183 102.5 L 181.5 104 L 133 104 L 133 102 Z "></path><path fill="rgb(230,229,232)" stroke="rgb(230,229,232)" stroke-width="1" opacity="0.9921568627450981" d="M 217.5 102 L 226.5 102 L 227 104 L 218.5 104 L 217.5 102 Z "></path><path fill="rgb(230,229,232)" stroke="rgb(230,229,232)" stroke-width="1" opacity="0.9921568627450981" d="M 211.5 104 L 212.5 106 L 211.5 104 Z "></path><path fill="rgb(230,229,232)" stroke="rgb(230,229,232)" stroke-width="1" opacity="0.9921568627450981" d="M 215.5 104 L 218 108 L 216 108.5 L 216.5 110 Q 213.8 108.8 216 107.5 L 215.5 104 Z "></path><path fill="rgb(230,229,232)" stroke="rgb(230,229,232)" stroke-width="1" opacity="0.9921568627450981" d="M 132 109 L 144.5 109 L 145 112 L 140 112 L 140 114 Q 145.2 112.3 144 116 Q 138.8 114.3 140 118 Q 145.2 116.3 144 120 L 140 120 L 139.5 123 L 132 123 L 132 109 Z "></path><path fill="rgb(230,229,232)" stroke="rgb(230,229,232)" stroke-width="1" opacity="0.9921568627450981" d="M 205.5 110 L 206.5 112 L 205.5 110 Z "></path><path fill="rgb(230,229,232)" stroke="rgb(230,229,232)" stroke-width="1" opacity="0.9921568627450981" d="M 184.5 134 L 185.5 136 Q 182.7 136.7 184.5 134 Z "></path><path fill="rgb(230,229,232)" stroke="rgb(230,229,232)" stroke-width="1" opacity="0.9921568627450981" d="M 131.5 137 L 132 140.5 L 131 140.5 L 131.5 137 Z "></path><path fill="rgb(230,229,232)" stroke="rgb(230,229,232)" stroke-width="1" opacity="0.9921568627450981" d="M 139.5 137 L 140 139.5 L 139 139.5 L 139.5 137 Z "></path><path fill="rgb(230,229,232)" stroke="rgb(230,229,232)" stroke-width="1" opacity="0.9921568627450981" d="M 148 137 Q 154 135 152 141 Q 146 143 148 137 Z "></path><path fill="rgb(230,229,232)" stroke="rgb(230,229,232)" stroke-width="1" opacity="0.9921568627450981" d="M 156 137 L 160 138.5 Q 161.2 143.1 156 141 L 156 137 Z "></path><path fill="rgb(230,229,232)" stroke="rgb(230,229,232)" stroke-width="1" opacity="0.9921568627450981" d="M 359.5 172 L 360 231.5 L 359 231.5 L 359.5 172 Z "></path><path fill="rgb(230,229,232)" stroke="rgb(230,229,232)" stroke-width="1" opacity="0.9921568627450981" d="M 359.5 236 L 360 253.5 L 358.5 255 L 308.5 255 L 308.5 254 L 357.5 254 L 359 252.5 L 359.5 236 Z "></path></svg>