<?xml version="1.0" encoding="UTF-8"?>
<!DOCTYPE svg PUBLIC "-//W3C//DTD SVG 1.1//EN" "http://www.w3.org/Graphics/SVG/1.1/DTD/svg11.dtd">
<svg xmlns="http://www.w3.org/2000/svg" version="1.1" width="360px" height="255px" style="shape-rendering:geometricPrecision; text-rendering:geometricPrecision; image-rendering:optimizeQuality; fill-rule:evenodd; clip-rule:evenodd" xmlns:xlink="http://www.w3.org/1999/xlink">
<g><path style="opacity:0.992" fill="#ebeceb" d="M 0.5,-0.5 C 119.833,-0.5 239.167,-0.5 358.5,-0.5C 358.5,0.166667 358.833,0.5 359.5,0.5C 359.5,84.8333 359.5,169.167 359.5,253.5C 358.833,253.5 358.5,253.833 358.5,254.5C 239.167,254.5 119.833,254.5 0.5,254.5C 0.5,253.833 0.166667,253.5 -0.5,253.5C -0.5,169.167 -0.5,84.8333 -0.5,0.5C 0.166667,0.5 0.5,0.166667 0.5,-0.5 Z"/></g>
<g><path style="opacity:1" fill="#fefefe" d="M 358.5,173.5 C 331.382,156.647 305.048,157.813 279.5,177C 257.131,199.083 252.131,224.583 264.5,253.5C 176.833,253.667 89.166,253.5 1.5,253C 0.166667,169 0.166667,85 1.5,1C 120.167,0.333333 238.833,0.333333 357.5,1C 358.498,58.4286 358.831,115.929 358.5,173.5 Z"/></g>
<g><path style="opacity:1" fill="#0fa5db" d="M 154.5,47.5 C 153.711,47.7828 153.044,48.2828 152.5,49C 145.833,49.6667 139.167,49.6667 132.5,49C 131.426,48.2613 130.759,47.2613 130.5,46C 132.867,43.6311 134.367,40.7977 135,37.5C 139.924,32.244 144.924,32.244 150,37.5C 150.552,40.0467 151.886,42.0467 154,43.5C 154.49,44.7932 154.657,46.1266 154.5,47.5 Z"/></g>
<g><path style="opacity:1" fill="#1a2843" d="M 207.5,50.5 C 206.501,52.3179 205.168,53.9846 203.5,55.5C 202.583,54.8728 201.583,54.5394 200.5,54.5C 195.124,50.8774 195.457,50.2108 201.5,52.5C 201.833,52.1667 202.167,51.8333 202.5,51.5C 195.854,37.2229 184.854,32.0563 169.5,36C 161.303,39.5523 156.303,45.719 154.5,54.5C 153.596,53.791 153.263,52.791 153.5,51.5C 153.833,50.1667 154.167,48.8333 154.5,47.5C 167.106,29.876 181.94,27.876 199,41.5C 201.091,44.6819 202.925,48.0152 204.5,51.5C 205.5,50.1667 206.5,48.8333 207.5,47.5C 208.562,48.4246 208.562,49.4246 207.5,50.5 Z"/></g>
<g><path style="opacity:1" fill="#189aca" d="M 207.5,50.5 C 210.986,50.9894 214.319,52.156 217.5,54C 219.961,58.763 223.127,62.9297 227,66.5C 225.376,72.3856 224.209,78.3856 223.5,84.5C 223.666,79.4889 223.499,74.4889 223,69.5C 222.5,69 222,68.5 221.5,68C 207.504,67.5001 193.504,67.3334 179.5,67.5C 184.316,66.6739 189.316,66.1739 194.5,66C 196.926,62.4718 198.926,58.6385 200.5,54.5C 201.583,54.5394 202.583,54.8728 203.5,55.5C 205.168,53.9846 206.501,52.3179 207.5,50.5 Z"/></g>
<g><path style="opacity:1" fill="#adc3d7" d="M 153.5,51.5 C 153.263,52.791 153.596,53.791 154.5,54.5C 162.316,55.4924 170.316,55.8257 178.5,55.5C 178.5,56.5 178.5,57.5 178.5,58.5C 165.167,58.5 151.833,58.5 138.5,58.5C 138.5,61.8333 138.5,65.1667 138.5,68.5C 137.5,68.5 136.5,68.5 135.5,68.5C 135.334,64.4862 135.501,60.4862 136,56.5C 136.5,56 137,55.5 137.5,55C 142.489,54.5007 147.489,54.3341 152.5,54.5C 152.263,53.209 152.596,52.209 153.5,51.5 Z"/></g>
<g><path style="opacity:1" fill="#01030c" d="M 179.5,67.5 C 193.504,67.3334 207.504,67.5001 221.5,68C 222,68.5 222.5,69 223,69.5C 223.499,74.4889 223.666,79.4889 223.5,84.5C 222.523,81.7131 222.19,78.7131 222.5,75.5C 222.896,72.9556 222.229,70.7889 220.5,69C 211.173,68.5002 201.839,68.3335 192.5,68.5C 187.968,68.8182 183.634,68.4849 179.5,67.5 Z"/></g>
<g><path style="opacity:1" fill="#11254c" d="M 135.5,68.5 C 136.5,68.5 137.5,68.5 138.5,68.5C 144.868,68.1703 151.202,68.5037 157.5,69.5C 148.833,70.8333 140.167,70.8333 131.5,69.5C 132.689,68.5713 134.022,68.238 135.5,68.5 Z"/></g>
<g><path style="opacity:1" fill="#b3c5d8" d="M 179.5,67.5 C 183.634,68.4849 187.968,68.8182 192.5,68.5C 192.5,68.8333 192.5,69.1667 192.5,69.5C 187.786,69.8266 183.12,69.4933 178.5,68.5C 178.624,67.8933 178.957,67.56 179.5,67.5 Z"/></g>
<g><path style="opacity:1" fill="#04a3d5" d="M 192.5,68.5 C 201.839,68.3335 211.173,68.5002 220.5,69C 222.229,70.7889 222.896,72.9556 222.5,75.5C 221.167,78.5 219.833,81.5 218.5,84.5C 218.5,81.5 218.5,78.5 218.5,75.5C 210.826,75.6664 203.159,75.4997 195.5,75C 194.692,74.6924 194.025,74.1924 193.5,73.5C 188.5,72.8333 183.5,72.1667 178.5,71.5C 183.317,70.8331 187.983,70.1665 192.5,69.5C 192.5,69.1667 192.5,68.8333 192.5,68.5 Z"/></g>
<g><path style="opacity:1" fill="#10254d" d="M 131.5,72.5 C 140.192,72.1686 148.859,72.502 157.5,73.5C 153.167,73.8333 148.833,74.1667 144.5,74.5C 139.778,74.4921 135.445,73.8255 131.5,72.5 Z"/></g>
<g><path style="opacity:1" fill="#11264e" d="M 131.5,76.5 C 140.192,76.1686 148.859,76.502 157.5,77.5C 153.167,77.8333 148.833,78.1667 144.5,78.5C 139.778,78.4921 135.445,77.8255 131.5,76.5 Z"/></g>
<g><path style="opacity:1" fill="#11264e" d="M 131.5,80.5 C 140.192,80.1686 148.859,80.502 157.5,81.5C 153.167,81.8333 148.833,82.1667 144.5,82.5C 139.778,82.4921 135.445,81.8255 131.5,80.5 Z"/></g>
<g><path style="opacity:1" fill="#192640" d="M 176.5,79.5 C 184.851,79.6091 190.185,83.2758 192.5,90.5C 190.635,91.6662 188.968,91.3329 187.5,89.5C 189.936,87.4474 189.602,85.614 186.5,84C 177.916,79.2063 171.749,81.373 168,90.5C 167.333,89.1667 167.333,87.8333 168,86.5C 170.441,83.5464 173.275,81.2131 176.5,79.5 Z"/></g>
<g><path style="opacity:1" fill="#a2b9cf" d="M 222.5,75.5 C 222.19,78.7131 222.523,81.7131 223.5,84.5C 224.388,87.0545 224.721,89.7212 224.5,92.5C 228.335,93.0035 228.335,94.0035 224.5,95.5C 228.5,96.8333 228.5,98.1667 224.5,99.5C 228.335,100.996 228.335,101.996 224.5,102.5C 224.5,107.167 224.5,111.833 224.5,116.5C 223.674,112.018 223.174,107.351 223,102.5C 222.826,107.351 222.326,112.018 221.5,116.5C 221.819,111.637 221.486,106.97 220.5,102.5C 221.113,96.7291 220.446,91.3958 218.5,86.5C 195.833,85.8333 195.833,85.1667 218.5,84.5C 219.833,81.5 221.167,78.5 222.5,75.5 Z"/></g>
<g><path style="opacity:1" fill="#10254c" d="M 131.5,84.5 C 140.192,84.1686 148.859,84.502 157.5,85.5C 153.167,85.8333 148.833,86.1667 144.5,86.5C 139.778,86.4921 135.445,85.8255 131.5,84.5 Z"/></g>
<g><path style="opacity:1" fill="#13274e" d="M 138.5,90.5 C 137.5,90.5 136.5,90.5 135.5,90.5C 135.167,90.5 134.833,90.5 134.5,90.5C 133.325,90.719 132.325,90.3857 131.5,89.5C 136.833,88.1667 142.167,88.1667 147.5,89.5C 144.572,90.4841 141.572,90.8174 138.5,90.5 Z"/></g>
<g><path style="opacity:1" fill="#bacedf" d="M 218.5,88.5 C 218.5,89.1667 218.5,89.8333 218.5,90.5C 195.833,89.8333 195.833,89.1667 218.5,88.5 Z"/></g>
<g><path style="opacity:1" fill="#bacddf" d="M 218.5,92.5 C 218.5,93.1667 218.5,93.8333 218.5,94.5C 195.833,93.8333 195.833,93.1667 218.5,92.5 Z"/></g>
<g><path style="opacity:1" fill="#b8cdde" d="M 218.5,96.5 C 218.5,97.1667 218.5,97.8333 218.5,98.5C 195.833,97.8333 195.833,97.1667 218.5,96.5 Z"/></g>
<g><path style="opacity:1" fill="#202f48" d="M 180.5,105.5 C 178.097,105.552 175.764,105.219 173.5,104.5C 172.205,103.512 170.872,102.512 169.5,101.5C 168.678,98.8616 167.345,97.3616 165.5,97C 167.073,93.8763 169.073,93.7097 171.5,96.5C 170.975,97.1924 170.308,97.6924 169.5,98C 173.636,103.656 178.969,104.99 185.5,102C 187.701,99.5953 189.701,97.7619 191.5,96.5C 189.92,102.082 186.254,105.082 180.5,105.5 Z"/></g>
<g><path style="opacity:1" fill="#abc1d7" d="M 135.5,90.5 C 136.5,90.5 137.5,90.5 138.5,90.5C 138.5,94.1667 138.5,97.8333 138.5,101.5C 148.833,101.5 159.167,101.5 169.5,101.5C 170.872,102.512 172.205,103.512 173.5,104.5C 160.833,104.5 148.167,104.5 135.5,104.5C 135.5,99.8333 135.5,95.1667 135.5,90.5 Z"/></g>
<g><path style="opacity:1" fill="#b9cdde" d="M 218.5,100.5 C 218.5,101.167 218.5,101.833 218.5,102.5C 195.833,101.833 195.833,101.167 218.5,100.5 Z"/></g>
<g><path style="opacity:1" fill="#d8e3ef" d="M 134.5,90.5 C 134.833,90.5 135.167,90.5 135.5,90.5C 135.5,95.1667 135.5,99.8333 135.5,104.5C 148.167,104.5 160.833,104.5 173.5,104.5C 175.764,105.219 178.097,105.552 180.5,105.5C 179.911,107.352 179.244,109.185 178.5,111C 165.833,111.667 153.167,111.667 140.5,111C 137.382,110.127 134.382,108.961 131.5,107.5C 130.614,106.675 130.281,105.675 130.5,104.5C 131.833,104.5 133.167,104.5 134.5,104.5C 134.5,99.8333 134.5,95.1667 134.5,90.5 Z"/></g>
<g><path style="opacity:1" fill="#b8cdde" d="M 201.5,104.5 C 206.544,104.173 211.544,104.506 216.5,105.5C 214,105.833 211.5,106.167 209,106.5C 206.071,106.475 203.571,105.809 201.5,104.5 Z"/></g>
<g><path style="opacity:1" fill="#abeffd" d="M 218.5,112.5 C 205.301,112.84 192.301,113.84 179.5,115.5C 178.596,114.791 178.263,113.791 178.5,112.5C 191.833,112.5 205.167,112.5 218.5,112.5 Z"/></g>
<g><path style="opacity:1" fill="#2db4e5" d="M 218.5,86.5 C 220.446,91.3958 221.113,96.7291 220.5,102.5C 220.5,106.833 220.5,111.167 220.5,115.5C 206.833,115.5 193.167,115.5 179.5,115.5C 192.301,113.84 205.301,112.84 218.5,112.5C 218.5,109.167 218.5,105.833 218.5,102.5C 218.5,101.833 218.5,101.167 218.5,100.5C 218.5,99.8333 218.5,99.1667 218.5,98.5C 218.5,97.8333 218.5,97.1667 218.5,96.5C 218.5,95.8333 218.5,95.1667 218.5,94.5C 218.5,93.8333 218.5,93.1667 218.5,92.5C 218.5,91.8333 218.5,91.1667 218.5,90.5C 218.5,89.8333 218.5,89.1667 218.5,88.5C 218.5,87.8333 218.5,87.1667 218.5,86.5 Z"/></g>
<g><path style="opacity:1" fill="#112446" d="M 224.5,116.5 C 225.5,116.5 226.5,116.5 227.5,116.5C 227.714,118.144 227.38,119.644 226.5,121C 223.673,122.664 220.673,123.83 217.5,124.5C 217.5,124.167 217.5,123.833 217.5,123.5C 217.5,123.167 217.5,122.833 217.5,122.5C 220.707,121.821 223.707,120.654 226.5,119C 212.837,118.5 199.171,118.333 185.5,118.5C 182.918,118.975 180.918,118.308 179.5,116.5C 193.5,116.5 207.5,116.5 221.5,116.5C 222.326,112.018 222.826,107.351 223,102.5C 223.174,107.351 223.674,112.018 224.5,116.5 Z"/></g>
<g><path style="opacity:1" fill="#f7f9fb" d="M 185.5,118.5 C 199.171,118.333 212.837,118.5 226.5,119C 223.707,120.654 220.707,121.821 217.5,122.5C 208.161,122.666 198.827,122.5 189.5,122C 188.269,120.595 186.936,119.429 185.5,118.5 Z"/></g>
<g><path style="opacity:1" fill="#20a0d6" d="M 179.5,116.5 C 180.918,118.308 182.918,118.975 185.5,118.5C 186.936,119.429 188.269,120.595 189.5,122C 198.827,122.5 208.161,122.666 217.5,122.5C 217.5,122.833 217.5,123.167 217.5,123.5C 204.829,123.333 192.162,123.5 179.5,124C 187.677,124.171 195.677,124.671 203.5,125.5C 199.486,125.334 195.486,125.501 191.5,126C 193.48,129.488 196.147,132.321 199.5,134.5C 191.51,143.974 181.51,146.808 169.5,143C 165.725,141.389 162.725,138.889 160.5,135.5C 161.315,134.163 162.482,133.163 164,132.5C 164.937,123.063 170.103,117.73 179.5,116.5 Z"/></g>
<g><path style="opacity:1" fill="#020307" d="M 217.5,123.5 C 217.5,123.833 217.5,124.167 217.5,124.5C 213.445,124.176 209.445,124.509 205.5,125.5C 204.873,126.417 204.539,127.417 204.5,128.5C 203.662,128.158 203.328,127.492 203.5,126.5C 203.5,126.167 203.5,125.833 203.5,125.5C 195.677,124.671 187.677,124.171 179.5,124C 192.162,123.5 204.829,123.333 217.5,123.5 Z"/></g>
<g><path style="opacity:1" fill="#f7f9fb" d="M 203.5,125.5 C 203.5,125.833 203.5,126.167 203.5,126.5C 202.366,129.216 201.033,131.882 199.5,134.5C 196.147,132.321 193.48,129.488 191.5,126C 195.486,125.501 199.486,125.334 203.5,125.5 Z"/></g>
<g><path style="opacity:1" fill="#111e38" d="M 160.5,135.5 C 162.725,138.889 165.725,141.389 169.5,143C 181.51,146.808 191.51,143.974 199.5,134.5C 201.033,131.882 202.366,129.216 203.5,126.5C 203.328,127.492 203.662,128.158 204.5,128.5C 203.087,131.661 201.42,134.661 199.5,137.5C 195.774,140.688 191.774,143.355 187.5,145.5C 181.833,146.833 176.167,146.833 170.5,145.5C 165.958,143.301 161.958,140.301 158.5,136.5C 156.588,133.679 154.921,130.679 153.5,127.5C 152.738,128.628 152.071,129.795 151.5,131C 150.833,131.667 150.167,131.667 149.5,131C 150.833,128.667 152.167,126.333 153.5,124C 156.434,124.295 159.101,125.461 161.5,127.5C 159.5,127.5 157.5,127.5 155.5,127.5C 156.691,130.568 158.358,133.235 160.5,135.5 Z"/></g>
<g><path style="opacity:1" fill="#12a1d8" d="M 158.5,136.5 C 161.958,140.301 165.958,143.301 170.5,145.5C 162.656,147.27 158.656,144.27 158.5,136.5 Z"/></g>
<g><path style="opacity:1" fill="#10a8dc" d="M 199.5,137.5 C 198.379,144.082 194.379,146.749 187.5,145.5C 191.774,143.355 195.774,140.688 199.5,137.5 Z"/></g>
<g><path style="opacity:1" fill="#f0fbfe" d="M 358.5,173.5 C 358.5,182.167 358.5,190.833 358.5,199.5C 355.741,197.707 352.741,197.207 349.5,198C 336.986,210.681 324.319,223.181 311.5,235.5C 303.651,227.817 295.651,220.317 287.5,213C 285.833,212.333 284.167,212.333 282.5,213C 280.667,214.833 278.833,216.667 277,218.5C 276.333,220.5 276.333,222.5 277,224.5C 286.702,234.035 296.202,243.702 305.5,253.5C 291.833,253.5 278.167,253.5 264.5,253.5C 252.131,224.583 257.131,199.083 279.5,177C 305.048,157.813 331.382,156.647 358.5,173.5 Z"/></g>
<g><path style="opacity:1" fill="#fefeff" d="M 358.5,199.5 C 358.5,203.833 358.5,208.167 358.5,212.5C 344.5,225.833 330.833,239.5 317.5,253.5C 313.5,253.5 309.5,253.5 305.5,253.5C 296.202,243.702 286.702,234.035 277,224.5C 276.333,222.5 276.333,220.5 277,218.5C 278.833,216.667 280.667,214.833 282.5,213C 284.167,212.333 285.833,212.333 287.5,213C 295.651,220.317 303.651,227.817 311.5,235.5C 324.319,223.181 336.986,210.681 349.5,198C 352.741,197.207 355.741,197.707 358.5,199.5 Z"/></g>
<g><path style="opacity:1" fill="#f0fbfd" d="M 358.5,212.5 C 358.667,225.837 358.5,239.171 358,252.5C 344.579,253.49 331.079,253.823 317.5,253.5C 330.833,239.5 344.5,225.833 358.5,212.5 Z"/></g>
</svg>
